<svg width="512" height="512" viewBox="0 0 512 512" fill="none" xmlns="http://www.w3.org/2000/svg">
<g clip-path="url(#clip0_1239_68)">
<path d="M275.978 398.231L503.821 170.385C509.094 165.115 512 158.08 512 150.58C512 143.079 509.094 136.044 503.821 130.774L487.045 113.994C476.114 103.076 458.349 103.076 447.434 113.994L256.106 305.323L64.5656 113.782C59.2916 108.512 52.261 105.603 44.7643 105.603C37.2591 105.603 30.2286 108.512 24.9504 113.782L8.17943 130.562C2.90546 135.835 3.27872e-07 142.866 0 150.367C-3.27885e-07 157.868 2.90546 164.903 8.17943 170.173L236.23 398.231C241.521 403.514 248.585 406.414 256.093 406.398C263.633 406.414 270.692 403.514 275.978 398.231Z" fill="#2A4858"/>
</g>
<defs>
<clipPath id="clip0_1239_68">
<rect width="512" height="512" fill="white"/>
</clipPath>
</defs>
</svg>
