<svg id="Layer_1" enable-background="new 0 0 512 512" height="512" viewBox="0 0 512 512" width="512"
     xmlns="http://www.w3.org/2000/svg">
    <g>
        <path style="fill:#000000;"
              d="m120 192c17.65 0 32-14.36 32-32s-14.35-32-32-32-32 14.36-32 32 14.35 32 32 32zm0-40c4.42 0 8 3.58 8 8s-3.58 8-8 8-8-3.58-8-8 3.58-8 8-8z"/>
        <path style="fill:#000000;"
              d="m208 80h-176c-17.65 0-32 14.36-32 32v288c0 17.64 14.35 32 32 32h176c17.65 0 32-14.36 32-32v-288c0-17.64-14.35-32-32-32zm-88 32c26.47 0 48 21.53 48 48s-21.53 48-48 48-48-21.53-48-48 21.53-48 48-48zm-80 0c4.42 0 8 3.58 8 8s-3.58 8-8 8-8-3.58-8-8 3.58-8 8-8zm0 288c-4.42 0-8-3.58-8-8s3.58-8 8-8 8 3.58 8 8-3.58 8-8 8zm144-24c-2.05 0-4.09-.78-5.66-2.34l-6.478-6.478c-.719-.719-1.855-.772-2.656-.145-28.874 22.612-69.499 22.643-98.412 0-.801-.627-1.937-.574-2.656.145l-6.478 6.478c-1.57 1.56-3.61 2.34-5.66 2.34-7.105 0-10.678-8.626-5.66-13.66l6.478-6.478c.719-.719.772-1.855.145-2.656-22.615-28.878-22.64-69.503 0-98.412.627-.801.574-1.937-.145-2.656l-6.478-6.478c-3.12-3.13-3.12-8.19 0-11.32 3.13-3.12 8.19-3.12 11.32 0l6.478 6.478c.719.719 1.855.772 2.656.145 28.872-22.611 69.499-22.644 98.412 0 .801.627 1.937.574 2.656-.145l6.478-6.478c3.13-3.12 8.19-3.12 11.32 0 3.12 3.13 3.12 8.19 0 11.32l-6.478 6.478c-.719.719-.772 1.855-.145 2.656 22.615 28.878 22.64 69.503 0 98.412-.627.801-.574 1.937.145 2.656l6.478 6.478c5.016 5.032 1.447 13.66-5.66 13.66zm16 24c-4.42 0-8-3.58-8-8s3.58-8 8-8 8 3.58 8 8-3.58 8-8 8zm0-272c-4.42 0-8-3.58-8-8s3.58-8 8-8 8 3.58 8 8-3.58 8-8 8z"/>
        <circle style="fill:#000000;" cx="120" cy="304" r="32"/>
        <path style="fill:#000000;"
              d="m120 240c-35.29 0-64 28.71-64 64s28.71 64 64 64 64-28.71 64-64-28.71-64-64-64zm0 112c-26.47 0-48-21.53-48-48s21.53-48 48-48 48 21.53 48 48-21.53 48-48 48z"/>
        <path style="fill:#000000;"
              d="m480 80h-176c-17.64 0-32 14.36-32 32v288c0 17.64 14.36 32 32 32h176c17.64 0 32-14.36 32-32v-288c0-17.64-14.36-32-32-32zm-88 32c26.47 0 48 21.53 48 48s-21.53 48-48 48-48-21.53-48-48 21.53-48 48-48zm-80 0c4.42 0 8 3.58 8 8s-3.58 8-8 8-8-3.58-8-8 3.58-8 8-8zm0 288c-4.42 0-8-3.58-8-8s3.58-8 8-8 8 3.58 8 8-3.58 8-8 8zm144-24c-2.05 0-4.09-.78-5.66-2.34l-6.478-6.478c-.719-.719-1.855-.772-2.656-.145-28.874 22.612-69.499 22.643-98.412 0-.801-.627-1.937-.574-2.656.145l-6.478 6.478c-1.57 1.56-3.61 2.34-5.66 2.34-7.105 0-10.678-8.626-5.66-13.66l6.478-6.478c.719-.719.772-1.855.145-2.656-22.615-28.878-22.64-69.503 0-98.412.627-.801.574-1.937-.145-2.656l-6.478-6.478c-3.12-3.13-3.12-8.19 0-11.32 3.13-3.12 8.19-3.12 11.32 0l6.478 6.478c.719.719 1.855.772 2.656.145 28.872-22.611 69.499-22.644 98.412 0 .801.627 1.937.574 2.656-.145l6.478-6.478c3.13-3.12 8.19-3.12 11.32 0 3.12 3.13 3.12 8.19 0 11.32l-6.478 6.478c-.719.719-.772 1.855-.145 2.656 22.615 28.878 22.64 69.503 0 98.412-.627.801-.574 1.937.145 2.656l6.478 6.478c5.016 5.032 1.447 13.66-5.66 13.66zm16 24c-4.42 0-8-3.58-8-8s3.58-8 8-8 8 3.58 8 8-3.58 8-8 8zm0-272c-4.42 0-8-3.58-8-8s3.58-8 8-8 8 3.58 8 8-3.58 8-8 8z"/>
        <circle style="fill:#000000;" cx="392" cy="304" r="32"/>
        <path style="fill:#000000;"
              d="m392 192c17.64 0 32-14.36 32-32s-14.36-32-32-32-32 14.36-32 32 14.36 32 32 32zm0-40c4.42 0 8 3.58 8 8s-3.58 8-8 8-8-3.58-8-8 3.58-8 8-8z"/>
        <path style="fill:#000000;"
              d="m392 240c-35.29 0-64 28.71-64 64s28.71 64 64 64 64-28.71 64-64-28.71-64-64-64zm0 112c-26.47 0-48-21.53-48-48s21.53-48 48-48 48 21.53 48 48-21.53 48-48 48z"/>
    </g>
</svg>