<svg width="512" height="512" viewBox="0 0 512 512" fill="none" xmlns="http://www.w3.org/2000/svg">
<path fill-rule="evenodd" clip-rule="evenodd" d="M420.367 509.453C423.259 511.121 426.539 512 429.877 512C434.949 512 439.812 509.987 443.399 506.404C446.985 502.822 449 497.962 449 492.896V385H410.755V459.908L384 444.582V474C384 478.666 383.181 483.141 381.678 487.288L420.367 509.453ZM306 443.932L256.499 415.573L92.6328 509.453C89.7263 511.117 86.4329 511.99 83.0827 511.983C79.7324 511.976 76.4427 511.09 73.5432 509.413C70.6436 507.736 68.2358 505.328 66.561 502.429C64.8861 499.53 64.003 496.243 64 492.896V19.1045C64 14.0377 66.0147 9.17836 69.6009 5.59557C73.1871 2.01279 78.0509 0 83.1225 0H429.877C434.949 0 439.812 2.01279 443.399 5.59557C446.985 9.17836 449 14.0377 449 19.1045V306H410.755V38.209H102.245V459.908L233.015 385H279.985L306 399.902V443.932Z" fill="white"/>
<path fill-rule="evenodd" clip-rule="evenodd" d="M344.755 202.363C356.201 202.363 365.48 211.642 365.48 223.088V325.029H467.421C478.867 325.029 488.146 334.308 488.146 345.754C488.146 357.2 478.867 366.478 467.421 366.478H365.48V468.421C365.48 479.867 356.201 489.146 344.755 489.146C333.309 489.146 324.031 479.867 324.031 468.421V366.478H222.088C210.642 366.478 201.363 357.2 201.363 345.754C201.363 334.308 210.642 325.029 222.088 325.029H324.031V223.088C324.031 211.642 333.309 202.363 344.755 202.363Z" fill="white"/>
</svg>
