<svg width="512" height="512" viewBox="0 0 512 512" fill="none" xmlns="http://www.w3.org/2000/svg">
<path d="M429.532 512C426.197 512 422.92 511.121 420.031 509.453L256.318 415.573L92.6058 509.453C89.702 511.117 86.4118 511.99 83.0647 511.983C79.7176 511.976 76.431 511.09 73.5342 509.413C70.6373 507.736 68.2318 505.328 66.5586 502.429C64.8853 499.53 64.003 496.243 64 492.896V19.1045C64 14.0377 66.0128 9.17836 69.5956 5.59557C73.1784 2.01279 78.0377 0 83.1045 0H429.532C434.599 0 439.458 2.01279 443.041 5.59557C446.624 9.17836 448.637 14.0377 448.637 19.1045V492.896C448.637 497.962 446.624 502.822 443.041 506.404C439.458 509.987 434.599 512 429.532 512ZM256.318 374.448C259.654 374.448 262.931 375.327 265.82 376.995L410.428 459.908V38.209H102.209V459.908L246.817 376.995C249.706 375.327 252.983 374.448 256.318 374.448V374.448Z" fill="white"/>
</svg>
