<svg width="512" height="512" viewBox="0 0 512 512" fill="none" xmlns="http://www.w3.org/2000/svg">
<path d="M483.556 350.095C434.46 350.095 387.64 339.4 344.463 318.292C337.692 315.052 329.841 314.54 322.673 316.984C315.505 319.488 309.647 324.721 306.348 331.492L285.868 373.873C224.427 338.604 173.454 287.572 138.126 226.133L180.565 205.653C187.392 202.354 192.569 196.494 195.072 189.326C197.518 182.158 197.063 174.308 193.764 167.538C172.601 124.416 161.906 77.5964 161.906 28.4444C161.906 12.7431 149.163 0 133.461 0H28.4444C12.7431 0 0 12.7431 0 28.4444C0 295.084 216.917 512 483.556 512C499.256 512 512 499.256 512 483.556V378.54C512 362.836 499.256 350.095 483.556 350.095Z" fill="#2A4858"/>
</svg>
