<svg height="480pt" viewBox="-8 0 480 480" width="480pt"
     xmlns="http://www.w3.org/2000/svg">
    <path style="fill:#000000;"
          d="m64 156-5.953125 6.632812c-4.351563 4.871094-26.046875 29.839844-26.046875 45.367188 0 17.671875 14.328125 32 32 32s32-14.328125 32-32c0-15.527344-21.695312-40.496094-26.046875-45.34375zm0 68c-8.835938 0-16-7.164062-16-16 0-5.097656 7.511719-17 16-27.609375 8.496094 10.65625 16 22.648437 16 27.609375 0 8.835938-7.164062 16-16 16zm0 0"/>
    <path style="fill:#000000;"
          d="m176 156-5.953125 6.632812c-4.351563 4.871094-26.046875 29.839844-26.046875 45.367188 0 17.671875 14.328125 32 32 32s32-14.328125 32-32c0-15.527344-21.695312-40.496094-26.046875-45.34375zm0 68c-8.835938 0-16-7.164062-16-16 0-5.097656 7.511719-17 16-27.609375 8.496094 10.65625 16 22.648437 16 27.609375 0 8.835938-7.164062 16-16 16zm0 0"/>
    <path style="fill:#000000;"
          d="m288 156-5.953125 6.632812c-4.351563 4.871094-26.046875 29.839844-26.046875 45.367188 0 17.671875 14.328125 32 32 32s32-14.328125 32-32c0-15.527344-21.695312-40.496094-26.046875-45.34375zm0 68c-8.835938 0-16-7.164062-16-16 0-5.097656 7.511719-17 16-27.609375 8.496094 10.65625 16 22.648437 16 27.609375 0 8.835938-7.164062 16-16 16zm0 0"/>
    <path style="fill:#000000;"
          d="m448 88v-32h-24v-48c0-4.417969-3.582031-8-8-8h-32c-4.417969 0-8 3.582031-8 8v48h-24v32h-16v-32h-24v-48c0-4.417969-3.582031-8-8-8h-32c-4.417969 0-8 3.582031-8 8v48h-24v32h-16v-32h-24v-48c0-4.417969-3.582031-8-8-8h-32c-4.417969 0-8 3.582031-8 8v48h-24v32h-16v-32h-24v-48c0-4.417969-3.582031-8-8-8h-32c-4.417969 0-8 3.582031-8 8v48h-24v32h-16v392h464v-392zm-56-72h16v40h-16zm-24 56h64v16h-64zm16 32h32v16h-32zm-256 208h24v24h16v-24h16v24h16v-24h24v48h-96zm112 0h24v24h16v-24h16v24h16v-24h24v48h-96zm40-296h16v40h-16zm-24 56h64v16h-64zm16 32h32v16h-32zm-32 0h16v32h64v-32h16v192h-96zm-72-88h16v40h-16zm-24 56h64v16h-64zm16 32h32v16h-32zm-32 0h16v32h64v-32h16v192h-96zm-72-88h16v40h-16zm-24 56h64v16h-64zm16 32h32v16h-32zm-32 0h16v32h64v-32h16v192h-96zm0 208h24v24h16v-24h16v24h16v-24h24v48h-96zm0 64h96v88h-96zm112 0h96v88h-96zm208 88h-96v-88h96zm112 0h-96v-88h96zm-96-104v-48h24v24h16v-24h16v24h16v-24h24v48zm0-64v-192h16v32h64v-32h16v192zm0 0"/>
    <path style="fill:#000000;"
          d="m400 156-5.953125 6.632812c-4.351563 4.871094-26.046875 29.839844-26.046875 45.367188 0 17.671875 14.328125 32 32 32s32-14.328125 32-32c0-15.527344-21.695312-40.496094-26.046875-45.34375zm0 68c-8.835938 0-16-7.164062-16-16 0-5.097656 7.511719-17 16-27.609375 8.496094 10.65625 16 22.648437 16 27.609375 0 8.835938-7.164062 16-16 16zm0 0"/>
    <path style="fill:#000000;"
          d="m80 408c4.417969 0 8-3.582031 8-8s-3.582031-8-8-8h-32c-4.417969 0-8 3.582031-8 8v40c0 4.417969 3.582031 8 8 8h32c4.417969 0 8-3.582031 8-8s-3.582031-8-8-8h-24v-24zm0 0"/>
    <path style="fill:#000000;"
          d="m193.550781 392.152344c-3.171875-.640625-6.421875.707031-8.207031 3.40625l-9.34375 14.042968-9.34375-14.015624c-1.796875-2.691407-5.035156-4.035157-8.207031-3.40625-3.171875.628906-5.652344 3.105468-6.289063 6.277343l-8 40c-.699218 4.253907 2.097656 8.296875 6.324219 9.140625 4.226563.847656 8.363281-1.808594 9.355469-6.003906l4.214844-21.066406 5.289062 7.9375c1.570312 2.097656 4.035156 3.332031 6.65625 3.332031s5.085938-1.234375 6.65625-3.332031l5.289062-7.9375 4.214844 21.074218c.761719 3.722657 4.039063 6.398438 7.839844 6.398438.539062.003906 1.074219-.050781 1.601562-.160156 4.328126-.882813 7.121094-5.109375 6.238282-9.441406l-8-40c-.644532-3.15625-3.125-5.621094-6.289063-6.246094zm0 0"/>
    <path style="fill:#000000;"
          d="m280 419.3125v20.6875c0 4.417969 3.582031 8 8 8s8-3.582031 8-8v-20.6875l13.65625-13.65625c3.03125-3.140625 2.988281-8.128906-.097656-11.214844-3.085938-3.085937-8.074219-3.128906-11.214844-.097656l-10.34375 10.34375-10.34375-10.34375c-3.140625-3.03125-8.128906-2.988281-11.214844.097656-3.085937 3.085938-3.128906 8.074219-.097656 11.214844zm0 0"/>
    <path style="fill:#000000;"
          d="m384 448c4.417969 0 8-3.582031 8-8v-4.6875l6.761719-6.753906 10.582031 15.882812c2.453125 3.675782 7.421875 4.667969 11.097656 2.214844 3.675782-2.453125 4.667969-7.421875 2.214844-11.097656l-12.359375-18.542969 11.359375-11.359375c3.03125-3.140625 2.988281-8.128906-.097656-11.214844-3.085938-3.085937-8.074219-3.128906-11.214844-.097656l-18.34375 18.34375v-12.6875c0-4.417969-3.582031-8-8-8s-8 3.582031-8 8v40c0 4.417969 3.582031 8 8 8zm0 0"/>
</svg>