<svg width="100" height="100" viewBox="0 0 100 100" fill="none" xmlns="http://www.w3.org/2000/svg">
    <path d="M45.6522 4.34783V8.69565V41.3043C45.6522 43.7057 43.7941 45.6522 41.502 45.6522H8.30044C6.00826 45.6522 4.15022 43.7057 4.15022 41.3043V28.2609C4.15022 27.9726 4.04087 27.6961 3.8463 27.4922L0.607826 24.0996C0.218696 23.6917 0 23.1389 0 22.5624V13.0435C0 10.6422 1.85804 8.69565 4.15022 8.69565H4.34783V4.34783C4.34783 1.94652 6.29435 0 8.69565 0H41.3043C43.7057 0 45.6522 1.94652 45.6522 4.34783Z"
          fill="#9CA09E"/>
    <path d="M8.69573 0H41.3044C43.7057 0 45.6523 1.94652 45.6523 4.34783V8.69565H4.3479V4.34783C4.3479 1.94652 6.29442 0 8.69573 0Z"
          fill="#3C3B42"/>
    <path d="M34.7826 36.9566H15.2174C14.0167 36.9566 13.0435 35.9833 13.0435 34.7827V19.5653C13.0435 18.3646 14.0167 17.3914 15.2174 17.3914H34.7826C35.9832 17.3914 36.9565 18.3646 36.9565 19.5653V34.7827C36.9565 35.9833 35.9832 36.9566 34.7826 36.9566Z"
          fill="#F2F2F2"/>
    <path d="M34.7825 27.1739V33.6956C34.7825 34.2958 34.2958 34.7826 33.6955 34.7826H16.3042C15.704 34.7826 15.2173 34.2958 15.2173 33.6956V27.1739C15.2173 26.5737 15.704 26.0869 16.3042 26.0869H33.6955C34.2958 26.0869 34.7825 26.5737 34.7825 27.1739Z"
          fill="#3C3B42"/>
    <path d="M34.7826 20.6521C34.7826 21.2524 34.2959 21.7391 33.6957 21.7391H25C24.3998 21.7391 23.9131 21.2524 23.9131 20.6521C23.9131 20.0519 24.3998 19.5652 25 19.5652H33.6957C34.2959 19.5652 34.7826 20.0519 34.7826 20.6521Z"
          fill="#D2D6D5"/>
    <path d="M19.5651 21.7391C19.5651 22.9397 18.5919 23.913 17.3912 23.913C16.1905 23.913 15.2173 22.9397 15.2173 21.7391C15.2173 20.5384 16.1905 19.5652 17.3912 19.5652C18.5919 19.5652 19.5651 20.5384 19.5651 21.7391Z"
          fill="#3C3B42"/>
    <path d="M100 58.6956V63.0434V95.6521C100 98.0534 98.142 100 95.8499 100H62.6483C60.3562 100 58.4981 98.0534 58.4981 95.6521V82.6086C58.4981 82.3204 58.3888 82.0439 58.1942 81.84L54.9557 78.4471C54.5666 78.0395 54.3479 77.4865 54.3479 76.91V67.3913C54.3479 64.99 56.2059 63.0434 58.4981 63.0434H58.6957V58.6956C58.6957 56.2943 60.6422 54.3478 63.0436 54.3478H95.6522C98.0536 54.3478 100 56.2943 100 58.6956Z"
          fill="#9CA09E"/>
    <path d="M63.0436 54.3478H95.6523C98.0536 54.3478 100 56.2943 100 58.6956V63.0434H58.6958V58.6956C58.6958 56.2943 60.6423 54.3478 63.0436 54.3478Z"
          fill="#F7C843"/>
    <path d="M89.1305 91.3042H69.5653C68.3646 91.3042 67.3914 90.331 67.3914 89.1303V73.9129C67.3914 72.7123 68.3646 71.739 69.5653 71.739H89.1305C90.3311 71.739 91.3044 72.7123 91.3044 73.9129V89.1303C91.3044 90.331 90.3311 91.3042 89.1305 91.3042Z"
          fill="#F2F2F2"/>
    <path d="M89.1306 81.5216V88.0434C89.1306 88.6436 88.6439 89.1303 88.0437 89.1303H70.6524C70.0522 89.1303 69.5654 88.6436 69.5654 88.0434V81.5216C69.5654 80.9214 70.0522 80.4347 70.6524 80.4347H88.0437C88.6439 80.4347 89.1306 80.9214 89.1306 81.5216Z"
          fill="#F7C843"/>
    <path d="M89.1305 74.9999C89.1305 75.6001 88.6438 76.0869 88.0436 76.0869H79.3479C78.7477 76.0869 78.261 75.6001 78.261 74.9999C78.261 74.3997 78.7477 73.913 79.3479 73.913H88.0436C88.6438 73.913 89.1305 74.3997 89.1305 74.9999Z"
          fill="#D2D6D5"/>
    <path d="M73.9133 76.0869C73.9133 77.2875 72.94 78.2608 71.7393 78.2608C70.5387 78.2608 69.5654 77.2875 69.5654 76.0869C69.5654 74.8862 70.5387 73.913 71.7393 73.913C72.94 73.913 73.9133 74.8862 73.9133 76.0869Z"
          fill="#F7C843"/>
    <path d="M45.6522 58.6956V63.0434V95.6521C45.6522 98.0534 43.7941 100 41.502 100H8.30044C6.00826 100 4.15022 98.0534 4.15022 95.6521V82.6086C4.15022 82.3204 4.04087 82.0439 3.8463 81.84L0.607826 78.4473C0.218696 78.0395 0 77.4867 0 76.9102V67.3913C0 64.99 1.85804 63.0434 4.15022 63.0434H4.34783V58.6956C4.34783 56.2943 6.29435 54.3478 8.69565 54.3478H41.3043C43.7057 54.3478 45.6522 56.2943 45.6522 58.6956Z"
          fill="#9CA09E"/>
    <path d="M8.69573 54.3478H41.3044C43.7057 54.3478 45.6523 56.2943 45.6523 58.6956V63.0434H4.3479V58.6956C4.3479 56.2943 6.29442 54.3478 8.69573 54.3478Z"
          fill="#E2396D"/>
    <path d="M34.7826 91.3042H15.2174C14.0167 91.3042 13.0435 90.331 13.0435 89.1303V73.9129C13.0435 72.7123 14.0167 71.739 15.2174 71.739H34.7826C35.9832 71.739 36.9565 72.7123 36.9565 73.9129V89.1303C36.9565 90.331 35.9832 91.3042 34.7826 91.3042Z"
          fill="#F2F2F2"/>
    <path d="M34.7825 81.5216V88.0434C34.7825 88.6436 34.2958 89.1303 33.6955 89.1303H16.3042C15.704 89.1303 15.2173 88.6436 15.2173 88.0434V81.5216C15.2173 80.9214 15.704 80.4347 16.3042 80.4347H33.6955C34.2958 80.4347 34.7825 80.9214 34.7825 81.5216Z"
          fill="#E2396D"/>
    <path d="M34.7826 74.9999C34.7826 75.6001 34.2959 76.0869 33.6957 76.0869H25C24.3998 76.0869 23.9131 75.6001 23.9131 74.9999C23.9131 74.3997 24.3998 73.913 25 73.913H33.6957C34.2959 73.913 34.7826 74.3997 34.7826 74.9999Z"
          fill="#D2D6D5"/>
    <path d="M19.5651 76.0869C19.5651 77.2875 18.5919 78.2608 17.3912 78.2608C16.1905 78.2608 15.2173 77.2875 15.2173 76.0869C15.2173 74.8862 16.1905 73.913 17.3912 73.913C18.5919 73.913 19.5651 74.8862 19.5651 76.0869Z"
          fill="#E2396D"/>
    <path d="M100 4.34783V8.69565V41.3043C100 43.7057 98.142 45.6522 95.8499 45.6522H62.6483C60.3562 45.6522 58.4981 43.7057 58.4981 41.3043V28.2609C58.4981 27.9726 58.3888 27.6961 58.1942 27.4922L54.9557 24.0993C54.5666 23.6917 54.3479 23.1387 54.3479 22.5622V13.0435C54.3479 10.6422 56.2059 8.69565 58.4981 8.69565H58.6957V4.34783C58.6957 1.94652 60.6422 0 63.0436 0H95.6522C98.0536 0 100 1.94652 100 4.34783Z"
          fill="#9CA09E"/>
    <path d="M63.0436 0H95.6523C98.0536 0 100 1.94652 100 4.34783V8.69565H58.6958V4.34783C58.6958 1.94652 60.6423 0 63.0436 0Z"
          fill="#7FA3BA"/>
    <path d="M89.1305 36.9566H69.5653C68.3646 36.9566 67.3914 35.9833 67.3914 34.7827V19.5653C67.3914 18.3646 68.3646 17.3914 69.5653 17.3914H89.1305C90.3311 17.3914 91.3044 18.3646 91.3044 19.5653V34.7827C91.3044 35.9833 90.3311 36.9566 89.1305 36.9566Z"
          fill="#F2F2F2"/>
    <path d="M89.1306 27.1739V33.6956C89.1306 34.2958 88.6439 34.7826 88.0437 34.7826H70.6524C70.0522 34.7826 69.5654 34.2958 69.5654 33.6956V27.1739C69.5654 26.5737 70.0522 26.0869 70.6524 26.0869H88.0437C88.6439 26.0869 89.1306 26.5737 89.1306 27.1739Z"
          fill="#7FA3BA"/>
    <path d="M89.1305 20.6521C89.1305 21.2524 88.6438 21.7391 88.0436 21.7391H79.3479C78.7477 21.7391 78.261 21.2524 78.261 20.6521C78.261 20.0519 78.7477 19.5652 79.3479 19.5652H88.0436C88.6438 19.5652 89.1305 20.0519 89.1305 20.6521Z"
          fill="#D2D6D5"/>
    <path d="M73.9133 21.7391C73.9133 22.9397 72.94 23.913 71.7393 23.913C70.5387 23.913 69.5654 22.9397 69.5654 21.7391C69.5654 20.5384 70.5387 19.5652 71.7393 19.5652C72.94 19.5652 73.9133 20.5384 73.9133 21.7391Z"
          fill="#7FA3BA"/>
</svg>
