<svg width="14" height="14" viewBox="0 0 14 14" fill="none" xmlns="http://www.w3.org/2000/svg">
<path fill-rule="evenodd" clip-rule="evenodd" d="M14 7C14 10.866 10.866 14 7 14C3.13401 14 0 10.866 0 7C0 3.13401 3.13401 0 7 0C10.866 0 14 3.13401 14 7ZM11.3874 4.86436C11.7543 4.45158 11.7171 3.81951 11.3044 3.45259C10.8916 3.08567 10.2595 3.12285 9.89259 3.53563L6.04333 7.86604L3.98469 6.21913C3.55343 5.87412 2.92414 5.94404 2.57913 6.3753C2.23412 6.80657 2.30404 7.43586 2.7353 7.78087L5.5353 10.0209C5.95082 10.3533 6.55388 10.3021 6.90741 9.90436L11.3874 4.86436Z" fill="white"/>
</svg>
