<svg width="512" height="512" viewBox="0 0 512 512" fill="none" xmlns="http://www.w3.org/2000/svg">
<path fill-rule="evenodd" clip-rule="evenodd" d="M386.993 58.1667V90.375H437.31H437.351V90.4583C453.243 90.5 467.649 97 478.051 107.542C488.37 118 494.809 132.458 494.85 148.458H494.933V148.542V453.833V453.875H494.85C494.809 469.875 488.37 484.417 477.927 494.958C467.566 505.375 453.243 511.875 437.393 511.917V512H437.31H182.629H182.588V511.917C166.738 511.875 152.291 505.375 141.889 494.833C131.569 484.375 125.13 469.917 125.089 453.917H125.006V453.833V385.458H74.6894H74.6482V385.375C58.7977 385.333 44.3507 378.833 33.9488 368.292C23.6295 357.833 17.1902 343.375 17.149 327.375H17.0664V327.292V58.1667V58.125H17.149C17.1902 42.0833 23.6708 27.5417 34.0726 17.0417C44.4332 6.625 58.7564 0.125 74.6069 0.0833333V0H74.6894H329.37H329.411V0.0833333C345.303 0.125 359.709 6.625 370.111 17.1667C380.43 27.625 386.869 42.0833 386.91 58.0833H386.993V58.1667V58.1667ZM343.322 90.375V58.1667V58.0833H343.404C343.404 54.2917 341.794 50.7917 339.235 48.2083C336.717 45.6667 333.209 44.0417 329.453 44.0417V44.125H329.411H74.7307H74.6482V44.0417C70.8919 44.0417 67.4246 45.6667 64.8655 48.25C62.3475 50.7917 60.7377 54.3333 60.7377 58.125H60.8203V58.1667V327.292V327.375H60.7377C60.7377 331.167 62.3475 334.667 64.9067 337.25C67.4246 339.792 70.9332 341.417 74.6894 341.417V341.333H74.7307H125.048V148.542V148.5H125.13C125.172 132.458 131.652 117.917 142.054 107.417C152.414 97 166.738 90.5 182.588 90.4583V90.375H182.671H343.322ZM451.22 453.833V148.542V148.458H451.303C451.303 144.667 449.693 141.167 447.134 138.583C444.616 136.042 441.108 134.417 437.351 134.417V134.5H437.31H182.629H182.547V134.417C178.791 134.417 175.323 136.042 172.764 138.625C170.246 141.167 168.636 144.708 168.636 148.5H168.719V148.542V453.833V453.917H168.636C168.636 457.708 170.246 461.208 172.805 463.792C175.323 466.333 178.832 467.958 182.588 467.958V467.875H182.629H437.31H437.393V467.958C441.149 467.958 444.616 466.333 447.175 463.75C449.693 461.208 451.303 457.667 451.303 453.875H451.22V453.833V453.833Z" fill="#2A4858"/>
</svg>
