<svg width="512" height="512" viewBox="0 0 512 512" fill="none" xmlns="http://www.w3.org/2000/svg">
<path fill-rule="evenodd" clip-rule="evenodd" d="M484.778 371C502.193 336.423 512 297.356 512 256C512 114.615 397.385 0 256 0C114.615 0 0 114.615 0 256C0 397.385 114.615 512 256 512C261.157 512 268.368 511.978 277.118 511.94C293.403 511.87 315.017 511.747 338.632 511.611L339.593 511.605L340.5 511.6C389.193 511.323 445.955 511 482 511C490.725 511 497.353 509.844 502 507.5C505.343 505.814 507.5 504.5 509 501.5C510.432 498.637 511 496.121 508.5 495C479.5 482 457.355 425.448 484.778 371ZM185 224C203.777 224 219 208.777 219 190C219 171.223 203.777 156 185 156C166.223 156 151 171.223 151 190C151 208.777 166.223 224 185 224ZM282 200C282 194.478 286.478 190 292 190H352C357.522 190 362 194.478 362 200V210C362 215.522 357.522 220 352 220H292C286.478 220 282 215.522 282 210V200ZM360 281C360 338.438 313.438 385 256 385C198.562 385 152 338.438 152 281H360Z" fill="black"/>
</svg>
