<svg width="512" height="512" viewBox="0 0 512 512" fill="none" xmlns="http://www.w3.org/2000/svg">
<path fill-rule="evenodd" clip-rule="evenodd" d="M484.778 371C502.193 336.423 512 297.357 512 256C512 114.615 397.385 0 256 0C114.615 0 0 114.615 0 256C0 397.385 114.615 512 256 512C270.738 512 302.255 511.82 338.507 511.612L338.623 511.612L338.632 511.612C387.735 511.331 445.492 511 482 511C490.725 511 497.352 509.844 502 507.5C505.343 505.814 507.5 504.5 509 501.5C510.432 498.636 511 496.121 508.5 495C479.5 482 457.355 425.448 484.778 371ZM185 224C203.778 224 219 208.778 219 190C219 171.222 203.778 156 185 156C166.222 156 151 171.222 151 190C151 208.778 166.222 224 185 224ZM282 200C282 194.477 286.477 190 292 190H352C357.523 190 362 194.477 362 200V210C362 215.523 357.523 220 352 220H292C286.477 220 282 215.523 282 210V200ZM360 281C360 338.438 313.438 385 256 385C198.562 385 152 338.438 152 281H360Z" fill="#2A4858"/>
</svg>
