<svg width="512" height="512" viewBox="0 0 512 512" fill="none" xmlns="http://www.w3.org/2000/svg">
<g clip-path="url(#clip0_2723_195)">
<path d="M195 21.6996C189.4 22.5996 179.1 26.3996 173.3 29.5996C159.9 36.9996 148.3 51.1996 143.3 66.2996C141 73.4996 140.6 76.0996 140.6 86.9996C140.6 97.8996 141 100.6 143.3 107.6C152.3 134.7 177.7 153.1 206.2 153C224.2 152.9 239.6 146.5 252.5 133.6C265.6 120.5 272 105.3 272 86.9996C272 68.7996 265.6 53.5996 252.5 40.3996C239.5 27.2996 223.8 20.8996 205.5 21.1996C201.1 21.1996 196.4 21.4996 195 21.6996Z" fill="#2A4858"/>
<path d="M402.999 82.6024C388.899 84.9024 380.699 88.2024 371.499 95.3024C360.899 103.402 353.499 114.902 349.899 128.802C346.899 140.502 347.199 142.402 352.299 145.902C358.499 150.102 368.899 161.602 373.199 168.902C376.699 175.002 381.299 188.002 382.499 195.202C382.999 198.602 383.399 199.002 389.299 201.002C398.199 204.102 412.499 204.802 422.299 202.602C445.599 197.402 463.699 179.002 468.399 155.802C471.299 141.702 469.699 129.002 463.599 116.502C455.699 100.502 440.299 88.0024 423.999 84.2024C418.599 82.9024 406.499 82.0024 402.999 82.6024Z" fill="#2A4858"/>
<path d="M90.1006 144.501C58.5006 151.401 37.3006 183.001 43.1006 214.601C48.3006 243.101 71.0006 263.201 100.001 264.701C111.201 265.301 120.101 263.601 129.601 258.901C135.501 256.001 135.901 255.501 136.501 251.601C137.601 245.301 142.501 233.101 146.601 227.001C148.601 224.001 153.401 218.301 157.301 214.301L164.301 207.101L163.701 199.301C160.801 162.701 126.001 136.801 90.1006 144.501Z" fill="#2A4858"/>
<path d="M298.3 144.101C285.8 146.201 274.1 152.801 264.3 163.301C255.2 173.001 250.3 184.201 248.6 199.001L248.1 203.501L254.7 208.501C267.6 218.201 277.2 233.201 281.4 250.101L283.7 259.501L290.1 261.801C304.2 267.001 322.6 265.601 337.2 258.301C346.4 253.701 358.2 242.101 362.8 233.301C369.8 219.901 371.8 203.201 368 188.501C360.3 158.301 329.8 138.801 298.3 144.101Z" fill="#2A4858"/>
<path d="M163.8 157.702C160.5 158.202 160.3 159.302 163 163.002C168.4 170.602 174 188.102 174 197.602C174 200.102 174.4 201.002 175.3 200.702C191.9 193.402 200 191.502 212.9 192.302C219.3 192.602 225 193.602 230 195.302C234.1 196.702 237.6 197.702 237.8 197.502C238 197.302 238.5 194.402 239 190.902C240.4 181.002 245 169.202 250.2 161.702C251.3 160.102 251.9 158.602 251.5 158.202C250.8 157.402 168.2 157.002 163.8 157.702Z" fill="#2A4858"/>
<path d="M194.199 207.401C180.899 210.701 166.099 221.101 158.399 232.701C156.299 235.801 153.299 242.301 151.599 247.001C148.999 254.501 148.599 256.801 148.699 266.501C148.699 279.701 151.599 289.901 157.999 299.701C169.499 317.101 188.299 327.201 209.399 327.101C233.799 327.001 253.799 314.301 264.099 292.501C280.499 257.701 260.799 216.201 223.799 207.501C216.199 205.701 201.499 205.701 194.199 207.401Z" fill="#2A4858"/>
<path d="M383.001 210.6C383.001 222.3 374.701 242.6 365.401 253.5C360.701 259.1 360.201 260.1 361.701 260.7C392.901 271.6 415.001 295.1 423.101 326C424.801 332.5 425.401 338.3 425.801 351.2L426.301 368L429.901 367.5C431.901 367.3 437.101 366.8 441.501 366.5C461.701 365.1 490.001 358.6 504.801 351.9L512.001 348.7V311.5C512.001 277.5 511.801 273.7 510.001 266.4C503.101 239.6 484.101 219.5 457.901 211.1C448.301 208 436.201 207 408.301 207H383.001V210.6Z" fill="#2A4858"/>
<path d="M66 269.203C49.2 271.603 34.8 279.003 22 291.903C14.7 299.203 12.7 302.003 8.3 311.003C0.3 327.203 0 329.803 0 373.303V410.703L15.2 414.803C40.6 421.703 61.9 425.703 83.6 427.503L91.7 428.203L92.2 411.803C92.6 399.403 93.3 393.503 94.9 387.003C103 356.103 124.1 333.403 155.3 322.003L158.1 321.003L152.6 314.403C143.1 302.803 136.8 288.303 135.4 274.503L134.7 268.003L103.6 268.103C86.5 268.203 69.6 268.703 66 269.203Z" fill="#2A4858"/>
<path d="M282.7 275.101C281.4 289.701 274.8 304.401 264.2 316.201C261 319.701 260.7 322.001 263.4 322.001C265.7 322.001 281.4 330.101 287.5 334.501C300.8 344.001 313 359.101 319.1 373.901C324 385.601 326 397.201 326 413.901V428.301L337.4 427.701C361.9 426.301 392.2 419.301 408.3 411.301L413 409.001V376.101C413 358.001 412.5 339.801 412 335.601C407.7 304.801 386.7 280.601 356.5 271.401C347.7 268.701 346.9 268.701 315.4 268.201L283.3 267.801L282.7 275.101Z" fill="#2A4858"/>
<path d="M165 333.002C138.5 339.602 118.5 358.102 109.3 384.502L106.6 392.502L106.2 432.702L105.9 472.902L112.7 474.902C146.7 485.002 174 489.502 207.5 490.702C243.3 491.902 279.5 486.202 304.8 475.302L313.2 471.702L312.8 434.102C312.4 399.802 312.1 395.802 310.2 388.902C303.7 364.902 286.5 345.402 264 336.302C252 331.502 247.2 331.002 208.5 331.102C176.9 331.102 171.6 331.402 165 333.002Z" fill="#2A4858"/>
</g>
<defs>
<clipPath id="clip0_2723_195">
<rect width="512" height="512" fill="white"/>
</clipPath>
</defs>
</svg>
