<svg width="512" height="512" viewBox="0 0 512 512" fill="none" xmlns="http://www.w3.org/2000/svg">
<rect x="44" y="165" width="424" height="32" fill="black"/>
<path fill-rule="evenodd" clip-rule="evenodd" d="M21 21C21 15.4772 25.4772 11 31 11H481C486.523 11 491 15.4772 491 21V151C491 156.523 486.523 161 481 161H31C25.4772 161 21 156.523 21 151V21ZM391 135C391 132.791 392.791 131 395 131L447 131C449.209 131 451 132.791 451 135V137C451 139.209 449.209 141 447 141L395 141C392.791 141 391 139.209 391 137V135ZM395 101C392.791 101 391 102.791 391 105V107C391 109.209 392.791 111 395 111L447 111C449.209 111 451 109.209 451 107V105C451 102.791 449.209 101 447 101L395 101Z" fill="black"/>
<path fill-rule="evenodd" clip-rule="evenodd" d="M21 211C21 205.477 25.4772 201 31 201H481C486.523 201 491 205.477 491 211V341C491 346.523 486.523 351 481 351H31C25.4772 351 21 346.523 21 341V211ZM391 325C391 322.791 392.791 321 395 321L447 321C449.209 321 451 322.791 451 325V327C451 329.209 449.209 331 447 331L395 331C392.791 331 391 329.209 391 327V325ZM395 291C392.791 291 391 292.791 391 295V297C391 299.209 392.791 301 395 301L447 301C449.209 301 451 299.209 451 297V295C451 292.791 449.209 291 447 291L395 291Z" fill="black"/>
<circle cx="256" cy="472" r="30" fill="black"/>
<path fill-rule="evenodd" clip-rule="evenodd" d="M241 377C241 373.686 243.686 371 247 371L265 371C268.314 371 271 373.686 271 377V441.479C266.476 439.251 261.384 438 256 438C250.616 438 245.524 439.251 241 441.479L241 377ZM225.479 457H6C2.68629 457 0 459.686 0 463V481C0 484.314 2.68629 487 6 487H225.479C223.251 482.476 222 477.384 222 472C222 466.616 223.251 461.524 225.479 457ZM286.521 487H506C509.314 487 512 484.314 512 481V463C512 459.686 509.314 457 506 457H286.521C288.749 461.524 290 466.616 290 472C290 477.384 288.749 482.476 286.521 487Z" fill="black"/>
</svg>
