<svg width="100" height="100" viewBox="0 0 100 100" fill="none" xmlns="http://www.w3.org/2000/svg">
    <path d="M97.7866 100H58.5846C57.3622 100 56.3713 99.009 56.3713 97.7867V2.21328C56.3713 0.991016 57.3624 0 58.5846 0H97.7866C99.0088 0 99.9999 0.991016 99.9999 2.21328V97.7867C99.9999 99.009 99.0088 100 97.7866 100Z"
          fill="#5A5A5A"/>
    <path d="M97.7867 0H89.8018C91.0242 0 92.015 0.99082 92.015 2.21328V97.7867C92.015 99.0092 91.0242 100 89.8018 100H97.7867C99.0092 100 100 99.0092 100 97.7867V2.21328C100 0.99082 99.0092 0 97.7867 0V0Z"
          fill="#444444"/>
    <path d="M56.3713 9.42322H99.9999V27.666H56.3713V9.42322Z" fill="#9C9C9C"/>
    <path d="M56.3713 27.666H99.9999V45.9088H56.3713V27.666Z" fill="#ACACAC"/>
    <path d="M92.0151 9.42322H100V27.666H92.0151V9.42322Z" fill="#838383"/>
    <path d="M92.0151 27.666H100V45.9088H92.0151V27.666Z" fill="#9C9C9C"/>
    <path d="M62.4077 20.6238V16.4654C62.4077 15.9097 62.8581 15.4594 63.4138 15.4594H92.9577C93.5134 15.4594 93.9638 15.9097 93.9638 16.4654V20.6238C93.9638 21.1795 93.5134 21.6299 92.9577 21.6299H63.4138C62.8581 21.6297 62.4077 21.1793 62.4077 20.6238Z"
          fill="#444444"/>
    <path d="M62.4077 38.8666V34.7082C62.4077 34.1525 62.8581 33.7021 63.4138 33.7021H92.9577C93.5134 33.7021 93.9638 34.1525 93.9638 34.7082V38.8666C93.9638 39.4223 93.5134 39.8727 92.9577 39.8727H63.4138C62.8581 39.8727 62.4077 39.4221 62.4077 38.8666Z"
          fill="#444444"/>
    <path d="M33.0566 62.1941H45.1291V94.5711H33.0566V62.1941Z" fill="#838383"/>
    <path d="M57.302 91.1133H20.8835C20.1056 91.1133 19.4751 91.7439 19.4751 92.5217V98.5914C19.4751 99.3693 20.1058 99.9998 20.8835 99.9998H57.302C58.08 99.9998 58.7104 99.3691 58.7104 98.5914V92.5217C58.7104 91.7439 58.08 91.1133 57.302 91.1133Z"
          fill="#444444"/>
    <path d="M75.3689 83.5359H2.81699C1.26113 83.5359 0 82.2746 0 80.7189V30.4828C0 28.9271 1.26113 27.6658 2.81699 27.6658H75.3689C76.9246 27.6658 78.1859 28.9269 78.1859 30.4828V80.7189C78.1857 82.2746 76.9246 83.5359 75.3689 83.5359Z"
          fill="#838383"/>
    <path d="M5.63379 76.4936V34.7084C5.63379 33.9305 6.26445 33.3 7.04219 33.3H71.1434C71.9213 33.3 72.5518 33.9307 72.5518 34.7084V76.4938C72.5518 77.2717 71.9211 77.9022 71.1434 77.9022H7.04219C6.26445 77.902 5.63379 77.2715 5.63379 76.4936Z"
          fill="#B2CAEC"/>
    <path d="M75.3689 83.5359H2.81699C1.26113 83.5359 0 82.2746 0 80.7189V30.4828C0 28.9271 1.26113 27.6658 2.81699 27.6658H75.3689C76.9246 27.6658 78.1859 28.9269 78.1859 30.4828V80.7189C78.1857 82.2746 76.9246 83.5359 75.3689 83.5359Z"
          fill="#444444"/>
    <path d="M5.63379 76.4936V34.7084C5.63379 33.9305 6.26445 33.3 7.04219 33.3H71.1434C71.9213 33.3 72.5518 33.9307 72.5518 34.7084V76.4938C72.5518 77.2717 71.9211 77.9022 71.1434 77.9022H7.04219C6.26445 77.902 5.63379 77.2715 5.63379 76.4936Z"
          fill="#B2CAEC"/>
    <path d="M71.1434 33.2998H63.1584C63.9364 33.2998 64.5668 33.9303 64.5668 34.7082V76.4936C64.5668 77.2715 63.9364 77.902 63.1584 77.902H71.1434C71.9213 77.902 72.5518 77.2715 72.5518 76.4936V34.7084C72.5518 33.9305 71.9211 33.2998 71.1434 33.2998Z"
          fill="#82AEE3"/>
    <path d="M92.484 58.2493H84.8381C84.2824 58.2493 83.832 57.7989 83.832 57.2433V53.2191C83.832 52.6634 84.2824 52.213 84.8381 52.213H92.484C93.0397 52.213 93.4901 52.6634 93.4901 53.2191V57.2433C93.4901 57.7989 93.0397 58.2493 92.484 58.2493Z"
          fill="#ACACAC"/>
    <path d="M92.4841 52.2133H92.0151V58.2494H92.4841C93.0398 58.2494 93.4901 57.799 93.4901 57.2433V53.2191C93.4901 52.6636 93.0398 52.2133 92.4841 52.2133Z"
          fill="#9C9C9C"/>
</svg>
