<svg width="512" height="512" viewBox="0 0 512 512" fill="none" xmlns="http://www.w3.org/2000/svg">
<g clip-path="url(#clip0_2087_1429)">
<path d="M457.143 219.426C462.192 219.426 466.286 215.333 466.286 210.283C466.286 205.234 462.192 201.141 457.143 201.141C452.093 201.141 448 205.234 448 210.283C448 215.333 452.093 219.426 457.143 219.426Z" fill="#2A4858"/>
<path d="M283.428 493.711H100.571C95.5211 493.711 91.4277 497.804 91.4277 502.854C91.4277 507.903 95.5211 511.997 100.571 511.997H283.428C288.477 511.997 292.571 507.903 292.571 502.854C292.571 497.804 288.477 493.711 283.428 493.711Z" fill="#2A4858"/>
<path d="M246.857 420.569H356.571C371.72 420.569 384 408.289 384 393.141H0C0 408.289 12.2802 420.569 27.4286 420.569H246.857Z" fill="#2A4858"/>
<path d="M146.285 438.859H237.714V475.431H146.285V438.859Z" fill="#2A4858"/>
<path d="M457.143 146.286C462.192 146.286 466.286 142.192 466.286 137.143C466.286 132.093 462.192 128 457.143 128C452.093 128 448 132.093 448 137.143C448 142.192 452.093 146.286 457.143 146.286Z" fill="#2A4858"/>
<path d="M502.857 0H265.143C260.093 0 256 4.0934 256 9.14286V109.714H356.571C381.819 109.714 402.286 130.181 402.286 155.429V393.143C402.286 418.39 381.819 438.857 356.571 438.857H256V475.429H283.429C292.319 475.454 300.646 479.786 305.769 487.053C310.892 494.319 312.175 503.618 309.211 512H502.857C507.907 512 512 507.907 512 502.857V9.14286C512 4.0934 507.907 0 502.857 0ZM347.429 484.571C347.429 489.621 343.335 493.714 338.286 493.714C333.236 493.714 329.143 489.621 329.143 484.571V466.286C329.143 461.236 333.236 457.143 338.286 457.143C343.335 457.143 347.429 461.236 347.429 466.286V484.571ZM384 484.571C384 489.621 379.907 493.714 374.857 493.714C369.808 493.714 365.714 489.621 365.714 484.571V466.286C365.714 461.236 369.808 457.143 374.857 457.143C379.907 457.143 384 461.236 384 466.286V484.571ZM420.571 484.571C420.571 489.621 416.478 493.714 411.429 493.714C406.379 493.714 402.286 489.621 402.286 484.571V466.286C402.286 461.236 406.379 457.143 411.429 457.143C416.478 457.143 420.571 461.236 420.571 466.286V484.571ZM457.143 484.571C457.143 489.621 453.049 493.714 448 493.714C442.951 493.714 438.857 489.621 438.857 484.571V466.286C438.857 461.236 442.951 457.143 448 457.143C453.049 457.143 457.143 461.236 457.143 466.286V484.571ZM429.714 210.286C429.714 195.137 441.994 182.857 457.143 182.857C472.291 182.857 484.571 195.137 484.571 210.286C484.571 225.434 472.291 237.714 457.143 237.714C441.994 237.714 429.714 225.434 429.714 210.286ZM429.714 137.143C429.714 121.994 441.994 109.714 457.143 109.714C472.291 109.714 484.571 121.994 484.571 137.143C484.571 152.291 472.291 164.571 457.143 164.571C441.994 164.571 429.714 152.291 429.714 137.143ZM493.714 484.571C493.714 489.621 489.621 493.714 484.571 493.714C479.522 493.714 475.429 489.621 475.429 484.571V466.286C475.429 461.236 479.522 457.143 484.571 457.143C489.621 457.143 493.714 461.236 493.714 466.286V484.571ZM493.714 64C493.714 74.0989 485.528 82.2857 475.429 82.2857H292.571C282.473 82.2857 274.286 74.0989 274.286 64V45.7143C274.286 35.6154 282.473 27.4286 292.571 27.4286H475.429C485.528 27.4286 493.714 35.6154 493.714 45.7143V64Z" fill="#2A4858"/>
<path fill-rule="evenodd" clip-rule="evenodd" d="M353.157 126.297C368.306 126.297 380.586 138.577 380.586 153.725V373.154H-3.41406V153.725C-3.41406 138.577 8.86613 126.297 24.0145 126.297H353.157Z" fill="#2A4858"/>
<path d="M292.57 45.7109H475.427V63.9967H292.57V45.7109Z" fill="#2A4858"/>
</g>
<defs>
<clipPath id="clip0_2087_1429">
<rect width="512" height="512" fill="white"/>
</clipPath>
</defs>
</svg>
