<svg width="96" height="100" viewBox="0 0 96 100" fill="none" xmlns="http://www.w3.org/2000/svg">
    <g clip-path="url(#clip0)">
        <path d="M17.9506 -0.000193031L78.0481 -0.000198285C80.2034 -0.000198473 81.9506 1.81972 81.9506 4.06484L81.9506 21.5446L14.0482 21.5446L14.0482 4.06485C14.0482 1.81973 15.7953 -0.000192842 17.9506 -0.000193031V-0.000193031Z"
              fill="#818181"/>
        <path d="M81.9506 21.5446L81.9506 15.4639C80.8336 14.6834 79.4911 14.2274 78.0481 14.2274L20.6823 14.2274C19.6048 14.2274 18.7312 13.3174 18.7312 12.1949L18.7312 4.06485C18.7312 1.81973 20.4783 -0.000193252 22.6336 -0.00019344L17.9506 -0.000193031C15.7953 -0.000192842 14.0482 1.81973 14.0482 4.06485L14.0482 21.5446L81.9506 21.5446Z"
              fill="#595959"/>
        <path d="M73.3667 0.000160287L73.3667 9.8197C73.3667 10.6826 72.6951 11.3822 71.8667 11.3822L24.135 11.3822C23.3067 11.3822 22.635 10.6826 22.635 9.81971L22.635 0.000164722L73.3667 0.000160287Z"
              fill="#434343"/>
        <path d="M68.2926 9.90364e-05L68.2926 4.53527C68.2926 5.39817 67.621 6.09778 66.7926 6.09778L54.5731 6.09778C53.7447 6.09778 53.0731 5.39817 53.0731 4.53527L53.0731 0.000100367L68.2926 9.90364e-05Z"
              fill="#FCE25C"/>
        <path d="M27.7072 8.59236e-05L27.7072 4.53527C27.7072 5.39817 28.3789 6.09778 29.2072 6.09778L46.5 6.09778C47.3284 6.09778 48 5.39816 48 4.53527L48 8.41495e-05L27.7072 8.59236e-05Z"
              fill="#FCE25C"/>
        <path d="M17.7982 17.4797L78.2006 17.4797C80.2717 17.4797 81.9506 19.2285 81.9506 21.3859L81.9506 96.0937C81.9506 98.2512 80.2717 100 78.2006 100L17.7982 100C15.7271 100 14.0482 98.2512 14.0482 96.0938L14.0482 21.3859C14.0482 19.2285 15.7271 17.4797 17.7982 17.4797Z"
              fill="#EAEAEA"/>
        <path d="M17.7986 100L22.634 100C20.4787 100 18.7316 98.1801 18.7316 95.935L18.7316 21.5447C18.7316 19.2996 20.4787 17.4797 22.634 17.4797L17.7986 17.4797C15.7275 17.4797 14.0486 19.2285 14.0486 21.3859L14.0486 96.0937C14.0486 98.2512 15.7275 100 17.7986 100V100Z"
              fill="#CBCBCB"/>
        <path d="M21.8526 89.8374C20.775 89.8374 19.9013 90.7474 19.9013 91.87C19.9013 92.9926 20.775 93.9026 21.8526 93.9026C22.9303 93.9026 23.804 92.9926 23.804 91.87C23.804 90.7474 22.9303 89.8374 21.8526 89.8374Z"
              fill="#818181"/>
        <path d="M74.146 89.8374C73.0683 89.8374 72.1947 90.7474 72.1947 91.87C72.1947 92.9926 73.0683 93.9026 74.146 93.9026C75.2237 93.9026 76.0973 92.9926 76.0973 91.87C76.0973 90.7474 75.2237 89.8374 74.146 89.8374Z"
              fill="#818181"/>
        <path d="M21.8527 23.5771C20.775 23.5771 19.9013 24.4872 19.9013 25.6097C19.9013 26.7323 20.775 27.6423 21.8527 27.6423C22.9303 27.6423 23.804 26.7323 23.804 25.6097C23.804 24.4872 22.9303 23.5771 21.8527 23.5771Z"
              fill="#818181"/>
        <path d="M74.146 23.5771C73.0683 23.5771 72.1947 24.4872 72.1947 25.6097C72.1947 26.7323 73.0683 27.6423 74.146 27.6423C75.2237 27.6423 76.0973 26.7323 76.0973 25.6097C76.0973 24.4872 75.2237 23.5771 74.146 23.5771Z"
              fill="#818181"/>
        <path d="M29.6584 24.1006L66.3413 24.1006C67.1415 24.1006 67.7899 24.7762 67.7899 25.6096C67.7899 29.2606 70.6412 32.2307 74.146 32.2307C74.9462 32.2307 75.5946 32.9063 75.5946 33.7397L75.5946 83.7397C75.5946 84.5731 74.946 85.2487 74.146 85.2487C70.6412 85.2487 67.7899 88.2188 67.7899 91.8696C67.7899 92.703 67.1414 93.3785 66.3413 93.3785L29.6584 93.3785C28.8582 93.3785 28.2098 92.703 28.2098 91.8696C28.2098 88.2188 25.3585 85.2487 21.8537 85.2487C21.0535 85.2487 20.4051 84.5731 20.4051 83.7397L20.4051 33.7397C20.4051 32.9063 21.0537 32.2307 21.8537 32.2307C25.3585 32.2307 28.2098 29.2606 28.2098 25.6096C28.2098 24.7764 28.8582 24.1006 29.6584 24.1006ZM65.0057 27.1188L30.994 27.1188C30.3711 31.2279 27.247 34.4822 23.3024 35.1309L23.3024 82.3489C27.247 82.9975 30.3711 86.2518 30.994 90.361L65.0057 90.361C65.6286 86.2518 68.7527 82.9977 72.6974 82.3489L72.6974 35.1309C68.7527 34.4822 65.6286 31.2279 65.0057 27.1188V27.1188Z"
              fill="#CBCBCB"/>
    </g>
    <defs>
        <clipPath id="clip0">
            <rect width="96" height="100" fill="white" transform="translate(96 100) rotate(180)"/>
        </clipPath>
    </defs>
</svg>
