<svg width="400" height="400" viewBox="0 0 400 400" fill="none" xmlns="http://www.w3.org/2000/svg">
<g clip-path="url(#clip0)">
<path d="M215.608 311.118L393.61 133.113C397.73 128.996 400 123.5 400 117.64C400 111.78 397.73 106.284 393.61 102.167L380.504 89.058C371.964 80.528 358.085 80.528 349.558 89.058L200.083 238.533L50.4419 88.8921C46.3216 84.7751 40.8289 82.502 34.9721 82.502C29.1087 82.502 23.6161 84.7751 19.4925 88.8921L6.3902 102.001C2.2699 106.121 2.5616e-07 111.614 0 117.474C-2.5615e-07 123.334 2.2699 128.83 6.3902 132.947L184.555 311.118C188.688 315.245 194.207 317.511 200.073 317.498C205.963 317.511 211.478 315.245 215.608 311.118Z" fill="black"/>
</g>
<defs>
<clipPath id="clip0">
<rect width="400" height="400" fill="white"/>
</clipPath>
</defs>
</svg>
