<svg width="512" height="512" viewBox="0 0 512 512" fill="none" xmlns="http://www.w3.org/2000/svg">
<path fill-rule="evenodd" clip-rule="evenodd" d="M352.416 45.6644C362.917 35.1709 377.155 29.2764 392 29.2764C406.846 29.2764 421.083 35.1709 431.584 45.6644L466.336 80.4164C476.83 90.9173 482.724 105.155 482.724 120C482.724 134.846 476.83 149.084 466.336 159.584L190.816 435.105C184.096 441.825 175.776 446.753 166.624 449.345L62.5921 479.105C58.4744 480.282 54.1169 480.335 49.9715 479.26C45.8261 478.185 42.0439 476.02 39.0174 472.99C35.9908 469.96 33.83 466.176 32.7593 462.029C31.6886 457.883 31.7469 453.525 32.9281 449.409L62.6561 345.409C65.2619 336.243 70.1632 327.895 76.8961 321.153L352.416 45.6324V45.6644ZM397.664 79.5844C396.921 78.8394 396.038 78.2483 395.066 77.845C394.094 77.4417 393.053 77.2341 392 77.2341C390.948 77.2341 389.906 77.4417 388.934 77.845C387.962 78.2483 387.079 78.8394 386.336 79.5844L345.952 120L392 166.08L432.416 125.664C433.161 124.921 433.752 124.039 434.156 123.067C434.559 122.095 434.767 121.053 434.767 120C434.767 118.948 434.559 117.906 434.156 116.934C433.752 115.962 433.161 115.08 432.416 114.336L397.664 79.5844V79.5844ZM358.048 200.001L312 153.92L110.848 355.105C109.883 356.064 109.178 357.253 108.8 358.561L90.9441 421.057L153.44 403.201C154.748 402.824 155.938 402.119 156.896 401.153L358.048 200.001Z" fill="black"/>
</svg>
