<svg width="700" height="700" viewBox="0 0 700 700" fill="none" xmlns="http://www.w3.org/2000/svg">
<path d="M243.758 75C244.312 75 245.414 75 245.968 74.4323C250.937 71.0369 255.352 67.6416 260.321 64.814C261.977 63.684 262.531 61.4186 261.423 59.7209C260.321 58.0232 258.111 57.4556 256.455 58.5909C251.486 61.4186 246.517 64.8139 241.553 68.2092C239.897 69.3392 239.343 71.6046 240.999 73.3023C241.553 74.4323 242.656 75 243.758 75" fill="#505050"/>
<path d="M481.857 63.6127C487.359 66.4105 492.314 69.7699 497.269 74.2473C501.12 77.6067 504.423 80.9661 507.727 84.882C508.279 85.4437 509.378 86 510.478 86C511.03 86 512.129 85.4383 512.682 84.882C514.333 83.7639 514.333 81.5226 513.234 79.8428C509.931 75.927 506.08 72.0058 501.677 68.6464C496.175 64.1689 490.668 60.2478 484.613 57.45C482.961 56.3319 480.762 57.45 480.21 59.1298C479.653 60.8149 480.205 63.0509 481.857 63.6125" fill="#505050"/>
<path d="M371.557 93.5771C370.488 95.2035 371.02 97.3685 372.625 98.4561C373.162 99 373.693 99 374.23 99C375.299 99 376.372 98.4561 377.441 97.3736C382.257 88.7031 389.746 80.5712 399.373 73.5277C400.978 72.4452 401.515 70.275 400.441 68.6486C399.373 67.0222 397.231 66.4784 395.625 67.5661C384.931 75.1489 376.372 84.3632 371.556 93.5772" fill="#505050"/>
<path d="M535.532 163C533.801 163 531.496 164.092 531.496 166.281C530.344 176.666 528.034 188.15 525.151 199.627C524.572 201.268 525.73 203.452 527.461 204H528.613C530.344 204 531.497 202.908 532.075 201.268C535.538 189.242 537.842 177.759 539 166.83C538.994 165.189 537.842 163.549 535.532 163" fill="#505050"/>
<path d="M424.903 86.3243C425.457 87.4396 426.56 88 427.663 88C428.217 88 428.766 88 429.32 87.4397C430.977 86.3244 431.531 84.0885 430.423 82.4128C424.349 72.3591 416.064 63.4267 405.573 55.6085C403.916 54.4932 401.71 55.0482 400.602 56.1688C399.499 57.8445 400.048 60.0751 401.156 61.1957C411.652 69.0135 419.383 77.3908 424.903 86.3252" fill="#505050"/>
<path d="M422.42 60.9999H423.508C432.223 58.2736 441.483 56.6368 450.198 56.6368H456.189C458.371 56.6368 460 55.5473 460 53.3632C460 51.7263 458.912 49.5473 456.731 49.5473C454.55 49.5473 452.374 49 450.193 49C440.932 49 431.129 50.6369 421.322 53.9105C419.687 54.4579 418.599 56.6369 419.14 58.2736C419.692 59.9105 420.785 61 422.42 61" fill="#505050"/>
<path d="M418.671 137.454C417.023 138.543 416.471 140.727 417.574 142.363C418.125 143.453 419.222 144 420.32 144C420.871 144 421.417 144 421.968 143.453C432.957 136.906 439 125.456 439 112.362V111.273C439 109.637 437.351 108 435.703 108C434.054 108 432.406 109.637 432.406 111.273V112.362C432.406 122.729 427.46 131.997 418.671 137.454" fill="#505050"/>
<path d="M374.37 125.13C373.819 124.042 373.274 122.408 372.724 121.321C372.174 119.687 370.528 118.599 368.337 119.14C366.692 119.687 365.596 121.321 366.141 123.496C366.692 125.13 367.237 126.764 368.337 128.398C373.819 138.742 382.598 145.825 393.018 148H393.568C395.214 148 396.86 146.912 396.86 145.278C397.41 143.644 396.309 141.469 394.119 140.923C385.335 139.284 378.207 133.841 374.37 125.131" fill="#505050"/>
<path d="M531.775 138.747C531.775 140.374 533.442 142 535.109 142H535.666C537.333 142 539 140.373 539 138.208C537.891 125.74 534.557 114.36 529.556 104.062C528.999 102.436 526.78 101.353 525.113 102.436C523.447 102.98 522.337 105.145 523.447 106.771C527.884 116.52 530.661 127.361 531.775 138.747" fill="#505050"/>
<path d="M344.806 43.2783C356.229 43.8403 367.111 46.6392 377.451 50H378.538C380.171 50 381.257 48.8815 381.803 47.7577C382.349 46.0772 381.803 43.8402 379.625 43.2783C368.743 39.3608 357.32 36.5566 344.806 36C343.173 36 341 37.1185 341 39.3608C341.541 41.036 343.173 42.7163 344.806 43.2783" fill="#505050"/>
<path d="M283.409 53H284.497C295.388 48.7436 306.28 46.084 317.171 44.4871C318.805 43.9532 320.439 42.3564 319.893 40.7646C319.346 39.1678 317.712 37.5711 316.083 38.105C304.651 39.7018 293.213 42.8954 282.321 47.1517C280.687 47.6857 279.599 49.8114 280.14 51.4081C280.682 51.9319 282.316 52.9999 283.408 52.9999" fill="#505050"/>
<path d="M649.956 627.506C649.403 633.018 644.995 637.434 639.486 637.434L61.9049 637.428C56.9436 637.428 53.6361 634.119 53.0883 629.156L24.4317 330.849C23.8787 325.337 28.84 319.82 34.3544 319.82H37.6618L665.399 320.373C673.115 320.373 679.177 327.54 678.624 334.158L649.956 627.506ZM474.705 306.591C474.705 306.591 480.767 296.664 489.036 282.879C490.137 281.225 492.344 280.672 493.997 281.778C495.651 282.879 496.204 285.087 495.098 286.742C486.829 301.08 480.767 310.454 480.767 311.001C480.214 312.103 479.113 312.656 478.013 312.656C477.46 312.656 476.912 312.656 476.359 312.103C474.152 310.453 473.599 308.245 474.705 306.591L474.705 306.591ZM676.423 296.664H667.606V249.245C667.606 238.217 658.79 229.396 647.766 229.396H523.212C520.458 236.562 517.15 244.281 512.742 252.554C512.189 253.656 511.088 254.762 509.435 254.762C508.882 254.762 508.334 254.762 507.781 254.209C506.127 253.108 505.574 251.453 506.127 249.799C509.435 242.632 512.742 236.014 514.944 229.396H217.335L199.697 201.273C196.39 195.761 190.88 193 184.266 193H40.9696C33.2537 193 26.6386 199.618 26.6386 207.338V298.318H21.1296C7.9048 303.282 -1.46501 316.513 0.189342 331.953L29.9515 635.776C31.6053 652.317 45.3827 665 61.9154 665H637.298C653.831 665 668.162 652.317 669.262 635.776L699.025 331.953C703.428 314.864 692.404 299.973 676.424 296.664L676.423 296.664Z" fill="#505050"/>
<path d="M198.653 96.3473C200.316 99.5948 204.195 100.676 206.971 99.5948L230.257 88.7715C233.585 87.1476 234.692 83.3624 233.585 80.6527C231.921 77.4052 228.043 76.3244 225.266 77.4052L201.98 88.2285C198.653 89.3145 196.989 93.0998 198.653 96.3473" fill="#505050"/>
<path d="M184.448 75.2996L200.651 82L221.324 72.5094L223 56.319C222.439 49.0637 219.092 45.7135 214.618 45.1532C209.589 44.0383 195.066 49.0584 200.651 58.5489C192.829 49.6184 185.008 55.1987 181.656 57.9888C177.742 61.3443 177.742 70.8349 184.448 75.3005" fill="#505050"/>
<path d="M249.748 117.775C251.988 113.89 251.427 109.442 246.39 104.448L232.403 95L211.7 104.442L206.108 120.55C204.99 128.326 212.823 134.992 217.299 133.878C221.774 132.768 231.286 131.102 229.607 119.435C234.082 129.435 246.951 122.217 249.748 117.774" fill="#505050"/>
</svg>
