<svg width="512" height="512" viewBox="0 0 512 512" fill="none" xmlns="http://www.w3.org/2000/svg">
<path fill-rule="evenodd" clip-rule="evenodd" d="M172.439 16C172.439 7.16345 165.276 0 156.439 0H24C10.7452 0 0 10.7452 0 24V156.439C0 165.276 7.16344 172.439 16 172.439H38C46.8366 172.439 54 165.276 54 156.439V70C54 61.1634 61.1634 54 70 54H156.439C165.276 54 172.439 46.8366 172.439 38V16ZM172.439 474C172.439 465.163 165.276 458 156.439 458H70C61.1634 458 54 450.837 54 442V355.561C54 346.724 46.8366 339.561 38 339.561H16C7.16344 339.561 0 346.724 0 355.561V488C0 501.255 10.7452 512 24 512H156.439C165.276 512 172.439 504.837 172.439 496V474ZM355.561 512C346.724 512 339.561 504.837 339.561 496V474C339.561 465.163 346.724 458 355.561 458H442C450.837 458 458 450.837 458 442V355.561C458 346.724 465.163 339.561 474 339.561H496C504.837 339.561 512 346.724 512 355.561V488C512 501.255 501.255 512 488 512H355.561ZM355.561 54C346.724 54 339.561 46.8366 339.561 38V16C339.561 7.16344 346.724 0 355.561 0H488C501.255 0 512 10.7452 512 24V156.439C512 165.276 504.837 172.439 496 172.439H474C465.163 172.439 458 165.276 458 156.439V70C458 61.1634 450.837 54 442 54H355.561Z" fill="white"/>
</svg>
