<svg width="512" height="512" viewBox="0 0 512 512" fill="none" xmlns="http://www.w3.org/2000/svg">
<g clip-path="url(#clip0_1633_150)">
<path d="M34.9091 448.001H116.364V250.183L0 162.91V413.092C0 432.408 15.6509 448.001 34.9091 448.001Z" fill="#4285F4"/>
<path d="M395.637 448.001H477.091C496.408 448.001 512 432.35 512 413.092V162.91L395.637 250.183" fill="#34A853"/>
<path d="M395.637 98.9105V250.183L512 162.91V116.365C512 73.1941 462.72 48.5832 428.219 74.4741" fill="#FBBC04"/>
<path d="M116.363 250.183V98.9102L256 203.637L395.636 98.9102V250.183L256 354.91" fill="#EA4335"/>
<path d="M0 116.365V162.91L116.364 250.183V98.9105L83.7818 74.4741C49.2218 48.5832 0 73.1941 0 116.365" fill="#C5221F"/>
</g>
<defs>
<clipPath id="clip0_1633_150">
<rect width="512" height="512" fill="white"/>
</clipPath>
</defs>
</svg>
