<svg width="512" height="512" viewBox="0 0 512 512" fill="none" xmlns="http://www.w3.org/2000/svg">
<path d="M493 386H19C8.50659 386 0 394.507 0 405V427C0 437.493 8.50659 446 19 446H493C503.493 446 512 437.493 512 427V405C512 394.507 503.493 386 493 386Z" fill="#505050"/>
<path d="M493 226H19C8.50659 226 0 234.507 0 245V267C0 277.493 8.50659 286 19 286H493C503.493 286 512 277.493 512 267V245C512 234.507 503.493 226 493 226Z" fill="#505050"/>
<path d="M493 66H19C8.50659 66 0 74.5066 0 85V107C0 117.493 8.50659 126 19 126H493C503.493 126 512 117.493 512 107V85C512 74.5066 503.493 66 493 66Z" fill="#505050"/>
</svg>
