<svg width="512" height="512" viewBox="0 0 512 512" fill="none" xmlns="http://www.w3.org/2000/svg">
<path d="M384 220C414.365 220 439 195.365 439 165C439 134.635 414.365 110 384 110C353.635 110 329 134.635 329 165C329 195.365 353.635 220 384 220Z" fill="black"/>
<path d="M480 37H32C14.1714 37 0 51.519 0 69.3534V443.647C0 461.481 14.1714 476 32 476H480C497.829 476 512 461.481 512 443.647V69.3534C512 51.519 497.829 37 480 37ZM362.171 263.016C358.743 259.015 353.486 255.928 347.543 255.928C341.714 255.928 337.6 258.672 332.914 262.445L311.543 280.508C307.086 283.709 303.543 285.881 298.4 285.881C293.486 285.881 289.029 284.052 285.829 281.194C284.686 280.165 282.629 278.221 280.914 276.507L219.429 209.971C214.857 204.712 208 201.396 200.343 201.396C192.686 201.396 185.6 205.169 181.143 210.314L36.5714 384.77V86.9591C37.7143 79.1852 43.7714 73.5833 51.5429 73.5833H460.343C468.229 73.5833 474.629 79.4138 475.086 87.3021L475.429 384.999L362.171 263.016Z" fill="black"/>
</svg>
