<svg width="100" height="100" viewBox="0 0 100 100" fill="none" xmlns="http://www.w3.org/2000/svg">
    <path d="M47.3795 43.4977C46.6571 42.0527 47.2407 40.2963 48.6827 39.5707C48.8227 39.4992 59.5703 33.9104 59.5703 23.4375C59.5703 18.4898 60.1616 12.3377 64.7713 8.6498C68.1159 5.97422 72.8901 4.88281 81.25 4.88281C82.868 4.88281 84.1797 6.19453 84.1797 7.8125C84.1797 9.43047 82.868 10.7422 81.25 10.7422C74.5317 10.7422 70.5784 11.508 68.4319 13.2252C67.034 14.3434 65.4297 16.5146 65.4297 23.4375C65.4297 37.5855 51.8868 44.5195 51.3102 44.808C49.8629 45.5316 48.1032 44.9447 47.3795 43.4977Z"
          fill="#C0C0C0"/>
    <path d="M100 45.1172V89.2578C100 92.4883 97.3711 95.1172 94.1406 95.1172H5.85938C2.62891 95.1172 0 92.4883 0 89.2578V45.1172C0 41.8867 2.62891 39.2578 5.85938 39.2578H94.1406C97.3711 39.2578 100 41.8867 100 45.1172Z"
          fill="#7B7B7B"/>
    <path d="M18.75 82.6172H15.625C14.007 82.6172 12.6953 81.3055 12.6953 79.6875C12.6953 78.0695 14.007 76.7578 15.625 76.7578H18.75C20.368 76.7578 21.6797 78.0695 21.6797 79.6875C21.6797 81.3055 20.368 82.6172 18.75 82.6172Z"
          fill="#F1F6FF"/>
    <path d="M26.5625 70.1172H23.4375C21.8195 70.1172 20.5078 68.8055 20.5078 67.1875C20.5078 65.5695 21.8195 64.2578 23.4375 64.2578H26.5625C28.1805 64.2578 29.4922 65.5695 29.4922 67.1875C29.4922 68.8055 28.1805 70.1172 26.5625 70.1172Z"
          fill="#F1F6FF"/>
    <path d="M42.1875 70.1172H39.0625C37.4445 70.1172 36.1328 68.8055 36.1328 67.1875C36.1328 65.5695 37.4445 64.2578 39.0625 64.2578H42.1875C43.8055 64.2578 45.1172 65.5695 45.1172 67.1875C45.1172 68.8055 43.8055 70.1172 42.1875 70.1172Z"
          fill="#F1F6FF"/>
    <path d="M57.8125 70.1172H54.6875C53.0695 70.1172 51.7578 68.8055 51.7578 67.1875C51.7578 65.5695 53.0695 64.2578 54.6875 64.2578H57.8125C59.4305 64.2578 60.7422 65.5695 60.7422 67.1875C60.7422 68.8055 59.4305 70.1172 57.8125 70.1172Z"
          fill="#F1F6FF"/>
    <path d="M73.4375 70.1172H70.3125C68.6945 70.1172 67.3828 68.8055 67.3828 67.1875C67.3828 65.5695 68.6945 64.2578 70.3125 64.2578H73.4375C75.0555 64.2578 76.3672 65.5695 76.3672 67.1875C76.3672 68.8055 75.0555 70.1172 73.4375 70.1172Z"
          fill="#F1F6FF"/>
    <path d="M81.25 57.6172H78.125C76.507 57.6172 75.1953 56.3055 75.1953 54.6875C75.1953 53.0695 76.507 51.7578 78.125 51.7578H81.25C82.868 51.7578 84.1797 53.0695 84.1797 54.6875C84.1797 56.3055 82.868 57.6172 81.25 57.6172Z"
          fill="#F1F6FF"/>
    <path d="M65.625 57.6172H62.5C60.882 57.6172 59.5703 56.3055 59.5703 54.6875C59.5703 53.0695 60.882 51.7578 62.5 51.7578H65.625C67.243 51.7578 68.5547 53.0695 68.5547 54.6875C68.5547 56.3055 67.243 57.6172 65.625 57.6172Z"
          fill="#F1F6FF"/>
    <path d="M52.9297 54.6875C52.9297 56.3047 51.6172 57.6172 50 57.6172H46.875C45.2578 57.6172 43.9453 56.3047 43.9453 54.6875C43.9453 53.0703 45.2578 51.7578 46.875 51.7578H50C51.6172 51.7578 52.9297 53.0703 52.9297 54.6875Z"
          fill="#F1F6FF"/>
    <path d="M34.375 57.6172H31.25C29.632 57.6172 28.3203 56.3055 28.3203 54.6875C28.3203 53.0695 29.632 51.7578 31.25 51.7578H34.375C35.993 51.7578 37.3047 53.0695 37.3047 54.6875C37.3047 56.3055 35.993 57.6172 34.375 57.6172Z"
          fill="#F1F6FF"/>
    <path d="M18.75 57.6172H15.625C14.007 57.6172 12.6953 56.3055 12.6953 54.6875C12.6953 53.0695 14.007 51.7578 15.625 51.7578H18.75C20.368 51.7578 21.6797 53.0695 21.6797 54.6875C21.6797 56.3055 20.368 57.6172 18.75 57.6172Z"
          fill="#F1F6FF"/>
    <path d="M84.375 82.6172H81.25C79.632 82.6172 78.3203 81.3055 78.3203 79.6875C78.3203 78.0695 79.632 76.7578 81.25 76.7578H84.375C85.993 76.7578 87.3047 78.0695 87.3047 79.6875C87.3047 81.3055 85.993 82.6172 84.375 82.6172Z"
          fill="#F1F6FF"/>
    <path d="M71.6797 79.6875C71.6797 81.3047 70.3672 82.6172 68.75 82.6172H31.25C29.6328 82.6172 28.3203 81.3047 28.3203 79.6875C28.3203 78.0703 29.6328 76.7578 31.25 76.7578H68.75C70.3672 76.7578 71.6797 78.0703 71.6797 79.6875Z"
          fill="#F1F6FF"/>
</svg>
