<svg width="512" height="512" viewBox="0 0 512 512" fill="none" xmlns="http://www.w3.org/2000/svg">
<path d="M501.999 112.401C495.331 105.733 487.285 102.398 477.863 102.398H34.1333C24.711 102.398 16.6683 105.734 10.0013 112.401C3.33534 119.068 0 127.113 0 136.533V375.465C0 384.889 3.33534 392.93 10.0013 399.597C16.6692 406.265 24.711 409.603 34.1333 409.603H477.863C487.285 409.603 495.331 406.265 501.999 399.597C508.663 392.93 512 384.889 512 375.465V136.533C512 127.113 508.663 119.068 501.999 112.401ZM477.863 375.465H34.1333V136.533H477.863V375.465Z" fill="#505050"/>
<path d="M72.5322 341.328H98.1314C100.976 341.328 102.399 339.902 102.399 337.061V311.462C102.399 308.623 100.979 307.195 98.1314 307.195H72.5322C69.6891 307.195 68.2656 308.623 68.2656 311.462V337.061C68.2656 339.902 69.6891 341.328 72.5322 341.328Z" fill="#505050"/>
<path d="M72.5322 273.068H132.266C135.11 273.068 136.534 271.639 136.534 268.797V243.196C136.534 240.352 135.11 238.932 132.266 238.93H72.5322C69.6891 238.93 68.2656 240.352 68.2656 243.196V268.797C68.2656 271.639 69.6891 273.068 72.5322 273.068Z" fill="#505050"/>
<path d="M72.5322 204.798H98.1314C100.976 204.798 102.399 203.374 102.399 200.53V174.932C102.399 172.087 100.979 170.669 98.1314 170.664H72.5322C69.6891 170.664 68.2656 172.087 68.2656 174.932V200.53C68.2656 203.374 69.6891 204.798 72.5322 204.798Z" fill="#505050"/>
<path d="M371.201 307.195H140.802C137.957 307.195 136.533 308.621 136.533 311.466V337.061C136.533 339.9 137.957 341.331 140.802 341.331H371.193C374.038 341.331 375.463 339.906 375.463 337.061V311.466C375.464 308.622 374.039 307.195 371.201 307.195Z" fill="#505050"/>
<path d="M170.666 268.797C170.666 271.639 172.088 273.068 174.93 273.068H200.533C203.376 273.068 204.796 271.639 204.796 268.797V243.196C204.796 240.352 203.379 238.932 200.533 238.93H174.93C172.088 238.93 170.666 240.352 170.666 243.196V268.797Z" fill="#505050"/>
<path d="M140.802 204.798H166.399C169.244 204.798 170.667 203.374 170.667 200.53V174.932C170.667 172.087 169.244 170.669 166.399 170.664H140.802C137.957 170.664 136.533 172.087 136.533 174.932V200.53C136.533 203.374 137.958 204.798 140.802 204.798Z" fill="#505050"/>
<path d="M238.932 268.797C238.932 271.639 240.355 273.068 243.198 273.068H268.797C271.642 273.068 273.068 271.639 273.068 268.797V243.196C273.068 240.352 271.642 238.932 268.797 238.93H243.198C240.355 238.93 238.932 240.352 238.932 243.196V268.797V268.797Z" fill="#505050"/>
<path d="M209.065 204.798H234.663C237.508 204.798 238.931 203.374 238.931 200.53V174.932C238.931 172.087 237.51 170.669 234.663 170.664H209.065C206.22 170.664 204.797 172.087 204.797 174.932V200.53C204.797 203.374 206.22 204.798 209.065 204.798Z" fill="#505050"/>
<path d="M307.199 268.797C307.199 271.639 308.624 273.068 311.462 273.068H337.065C339.909 273.068 341.328 271.639 341.328 268.797V243.196C341.328 240.352 339.908 238.932 337.065 238.93H311.462C308.624 238.93 307.199 240.352 307.199 243.196V268.797Z" fill="#505050"/>
<path d="M439.462 307.195H413.866C411.021 307.195 409.596 308.621 409.596 311.466V337.061C409.596 339.9 411.021 341.331 413.866 341.331H439.462C442.306 341.331 443.732 339.906 443.732 337.061V311.466C443.732 308.622 442.309 307.195 439.462 307.195Z" fill="#505050"/>
<path d="M277.332 204.798H302.934C305.779 204.798 307.198 203.374 307.198 200.53V174.932C307.198 172.087 305.778 170.669 302.934 170.664H277.332C274.487 170.664 273.068 172.087 273.068 174.932V200.53C273.067 203.374 274.487 204.798 277.332 204.798Z" fill="#505050"/>
<path d="M345.598 204.798H371.194C374.039 204.798 375.464 203.374 375.464 200.53V174.932C375.464 172.087 374.039 170.669 371.194 170.664H345.598C342.753 170.664 341.328 172.087 341.328 174.932V200.53C341.327 203.374 342.753 204.798 345.598 204.798Z" fill="#505050"/>
<path d="M375.463 268.798C375.463 271.64 376.884 273.069 379.729 273.069H439.462C442.307 273.069 443.732 271.64 443.732 268.798V174.932C443.732 172.087 442.311 170.669 439.462 170.664H413.866C411.021 170.664 409.596 172.087 409.596 174.932V238.931H379.73C376.885 238.931 375.464 240.353 375.464 243.197V268.798H375.463Z" fill="#505050"/>
</svg>
