<svg width="100" height="100" viewBox="0 0 100 100" fill="none" xmlns="http://www.w3.org/2000/svg">
    <path d="M100 88.125H0L14.1666 58.5416H85.8334L100 88.125Z" fill="#F3F3F3"/>
    <path d="M100 88.125H0C0 91.0416 2.5 93.5416 5.4166 93.5416H94.5832C97.5 93.5416 100 91.0416 100 88.125Z"
          fill="#CED6E0"/>
    <path d="M29.5835 62.7084L30.0001 60.625H25.4167L24.7917 62.7084H29.5835Z" fill="#415A6B"/>
    <path d="M77.0836 62.7084H81.8753L81.0419 60.625H76.2502L77.0836 62.7084Z" fill="#415A6B"/>
    <path d="M78.1251 65.8334H83.1252L82.0835 63.5416H77.2917L78.1251 65.8334Z" fill="#415A6B"/>
    <path d="M42.5001 62.7084L42.7085 60.625H38.1251L37.7085 62.7084H42.5001Z" fill="#415A6B"/>
    <path d="M49.1666 62.7084V60.625H44.5834L44.375 62.7084H49.1666Z" fill="#415A6B"/>
    <path d="M36.0416 62.7084L36.4584 60.625H31.875L31.25 62.7084H36.0416Z" fill="#415A6B"/>
    <path d="M58.125 70.2084L58.3334 72.9166H63.75L63.3334 70.2084H58.125Z" fill="#415A6B"/>
    <path d="M72.5 70.2084L73.125 72.9166H78.5416L77.7084 70.2084H72.5Z" fill="#415A6B"/>
    <path d="M23.7502 60.625H18.9586L18.1252 62.7084H22.9168L23.7502 60.625Z" fill="#415A6B"/>
    <path d="M20.4167 70.2084H15.2085L13.9585 72.9166H19.3751L20.4167 70.2084Z" fill="#415A6B"/>
    <path d="M29.375 70.2084L28.75 72.9166H56.4584L56.25 70.2084H29.375Z" fill="#415A6B"/>
    <path d="M21.4585 66.6666H16.4585L15.4167 69.375H20.6251L21.4585 66.6666Z" fill="#415A6B"/>
    <path d="M55.6251 62.7084L55.4167 60.625H50.8335V62.7084H55.6251Z" fill="#415A6B"/>
    <path d="M22.2917 70.2084L21.4585 72.9166H26.8751L27.5001 70.2084H22.2917Z" fill="#415A6B"/>
    <path d="M35.4167 65.8334L35.8335 63.5416H31.0417L30.4167 65.8334H35.4167Z" fill="#415A6B"/>
    <path d="M79.3751 69.375H84.5835L83.5417 66.6666H78.5417L79.3751 69.375Z" fill="#415A6B"/>
    <path d="M80.6251 72.9166H86.0417L84.7917 70.2084H79.5835L80.6251 72.9166Z" fill="#415A6B"/>
    <path d="M43.9585 66.6666V69.375H48.9585L49.1667 66.6666H43.9585Z" fill="#415A6B"/>
    <path d="M37.0836 66.6666L36.8752 69.375H41.8753L42.2919 66.6666H37.0836Z" fill="#415A6B"/>
    <path d="M30.2085 66.6666L29.5835 69.375H34.7917L35.2085 66.6666H30.2085Z" fill="#415A6B"/>
    <path d="M62.7086 65.8334L62.2918 63.5416H57.5002L57.7086 65.8334H62.7086Z" fill="#415A6B"/>
    <path d="M69.5835 65.8334L68.9585 63.5416H64.1667L64.5835 65.8334H69.5835Z" fill="#415A6B"/>
    <path d="M55.8335 65.8334L55.6251 63.5416H50.8335V65.8334H55.8335Z" fill="#415A6B"/>
    <path d="M49.1668 65.8334V63.5416H44.3751L44.1667 65.8334H49.1668Z" fill="#415A6B"/>
    <path d="M42.2917 65.8334L42.5001 63.5416H37.7085L37.2917 65.8334H42.2917Z" fill="#415A6B"/>
    <path d="M28.3334 66.6666H23.3334L22.5 69.375H27.7084L28.3334 66.6666Z" fill="#415A6B"/>
    <path d="M50.8335 66.6666L51.0417 69.375H56.0417V66.6666H50.8335Z" fill="#415A6B"/>
    <path d="M71.25 65.8334H76.25L75.625 63.5416H70.625L71.25 65.8334Z" fill="#415A6B"/>
    <path d="M72.2917 69.375H77.5001L76.6667 66.6666H71.6667L72.2917 69.375Z" fill="#415A6B"/>
    <path d="M75.2084 62.7084L74.5834 60.625H70L70.4166 62.7084H75.2084Z" fill="#415A6B"/>
    <path d="M68.3335 60.625L68.7501 62.7084H57.5001L57.2917 60.625H68.3335Z" fill="#415A6B"/>
    <path d="M57.7085 66.6666L58.1251 69.375H63.1251L62.9167 66.6666H57.7085Z" fill="#415A6B"/>
    <path d="M64.7917 66.875L65.8335 72.9166H71.2502L69.7918 66.875H64.7917Z" fill="#415A6B"/>
    <path d="M29.375 63.5416H17.9166L16.875 65.8334H28.75L29.375 63.5416Z" fill="#415A6B"/>
    <path d="M61.6667 84.7916H38.3335L43.1251 75.2084H56.8751L61.6667 84.7916Z" fill="#CED6E0"/>
    <path d="M14.1665 10.8334V58.5418H85.8331V10.8334C85.8331 8.54177 83.9581 6.45837 81.4581 6.45837H18.5415C16.0415 6.45837 14.1665 8.54158 14.1665 10.8334Z"
          fill="#415A6B"/>
    <path d="M81.4581 10.8334H18.5415V54.375H81.4581V10.8334Z" fill="#55C0EB"/>
</svg>
