<svg width="512" height="512" viewBox="0 0 512 512" fill="none" xmlns="http://www.w3.org/2000/svg">
<path fill-rule="evenodd" clip-rule="evenodd" d="M464.577 346.083V327.128V213.35V99.5722C464.577 89.1589 456.053 80.6172 445.622 80.6172H66.3784C55.9471 80.6172 47.3994 89.1169 47.3994 99.5722V213.35V327.128V346.083L0 402.972C0 418.645 12.7286 431.392 28.4444 431.392H483.556C499.247 431.392 512 418.639 512 402.972L464.577 346.083ZM293.952 421.945H218.09C215.469 421.945 213.345 419.839 213.345 417.2C213.345 414.56 215.469 412.455 218.09 412.455H293.958C296.555 412.455 298.703 414.56 298.703 417.2C298.631 419.845 296.549 421.945 293.952 421.945ZM177.835 402.99L192.303 385.624H319.667L334.159 402.99H177.835ZM78.4727 107.054C76.2636 107.054 74.4727 108.844 74.4727 111.054V312.508C74.4727 314.717 76.2636 316.508 78.4727 316.508H433.527C435.736 316.508 437.527 314.717 437.527 312.508V111.054C437.527 108.844 435.736 107.054 433.527 107.054H78.4727Z" fill="white"/>
</svg>
