<svg width="493" height="493" viewBox="0 0 493 493" fill="none" xmlns="http://www.w3.org/2000/svg">
    <g clip-path="url(#clip0)">
        <path d="M7.86397 265.118L185.544 442.802C190.616 447.874 197.376 450.658 204.584 450.658C211.8 450.658 218.556 447.87 223.628 442.802L239.76 426.666C244.828 421.602 247.62 414.838 247.62 407.626C247.62 400.418 244.828 393.426 239.76 388.362L136.104 284.478L465.424 284.478C480.272 284.478 492.004 272.854 492.004 258.002L492.004 235.19C492.004 220.338 480.272 207.542 465.424 207.542L134.928 207.542L239.756 103.078C244.824 98.0061 247.616 91.4261 247.616 84.2141C247.616 77.0101 244.824 70.3341 239.756 65.2661L223.624 49.1821C218.552 44.1101 211.796 41.3461 204.58 41.3461C197.372 41.3461 190.612 44.1461 185.54 49.2181L7.85997 226.898C2.77597 231.986 -0.020012 238.778 -1.26256e-05 245.998C-0.0160133 253.242 2.77597 260.038 7.86397 265.118Z"
              fill="black"/>
    </g>
    <defs>
        <clipPath id="clip0">
            <rect width="492.004" height="492.004" fill="white" transform="translate(492.004 492.004) rotate(-180)"/>
        </clipPath>
    </defs>
</svg>
