<svg width="512" height="512" viewBox="0 0 512 512" fill="none" xmlns="http://www.w3.org/2000/svg">
<path fill-rule="evenodd" clip-rule="evenodd" d="M96.3885 416.061C108.115 404.334 107.881 385.428 98.0493 372.072C74.132 339.58 60 299.44 60 256C60 147.752 147.752 60 256 60C354.086 60 435.343 132.049 449.736 226.111C452.241 242.489 465.431 256 482 256C498.569 256 512.184 242.509 510.267 226.052C495.437 98.778 387.254 0 256 0C114.615 0 0 114.615 0 256C0 316.036 20.6662 371.245 55.2728 414.902C65.5543 427.872 84.6852 427.764 96.3885 416.061Z" fill="white"/>
</svg>
