<svg width="512" height="512" viewBox="0 0 512 512" fill="none" xmlns="http://www.w3.org/2000/svg">
<rect x="15" y="15" width="213" height="212" rx="35" stroke="#2A4858" stroke-width="30"/>
<rect x="15" y="283" width="213" height="213" rx="35" stroke="#2A4858" stroke-width="30"/>
<rect x="284" y="283" width="213" height="213" rx="35" stroke="#2A4858" stroke-width="30"/>
<path fill-rule="evenodd" clip-rule="evenodd" d="M441.747 8.79839C447.409 3.16464 455.085 0 463.088 0C471.092 0 478.768 3.16464 484.429 8.79839L503.165 27.456C508.822 33.0938 512 40.7377 512 48.7077C512 56.6782 508.822 64.3223 503.165 69.9596L354.624 217.881C351.001 221.489 346.515 224.135 341.581 225.526L285.495 241.504C283.275 242.136 280.925 242.164 278.691 241.587C276.456 241.01 274.417 239.848 272.785 238.221C271.153 236.594 269.988 234.563 269.411 232.336C268.834 230.11 268.865 227.771 269.502 225.561L285.529 169.725C286.934 164.804 289.576 160.322 293.206 156.703L441.747 8.78121V8.79839ZM466.142 27.0094C465.741 26.6094 465.265 26.292 464.741 26.0755C464.217 25.859 463.656 25.7475 463.088 25.7475C462.521 25.7475 461.959 25.859 461.435 26.0755C460.911 26.292 460.435 26.6094 460.034 27.0094L438.262 48.7077L463.088 73.4471L484.877 51.7486C485.279 51.3497 485.598 50.8762 485.816 50.3543C486.033 49.8325 486.145 49.273 486.145 48.7077C486.145 48.1429 486.033 47.5835 485.816 47.0616C485.598 46.5398 485.279 46.0662 484.877 45.6668L466.142 27.0094ZM444.784 91.6586L419.958 66.9187L311.511 174.931C310.991 175.446 310.61 176.084 310.407 176.786L300.78 210.339L334.473 200.753C335.179 200.55 335.82 200.172 336.337 199.653L444.784 91.6586Z" fill="#2A4858"/>
</svg>
