<svg width="512" height="512" viewBox="0 0 512 512" fill="none" xmlns="http://www.w3.org/2000/svg">
<path d="M337.091 12.0067C296.089 12.0067 261.901 41.2397 252.546 80.2365L177.819 58.9467C175.177 58.3334 172.774 58.7355 171.272 58.9467L8.36481 105.526C3.54345 106.939 -0.0442623 111.78 0.000412654 116.809V489.434C0.0572308 496.61 8.02798 502.552 14.9115 500.534L174.546 454.864L334.181 500.534C336.304 501.155 338.605 501.155 340.728 500.534L503.635 453.955C508.396 452.558 511.967 447.822 512 442.855V70.2294C512.065 62.9922 504.033 56.912 497.089 58.9467L422.178 80.4142C412.584 37.9823 374.869 11.7738 337.09 12.0015L337.091 12.0067ZM337.091 35.2937C372.387 35.2937 401.27 64.6161 401.27 101.704C401.27 109.4 398.718 121.304 395.998 128.63C376.554 169.949 356.867 211.253 337.274 252.54C317.765 211.217 297.903 169.994 278.549 128.63C275.834 121.279 273.277 109.379 273.277 101.704C274.73 59.4052 306.511 35.5942 337.096 35.2937H337.091ZM337.27 64.4051C318.126 64.4051 302.359 80.1834 302.359 99.3408C302.359 118.498 318.126 134.277 337.27 134.277C356.409 134.277 372.18 118.498 372.18 99.3408C372.18 80.1834 356.413 64.4051 337.27 64.4051ZM162.913 85.5119V433.933L23.2776 473.962V125.54L162.913 85.5119ZM186.183 85.5119L250.185 103.889C250.505 115.383 253.188 127.489 256.731 137.006C279.616 185.554 302.79 234.185 325.821 282.75V473.98L186.186 433.952L186.183 85.5119ZM488.726 85.5119V433.933L349.091 473.962V282.014C371.729 233.574 395.45 185.484 417.815 136.997C421.387 127.457 424.041 115.367 424.362 103.881L488.726 85.5119ZM337.278 87.6969C343.84 87.6969 348.913 92.7735 348.913 99.3404C348.913 105.907 343.84 110.984 337.278 110.984C330.711 110.984 325.643 105.907 325.643 99.3404C325.643 92.7692 330.712 87.6969 337.278 87.6969V87.6969Z" fill="black"/>
</svg>
