<svg width="100" height="100" viewBox="0 0 100 100" fill="none" xmlns="http://www.w3.org/2000/svg">
    <path d="M38.2247 84.7491C38.0553 86.1443 37.2907 87.5991 36.1276 88.388L34.2151 89.6853C36.9565 89.6853 61.7133 89.6853 65.7848 89.6853L63.8723 88.388C62.7092 87.5991 61.9444 86.1443 61.7752 84.749L60.8461 76.8888H39.1538L38.2247 84.7491Z"
          fill="#CCCCCC"/>
    <path d="M44.3953 85.6968L45.3244 76.8888H39.1537L38.2246 84.7491C38.0552 86.1443 37.2906 87.5991 36.1275 88.388L34.2152 89.6853C38.6379 89.6853 37.9916 89.6853 42.4076 89.6853C43.5084 88.7841 44.2314 87.2101 44.3953 85.6968Z"
          fill="#BABABA"/>
    <path d="M94.3125 77.09H5.6875C2.55938 77.09 0 74.5306 0 71.4025V10.4802C0 7.3521 2.55938 4.79272 5.6875 4.79272H94.3125C97.4406 4.79272 100 7.3521 100 10.4802V71.4025C100 74.5306 97.4406 77.09 94.3125 77.09Z"
          fill="#EFEFEF"/>
    <path d="M5.74922 71.4025V10.4802C5.74922 7.3521 8.30859 4.79272 11.4367 4.79272H5.6875C2.55938 4.79272 0 7.3521 0 10.4802V71.4027C0 74.5308 2.55938 77.0902 5.6875 77.0902H11.4367C8.30859 77.09 5.74922 74.5306 5.74922 71.4025Z"
          fill="#DDDDDD"/>
    <path d="M94.3125 4.79272H5.6875C2.55938 4.79272 0 7.3521 0 10.4802V65.6035H100V10.4802C100 7.3521 97.4406 4.79272 94.3125 4.79272Z"
          fill="#666666"/>
    <path d="M0 10.4802V65.6035H5.74902V10.4802C5.74902 7.35211 8.3084 4.79273 11.4365 4.79273C5.50918 4.8025 4.71484 4.59234 3.1082 5.41695C1.26777 6.36148 0 8.27945 0 10.4802Z"
          fill="#535454"/>
    <path d="M93.2802 59.8633H6.71965C6.18372 59.8633 5.74915 59.4287 5.74915 58.8928V11.4721C5.74915 10.936 6.18372 10.5016 6.71965 10.5016H93.2802C93.8161 10.5016 94.2507 10.9362 94.2507 11.4721V58.8926C94.2507 59.4287 93.8163 59.8633 93.2802 59.8633Z"
          fill="#A4D9F4"/>
    <path d="M68.6088 89.484C58.0254 89.484 42.0324 89.484 31.3912 89.484C29.8125 89.484 28.5211 90.7756 28.5211 92.3541C28.5211 93.9326 29.8127 95.2243 31.3912 95.2243C42.1854 95.2243 58.0723 95.2243 68.6088 95.2243C70.1873 95.2243 71.4789 93.9326 71.4789 92.3541C71.4789 90.7756 70.1873 89.484 68.6088 89.484Z"
          fill="#EFEFEF"/>
    <path d="M39.7697 92.3544C39.7697 90.7759 41.0613 89.4843 42.6398 89.4843C40.8453 89.4843 34.1726 89.4843 31.391 89.4843C29.8123 89.4843 28.5209 90.7759 28.5209 92.3544C28.5209 93.9329 29.8125 95.2245 31.391 95.2245C34.1545 95.2245 40.8193 95.2245 42.6398 95.2245C41.0613 95.2245 39.7697 93.9329 39.7697 92.3544Z"
          fill="#DDDDDD"/>
    <path d="M50 72.8597C50.8395 72.8597 51.52 72.1792 51.52 71.3397C51.52 70.5003 50.8395 69.8198 50 69.8198C49.1606 69.8198 48.4801 70.5003 48.4801 71.3397C48.4801 72.1792 49.1606 72.8597 50 72.8597Z"
          fill="#CCCCCC"/>
</svg>
