<svg width="100" height="100" viewBox="0 0 100 100" fill="none" xmlns="http://www.w3.org/2000/svg">
    <g clip-path="url(#clip0)">
        <path d="M52.6993 47.2656H46.8399V20.2949C46.8399 12.3352 40.3643 5.85938 32.4045 5.85938C24.4448 5.85938 17.969 12.3352 17.969 20.2949C17.969 28.2148 11.5256 34.6584 3.60571 34.6584H-2.88452V28.799H3.60552C8.29458 28.799 12.1094 24.9842 12.1094 20.2949C12.1096 9.1043 21.2137 0 32.4043 0C43.595 0 52.6993 9.1043 52.6993 20.2949V47.2656Z"
              fill="#C0C0C0"/>
        <path d="M50.1202 18.5096C63.9936 18.5096 75.2404 29.7357 75.2404 43.5836V74.9261C75.2404 88.7739 63.9936 100 50.1202 100C36.2468 100 25 88.7739 25 74.9261V43.5836C25 29.7357 36.2468 18.5096 50.1202 18.5096Z"
              fill="#7B7B7B"/>
        <path d="M51.6526 18.75H48.5276V62.5H51.6526V18.75Z" fill="#ACACAC"/>
        <path d="M51.6526 65.625H48.5276V68.75H51.6526V65.625Z" fill="#ACACAC"/>
        <path d="M50.1201 31.25C52.709 31.25 54.8076 33.3611 54.8076 35.9652V46.9675C54.8076 49.5716 52.709 51.6827 50.1201 51.6827C47.5312 51.6827 45.4326 49.5716 45.4326 46.9675V35.9652C45.4326 33.3611 47.5312 31.25 50.1201 31.25Z"
              fill="#D9D9D9"/>
        <path d="M66.4562 64.6125L65.1107 76.675C64.5706 81.5057 61.7138 85.7773 57.4443 88.1375C52.8899 90.6576 47.3505 90.6576 42.7961 88.1375C38.5266 85.7773 35.6698 81.5057 35.1297 76.675L33.7842 64.6125C33.2094 59.4639 29.8331 55.0484 25 53.125V75C25 88.807 36.2468 100 50.1202 100C63.9936 100 75.2404 88.807 75.2404 75V53.125C70.4073 55.0484 67.031 59.4639 66.4562 64.6125Z"
              fill="#ACACAC"/>
    </g>
    <defs>
        <clipPath id="clip0">
            <rect width="100" height="100" fill="white"/>
        </clipPath>
    </defs>
</svg>
