<svg id="Capa_1" enable-background="new 0 0 512 512" height="512" viewBox="0 0 512 512" width="512"
     xmlns="http://www.w3.org/2000/svg">
    <g>
        <path style="fill:#000000;" d="m121 46c0-8.28-6.72-15-15-15s-15 6.72-15 15v225h30z"/>
        <path style="fill:#000000;" d="m421 46c0-8.28-6.72-15-15-15s-15 6.72-15 15v225h30z"/>
        <path style="fill:#000000;"
              d="m477 301h-442c-19.299 0-35 15.701-35 35v80c0 19.299 15.701 35 35 35h26v15c0 8.284 6.716 15 15 15s15-6.716 15-15v-15h330v15c0 8.284 6.716 15 15 15s15-6.716 15-15v-15h26c19.299 0 35-15.701 35-35v-80c0-19.299-15.701-35-35-35zm-401 90c-8.284 0-15-6.716-15-15s6.716-15 15-15 15 6.716 15 15-6.716 15-15 15zm120 0c-8.284 0-15-6.716-15-15s6.716-15 15-15 15 6.716 15 15-6.716 15-15 15zm60 0c-8.284 0-15-6.716-15-15s6.716-15 15-15 15 6.716 15 15-6.716 15-15 15zm60 0c-8.284 0-15-6.716-15-15s6.716-15 15-15 15 6.716 15 15-6.716 15-15 15zm60 0c-8.284 0-15-6.716-15-15s6.716-15 15-15 15 6.716 15 15-6.716 15-15 15z"/>
        <path style="fill:#000000;"
              d="m181.796 151.796c19.86-19.859 46.213-30.796 74.204-30.796s54.344 10.937 74.204 30.796c2.929 2.929 6.768 4.394 10.606 4.394s7.678-1.464 10.606-4.394c5.858-5.858 5.858-15.355 0-21.213-52.812-52.813-138.012-52.822-190.833 0-5.858 5.858-5.858 15.355 0 21.213 5.858 5.859 15.356 5.859 21.213 0z"/>
        <path style="fill:#000000;"
              d="m247.67 238.47c10.12 6.662 23.33-.63 23.33-12.47 0-7.701-5.85-14.134-13.52-14.93-15.659-1.436-22.622 18.749-9.81 27.4z"/>
        <path style="fill:#000000;"
              d="m309.042 194.171c5.855-5.86 5.851-15.358-.01-21.213-14.174-14.16-33.007-21.958-53.032-21.958s-38.858 7.798-53.032 21.958c-5.861 5.855-5.865 15.353-.01 21.213 5.855 5.861 15.353 5.865 21.213.01 8.509-8.5 19.812-13.181 31.829-13.181s23.32 4.681 31.829 13.182c5.858 5.853 15.355 5.852 21.213-.011z"/>
    </g>
</svg>