<svg width="512" height="512" viewBox="0 0 512 512" fill="none" xmlns="http://www.w3.org/2000/svg">
<path d="M256 111.304C286.736 111.304 311.652 86.388 311.652 55.6522C311.652 24.9163 286.736 0 256 0C225.264 0 200.348 24.9163 200.348 55.6522C200.348 86.388 225.264 111.304 256 111.304Z" fill="#2A4858"/>
<path d="M256 311.652C286.736 311.652 311.652 286.736 311.652 256C311.652 225.264 286.736 200.348 256 200.348C225.264 200.348 200.348 225.264 200.348 256C200.348 286.736 225.264 311.652 256 311.652Z" fill="#2A4858"/>
<path d="M256 512C286.736 512 311.652 487.083 311.652 456.347C311.652 425.612 286.736 400.695 256 400.695C225.264 400.695 200.348 425.612 200.348 456.347C200.348 487.083 225.264 512 256 512Z" fill="#2A4858"/>
</svg>
