<svg width="460" height="460" viewBox="0 0 460 460" fill="none" xmlns="http://www.w3.org/2000/svg">
<path d="M230 100C257.614 100 280 77.6142 280 50C280 22.3858 257.614 0 230 0C202.386 0 180 22.3858 180 50C180 77.6142 202.386 100 230 100Z" fill="white"/>
<path d="M230 280C257.614 280 280 257.614 280 230C280 202.386 257.614 180 230 180C202.386 180 180 202.386 180 230C180 257.614 202.386 280 230 280Z" fill="white"/>
<path d="M230 460C257.614 460 280 437.614 280 410C280 382.386 257.614 360 230 360C202.386 360 180 382.386 180 410C180 437.614 202.386 460 230 460Z" fill="white"/>
</svg>
