<svg width="512" height="512" viewBox="0 0 512 512" fill="none" xmlns="http://www.w3.org/2000/svg">
<path fill-rule="evenodd" clip-rule="evenodd" d="M258 177.318L512 90.543V423.528L258 511.311V177.318Z" fill="#2A4858"/>
<path fill-rule="evenodd" clip-rule="evenodd" d="M96.1848 120.598L352.181 32.9375L415.815 54.7274L159.825 142.385L96.1848 120.598ZM159.821 223.964V142.415L121.281 129.197L96.1464 120.633V201L159.821 223.964Z" fill="#2A4858"/>
<path fill-rule="evenodd" clip-rule="evenodd" d="M92 121.892L0 90.418V423.523L254 511.306V177.314L164 146.524V231.931L92 205.001V121.892Z" fill="#2A4858"/>
<path fill-rule="evenodd" clip-rule="evenodd" d="M3.87787 86.3321L255.997 0L421 56.5L346.5 31L95.2286 117.713L3.87787 86.3321ZM167.892 142.675L421 56.5L508.122 86.3321L255.997 172.941L167.892 142.675Z" fill="#2A4858"/>
</svg>
