<svg width="512" height="512" viewBox="0 0 512 512" fill="none" xmlns="http://www.w3.org/2000/svg">
<path fill-rule="evenodd" clip-rule="evenodd" d="M128.496 323.312L255 280.094V445.936L128.496 489.656V323.312Z" fill="white"/>
<path fill-rule="evenodd" clip-rule="evenodd" d="M47.9039 295.065L175.402 251.406L207.095 262.259L79.5997 305.916L47.9039 295.065ZM79.5977 346.546V305.931L60.403 299.348L47.8848 295.083V335.109L79.5977 346.546Z" fill="white"/>
<path fill-rule="evenodd" clip-rule="evenodd" d="M45.8203 295.707L0 280.031V445.933L126.504 489.653V323.31L81.6797 307.975V350.511L45.8203 337.099V295.707Z" fill="white"/>
<path fill-rule="evenodd" clip-rule="evenodd" d="M1.93164 277.997L127.499 235L209.678 263.14L172.574 250.439L47.4286 293.627L1.93164 277.997ZM83.6184 306.059L209.678 263.14L253.069 277.997L127.499 321.133L83.6184 306.059Z" fill="white"/>
<path fill-rule="evenodd" clip-rule="evenodd" d="M385.496 323.312L512 280.094V445.936L385.496 489.656V323.312Z" fill="white"/>
<path fill-rule="evenodd" clip-rule="evenodd" d="M304.904 295.065L432.402 251.406L464.095 262.259L336.6 305.916L304.904 295.065ZM336.598 346.546V305.931L317.403 299.348L304.885 295.083V335.109L336.598 346.546Z" fill="white"/>
<path fill-rule="evenodd" clip-rule="evenodd" d="M302.82 295.707L257 280.031V445.933L383.504 489.653V323.31L338.68 307.975V350.511L302.82 337.099V295.707Z" fill="white"/>
<path fill-rule="evenodd" clip-rule="evenodd" d="M258.932 277.997L384.499 235L466.678 263.14L429.574 250.439L304.429 293.627L258.932 277.997ZM340.618 306.059L466.678 263.14L510.069 277.997L384.499 321.133L340.618 306.059Z" fill="white"/>
<path fill-rule="evenodd" clip-rule="evenodd" d="M257 110.312L384 67.0938V232.936L257 276.656V110.312Z" fill="white"/>
<path fill-rule="evenodd" clip-rule="evenodd" d="M176.091 82.0653L304.09 38.4062L335.907 49.2586L207.912 92.9162L176.091 82.0653ZM207.91 133.546V92.9312L188.64 86.348L176.072 82.0827V122.109L207.91 133.546Z" fill="white"/>
<path fill-rule="evenodd" clip-rule="evenodd" d="M174 82.7068L128 67.0312V232.933L255 276.653V110.31L210 94.9747V137.511L174 124.099V82.7068Z" fill="white"/>
<path fill-rule="evenodd" clip-rule="evenodd" d="M129.939 64.9974L255.999 22L338.501 50.1396L301.251 37.4395L175.615 80.6266L129.939 64.9974ZM211.947 93.0588L338.501 50.1396L382.062 64.9974L255.999 108.133L211.947 93.0588Z" fill="white"/>
</svg>
