<svg width="512" height="512" viewBox="0 0 512 512" fill="none" xmlns="http://www.w3.org/2000/svg">
<path d="M422.718 184.438C465.711 209.488 497.086 253.419 504.185 306.551C516.392 397.881 452.248 481.811 360.917 494.018C322.74 499.12 285.845 490.876 254.947 472.885" fill="#818181"/>
<path d="M254.946 472.884C236.716 483.337 216.193 490.494 194.075 493.451C102.747 505.66 18.8153 441.515 6.61049 350.19C-2.54279 281.697 31.2466 217.356 87.2441 184.321C87.8278 183.975 88.4153 183.635 89.0041 183.297" fill="#565656"/>
<path d="M89.0039 183.307C89.1793 101.139 150.05 29.6928 233.76 18.5056C325.087 6.29822 409.017 70.4429 421.224 161.771C422.244 169.388 422.732 176.957 422.717 184.435" fill="#DBDBDB"/>
<path d="M254.09 184.886C272.752 173.873 293.89 166.34 316.723 163.287C354.915 158.181 391.815 166.432 422.718 184.436V184.429C422.588 244.886 389.598 299.538 338.839 328.655" fill="#6B6B6B"/>
<path d="M171.963 328.086C128.977 303.039 97.5953 259.103 90.4925 205.973C89.4762 198.354 88.9924 190.785 89.0052 183.308L89.0039 183.299C107.234 172.842 127.757 165.679 149.874 162.724C188.064 157.621 224.958 165.865 255.861 183.864" fill="#5C5C5C"/>
<path d="M338.828 328.65C338.706 389.113 305.719 443.763 254.946 472.881L254.949 472.886C211.95 447.839 180.559 403.899 173.455 350.756C172.436 343.134 171.952 335.566 171.965 328.086" fill="#3B3B3B"/>
<path d="M338.838 328.657C320.6 339.112 300.081 346.277 277.962 349.234C239.77 354.334 202.866 346.092 171.963 328.082V328.087C172.092 268.334 204.319 214.248 254.089 184.887L255.859 183.859C298.854 208.909 330.241 252.845 337.344 305.982C338.359 313.604 338.847 321.171 338.826 328.652L338.838 328.657Z" fill="#363636"/>
</svg>
