<svg width="512" height="512" viewBox="0 0 512 512" fill="none" xmlns="http://www.w3.org/2000/svg">
<path d="M437 0H75V512H437V0Z" fill="#EEEEEE"/>
<path fill-rule="evenodd" clip-rule="evenodd" d="M178.222 102H333.778C346.035 102 356 110.593 356 121.196V217.179C356 227.782 346.052 236.375 333.778 236.375H178.222C165.948 236.375 156 227.782 156 217.179V121.196C156 110.593 165.948 102 178.222 102ZM180.306 187.1H224.75C227.805 187.1 230.305 184.941 230.305 182.301C230.305 179.662 227.805 177.502 224.75 177.502H180.306C177.25 177.502 174.75 179.662 174.75 182.301C174.75 184.941 177.25 187.1 180.306 187.1ZM180.306 167.904H224.75C227.805 167.904 230.305 165.745 230.305 163.105C230.305 160.465 227.805 158.306 224.75 158.306H180.306C177.25 158.306 174.75 160.465 174.75 163.105C174.75 165.745 177.25 167.904 180.306 167.904ZM180.306 148.707H224.75C227.805 148.707 230.305 146.548 230.305 143.909C230.305 141.269 227.805 139.109 224.75 139.109H180.306C177.25 139.109 174.75 141.269 174.75 143.909C174.75 146.548 177.25 148.707 180.306 148.707ZM293.587 125.438C307.396 125.438 318.587 136.633 318.587 150.438C318.587 164.242 307.396 175.438 293.587 175.438C279.779 175.438 268.587 164.242 268.587 150.438C268.587 136.633 279.798 125.438 293.587 125.438ZM318.587 187.938C328.943 187.938 337.337 196.332 337.337 206.688C337.337 210.139 334.539 212.938 331.087 212.938H256.087C252.634 212.938 249.837 210.125 249.837 206.688C249.837 196.336 258.232 187.938 268.587 187.938H318.587Z" fill="#979797"/>
<path fill-rule="evenodd" clip-rule="evenodd" d="M178.222 276.375H333.778C346.035 276.375 356 284.968 356 295.571V391.554C356 402.157 346.052 410.75 333.778 410.75H178.222C165.948 410.75 156 402.157 156 391.554V295.571C156 284.968 165.948 276.375 178.222 276.375ZM229.916 374.812C228.124 374.812 226.671 376.21 226.671 377.938L227.036 384.188C227.036 385.906 228.496 387.312 230.281 387.312H288.693C290.484 387.312 291.938 385.913 291.938 384.188L291.207 377.938C291.207 376.21 289.754 374.812 287.962 374.812H229.916ZM177.995 374.812C176.203 374.812 174.75 376.21 174.75 377.938L175.115 384.188C175.115 385.906 176.567 387.312 178.36 387.312H210.811C212.596 387.312 214.056 385.906 214.056 384.188L213.691 377.938C213.691 376.21 212.238 374.812 210.446 374.812H177.995ZM174.75 304.305C174.75 301.821 175.905 299.812 177.33 299.812H203.13C204.555 299.812 205.71 301.821 205.71 304.305L206 313.289C206 315.76 204.839 317.781 203.42 317.781H177.62C176.195 317.781 175.04 315.76 175.04 313.289L174.75 304.305Z" fill="#979797"/>
</svg>
