<svg width="512" height="512" viewBox="0 0 512 512" fill="none" xmlns="http://www.w3.org/2000/svg">
<path d="M406.367 152.829L313.109 58.4524C311.669 56.9968 309.707 56.1797 307.659 56.1797H104.698C100.469 56.1797 97.0371 59.6117 97.0371 63.8405V446.883C97.0371 451.112 100.469 454.544 104.698 454.544H400.917C405.146 454.544 408.578 451.112 408.578 446.883V158.217C408.578 156.205 407.787 154.269 406.367 152.829ZM316.648 83.8354L382.679 150.663H316.648V83.8354ZM112.359 439.222V71.5014H301.326V158.324C301.326 162.553 304.758 165.985 308.987 165.985H393.257V439.222H112.359Z" fill="white"/>
</svg>
