<svg width="512" height="512" viewBox="0 0 512 512" fill="none" xmlns="http://www.w3.org/2000/svg">
<path fill-rule="evenodd" clip-rule="evenodd" d="M123 35.5322H316.724C317.081 35.5336 317.438 35.5343 317.797 35.5343C357.048 35.5343 388.867 27.2854 388.871 17.1094V493.578H388.87C388.865 503.581 358.118 511.721 319.789 511.995H317.797H123V35.5322Z" fill="#EEEEEE"/>
<path fill-rule="evenodd" clip-rule="evenodd" d="M388.871 19.0378C388.862 8.52579 357.044 0.00492872 317.797 0.00486294V473.823H318.814C357.773 474.223 388.869 482.313 388.869 492.234V492.247H388.871V19.0377V19.0378ZM388.871 492.249H317.797V492.257H388.871V492.249ZM317.798 0L317.797 0.000382111V0H317.798Z" fill="#979797"/>
</svg>
