<svg width="512" height="512" viewBox="0 0 512 512" fill="none" xmlns="http://www.w3.org/2000/svg">
<path d="M363.709 0H148.29C127.674 0 111.031 16.7172 111.031 37.2964V474.742C111.031 495.301 127.674 512 148.29 512H363.709C384.289 512 400.97 495.301 400.97 474.742V37.2964C400.97 16.7172 384.289 0 363.709 0ZM202.845 22.6502H309.192C311.88 22.6502 314.063 26.6616 314.063 31.6244C314.063 36.5875 311.88 40.6175 309.192 40.6175H202.845C200.139 40.6175 197.994 36.5875 197.994 31.6244C197.994 26.6616 200.139 22.6502 202.845 22.6502ZM256.018 475.19C242.903 475.19 232.231 464.517 232.231 451.382C232.231 438.246 242.903 427.612 256.018 427.612C269.097 427.612 279.77 438.246 279.77 451.382C279.77 464.517 269.097 475.19 256.018 475.19ZM373.059 393.674H138.962V62.932H373.059V393.674Z" fill="#2196F3"/>
</svg>
