<svg width="512" height="512" viewBox="0 0 512 512" fill="none" xmlns="http://www.w3.org/2000/svg">
<path d="M507.746 356.575C498.316 368.421 475.371 376.85 475.371 376.85L304.229 438.265V392.957L430.145 352.261C444.413 347.168 446.666 339.91 434.983 336.071C423.386 332.232 402.357 333.318 388.09 338.493L304.229 363.919V316.854C323.587 310.345 343.53 305.507 367.395 302.836C401.523 299.08 443.244 303.337 476.037 315.771C512.92 327.453 517.093 344.724 507.746 356.575Z" fill="black"/>
<path d="M305.873 260.63V161.784C305.873 148.184 303.369 135.668 290.602 132.079C280.839 128.908 274.751 138.004 274.751 151.604V441.902L196.479 417.036V71C229.772 77.1764 278.252 91.7782 304.289 100.539C370.626 123.319 393.071 151.69 393.071 215.523C393.07 277.687 354.687 284.162 305.873 260.63Z" fill="black"/>
<path d="M36.0712 386.579C-1.81232 375.9 -8.15264 353.622 9.11991 340.854C25.0571 329.006 52.2597 320.077 52.2597 320.077L164.49 280.191V325.665L83.7166 354.539C69.4492 359.629 67.279 366.886 78.8767 370.724C90.4755 374.563 111.503 373.479 125.771 368.306L164.489 354.205V394.923C121.434 402.684 79.8788 401.015 36.0712 386.579Z" fill="black"/>
</svg>
