<svg width="100" height="100" viewBox="0 0 100 100" fill="none" xmlns="http://www.w3.org/2000/svg">
    <path d="M88.3245 42.8088H11.6753V16.4597C11.6753 14.7935 13.0261 13.4427 14.6923 13.4427H85.3073C86.9735 13.4427 88.3243 14.7935 88.3243 16.4597V42.8088H88.3245Z"
          fill="#444444"/>
    <path d="M79.6678 40.2611H20.3323V2.01133C20.3323 0.900586 21.2329 0 22.3436 0H77.6565C78.7674 0 79.6678 0.900586 79.6678 2.01133V40.2611Z"
          fill="#D3E1F5"/>
    <path d="M94.3507 79.9533H5.64917C2.53882 79.9533 0.017334 77.4318 0.017334 74.3215V40.2611H99.9828V74.3215C99.9826 77.4318 97.4613 79.9533 94.3507 79.9533Z"
          fill="#BFBFBF"/>
    <path d="M12.7896 79.9533V57.4248C12.7896 56.0918 13.8702 55.0111 15.2032 55.0111H84.797C86.13 55.0111 87.2106 56.0918 87.2106 57.4248V79.9533H12.7896Z"
          fill="#5A5A5A"/>
    <path d="M77.6565 100H22.3436C21.2327 100 20.3323 99.0994 20.3323 97.9887V61.7357H79.6678V97.9887C79.6678 99.0994 78.7672 100 77.6565 100Z"
          fill="#D3E1F5"/>
    <path d="M69.6624 71.5149H30.3375C29.5042 71.5149 28.8289 70.8395 28.8289 70.0063C28.8289 69.1731 29.5042 68.4977 30.3375 68.4977H69.6626C70.4958 68.4977 71.1712 69.1731 71.1712 70.0063C71.1712 70.8395 70.4958 71.5149 69.6624 71.5149Z"
          fill="#528FD8"/>
    <path d="M69.6625 78.7558H51.2068C50.3736 78.7558 49.6982 78.0804 49.6982 77.2472C49.6982 76.414 50.3736 75.7386 51.2068 75.7386H69.6625C70.4957 75.7386 71.1711 76.414 71.1711 77.2472C71.1711 78.0804 70.4959 78.7558 69.6625 78.7558Z"
          fill="#528FD8"/>
    <path d="M69.6625 85.9969H51.2068C50.3736 85.9969 49.6982 85.3215 49.6982 84.4883C49.6982 83.6551 50.3736 82.9797 51.2068 82.9797H69.6625C70.4957 82.9797 71.1711 83.6551 71.1711 84.4883C71.1711 85.3215 70.4959 85.9969 69.6625 85.9969Z"
          fill="#528FD8"/>
    <path d="M69.6625 93.2376H51.2068C50.3736 93.2376 49.6982 92.5623 49.6982 91.7291C49.6982 90.8959 50.3736 90.2205 51.2068 90.2205H69.6625C70.4957 90.2205 71.1711 90.8959 71.1711 91.7291C71.1711 92.5623 70.4959 93.2376 69.6625 93.2376Z"
          fill="#528FD8"/>
    <path d="M43.8136 91.7293H31.3431C30.7876 91.7293 30.3374 91.2791 30.3374 90.7236V78.2531C30.3374 77.6976 30.7876 77.2474 31.3431 77.2474H43.8136C44.369 77.2474 44.8192 77.6976 44.8192 78.2531V90.7236C44.8192 91.2789 44.369 91.7293 43.8136 91.7293Z"
          fill="#528FD8"/>
    <path d="M92.0005 40.2609V74.3212C92.0005 77.4316 89.479 79.953 86.3687 79.953H94.3509C97.4612 79.953 99.9827 77.4316 99.9827 74.3212V40.2609H92.0005Z"
          fill="#ACACAC"/>
    <path d="M99.9826 46.1612H0.017334V35.569C0.017334 32.4586 2.53882 29.9371 5.64917 29.9371H94.3509C97.4613 29.9371 99.9828 32.4586 99.9828 35.569V46.1612H99.9826Z"
          fill="#838383"/>
    <path d="M94.3506 29.9369H86.3684C89.4788 29.9369 92.0002 32.4584 92.0002 35.5687V46.1609H99.9825V35.5687C99.9825 32.4586 97.4612 29.9369 94.3506 29.9369Z"
          fill="#5A5A5A"/>
    <path d="M89.1845 40.8651H81.8429C80.2876 40.8651 79.0269 39.6043 79.0269 38.049C79.0269 36.4938 80.2876 35.233 81.8429 35.233H89.1845C90.7398 35.233 92.0005 36.4938 92.0005 38.049C92.0005 39.6043 90.7398 40.8651 89.1845 40.8651Z"
          fill="#E94444"/>
</svg>
