<svg width="512" height="512" viewBox="0 0 512 512" fill="none" xmlns="http://www.w3.org/2000/svg">
<path d="M329.956 399.836H182.044C172.619 399.836 164.977 407.477 164.977 416.903C164.977 426.329 172.618 433.97 182.044 433.97H329.955C339.38 433.97 347.022 426.329 347.022 416.903C347.022 407.477 339.381 399.836 329.956 399.836Z" fill="black"/>
<path d="M329.956 346.008H182.044C172.619 346.008 164.977 353.649 164.977 363.075C164.977 372.501 172.618 380.142 182.044 380.142H329.955C339.38 380.142 347.022 372.501 347.022 363.075C347.022 353.649 339.381 346.008 329.956 346.008Z" fill="black"/>
<path d="M472.178 133.908H417.875V35.1334C417.875 25.7084 410.234 18.0664 400.808 18.0664H111.192C101.767 18.0664 94.125 25.7074 94.125 35.1334V133.908H39.822C17.864 133.908 0 151.773 0 173.731V345.433C0 367.391 17.864 385.255 39.822 385.255H94.128V476.869C94.128 486.294 101.769 493.936 111.195 493.936H400.805C410.23 493.936 417.872 486.295 417.872 476.869V385.255H472.178C494.136 385.255 512 367.391 512 345.433V173.731C512 151.774 494.136 133.908 472.178 133.908ZM128.258 52.2004H383.741V133.908H128.258V52.2004ZM383.738 459.802H128.262C128.262 456.467 128.262 324.299 128.262 320.174H383.739C383.738 324.403 383.738 456.595 383.738 459.802ZM400.808 234.123H357.365C347.94 234.123 340.298 226.482 340.298 217.056C340.298 207.63 347.939 199.989 357.365 199.989H400.808C410.233 199.989 417.875 207.63 417.875 217.056C417.875 226.482 410.234 234.123 400.808 234.123Z" fill="black"/>
</svg>
