<svg width="500" height="500" viewBox="0 0 500 500" fill="none" xmlns="http://www.w3.org/2000/svg">
    <g clip-path="url(#clip0)">
        <path d="M400.188 142.486C400.137 146.536 401.76 150.209 404.408 152.857C407.015 155.464 410.617 157.078 414.593 157.078H426.203C427.748 157.078 429 158.33 429 159.875V340.124C429 341.669 427.748 342.921 426.203 342.921H414.966C407.019 342.921 400.289 349.196 400.188 357.142C400.137 361.192 401.76 364.865 404.408 367.513C407.015 370.12 410.617 371.734 414.593 371.734H426.203C427.748 371.734 429 372.986 429 374.531V426.203C429 427.748 427.748 429 426.203 429H73.7969C72.2523 429 71 427.748 71 426.203V371.735H85.4067C89.3832 371.735 92.9848 370.121 95.5922 367.513C98.2402 364.866 99.8631 361.192 99.812 357.143C99.712 349.197 92.9806 342.922 85.034 342.922H73.7969C72.2523 342.922 71 341.67 71 340.125V159.876C71 158.331 72.2523 157.079 73.7969 157.079H85.4067C89.3832 157.079 92.9848 155.465 95.5922 152.858C98.2402 150.21 99.8631 146.536 99.812 142.487C99.712 134.541 92.9806 128.266 85.034 128.266H73.7969C72.2523 128.266 71 127.014 71 125.469V73.7969C71 72.2523 72.2523 71 73.7969 71H426.203C427.748 71 429 72.2523 429 73.7969V125.468C429 127.013 427.748 128.265 426.203 128.265H414.966C407.02 128.265 400.289 134.541 400.188 142.486Z"
              fill="#00B7A0"/>
        <path d="M100.535 109.538C106.502 109.538 111.34 104.7 111.34 98.7325C111.34 92.7651 106.502 87.9275 100.535 87.9275C94.5676 87.9275 89.73 92.7651 89.73 98.7325C89.73 104.7 94.5676 109.538 100.535 109.538Z"
              fill="#CAEEFC"/>
        <path d="M399.465 109.538C405.432 109.538 410.27 104.7 410.27 98.7325C410.27 92.7651 405.432 87.9275 399.465 87.9275C393.497 87.9275 388.66 92.7651 388.66 98.7325C388.66 104.7 393.497 109.538 399.465 109.538Z"
              fill="#CAEEFC"/>
        <path d="M100.535 412.794C106.502 412.794 111.34 407.957 111.34 401.989C111.34 396.022 106.502 391.184 100.535 391.184C94.5676 391.184 89.73 396.022 89.73 401.989C89.73 407.957 94.5676 412.794 100.535 412.794Z"
              fill="#CAEEFC"/>
        <path d="M399.465 412.794C405.432 412.794 410.27 407.957 410.27 401.989C410.27 396.022 405.432 391.184 399.465 391.184C393.497 391.184 388.66 396.022 388.66 401.989C388.66 407.957 393.497 412.794 399.465 412.794Z"
              fill="#CAEEFC"/>
        <path d="M342.646 92.6094H157.354C155.81 92.6094 154.557 91.3571 154.557 89.8125V71H345.443V89.8125C345.443 91.3578 344.19 92.6094 342.646 92.6094Z"
              fill="#FAD87C"/>
        <path d="M342.646 92.6094H323.833V71H345.443V89.8125C345.443 91.3578 344.19 92.6094 342.646 92.6094Z"
              fill="#FEBE40"/>
        <path d="M345.443 429H154.557V410.187C154.557 408.643 155.81 407.391 157.354 407.391H342.646C344.19 407.391 345.443 408.643 345.443 410.187V429Z"
              fill="#FAD87C"/>
        <path d="M345.443 429H323.833V407.391H342.646C344.19 407.391 345.443 408.643 345.443 410.187V429Z"
              fill="#FEBE40"/>
        <path d="M148.435 139.993C145.539 139.993 143.191 137.645 143.191 134.748V120.342C143.191 117.446 145.539 115.098 148.435 115.098C151.331 115.098 153.679 117.446 153.679 120.342V134.748C153.679 137.645 151.331 139.993 148.435 139.993Z"
              fill="#CBDAE0"/>
        <path d="M171.004 139.993C168.108 139.993 165.76 137.645 165.76 134.748V120.342C165.76 117.446 168.108 115.098 171.004 115.098C173.901 115.098 176.249 117.446 176.249 120.342V134.748C176.249 137.645 173.901 139.993 171.004 139.993Z"
              fill="#CBDAE0"/>
        <path d="M193.574 139.993C190.678 139.993 188.33 137.645 188.33 134.748V120.342C188.33 117.446 190.678 115.098 193.574 115.098C196.471 115.098 198.819 117.446 198.819 120.342V134.748C198.819 137.645 196.471 139.993 193.574 139.993Z"
              fill="#CBDAE0"/>
        <path d="M216.145 139.993C213.249 139.993 210.901 137.645 210.901 134.748V120.342C210.901 117.446 213.249 115.098 216.145 115.098C219.041 115.098 221.389 117.446 221.389 120.342V134.748C221.389 137.645 219.041 139.993 216.145 139.993Z"
              fill="#CBDAE0"/>
        <path d="M238.715 139.993C235.818 139.993 233.471 137.645 233.471 134.748V120.342C233.471 117.446 235.818 115.098 238.715 115.098C241.611 115.098 243.959 117.446 243.959 120.342V134.748C243.959 137.645 241.611 139.993 238.715 139.993Z"
              fill="#CBDAE0"/>
        <path d="M261.285 139.993C258.389 139.993 256.041 137.645 256.041 134.748V120.342C256.041 117.446 258.389 115.098 261.285 115.098C264.182 115.098 266.53 117.446 266.53 120.342V134.748C266.53 137.645 264.182 139.993 261.285 139.993Z"
              fill="#CBDAE0"/>
        <path d="M283.855 139.993C280.959 139.993 278.611 137.645 278.611 134.748V120.342C278.611 117.446 280.959 115.098 283.855 115.098C286.751 115.098 289.099 117.446 289.099 120.342V134.748C289.099 137.645 286.752 139.993 283.855 139.993Z"
              fill="#CBDAE0"/>
        <path d="M306.426 139.993C303.529 139.993 301.181 137.645 301.181 134.748V120.342C301.181 117.446 303.529 115.098 306.426 115.098C309.322 115.098 311.67 117.446 311.67 120.342V134.748C311.67 137.645 309.322 139.993 306.426 139.993Z"
              fill="#CBDAE0"/>
        <path d="M328.996 139.993C326.099 139.993 323.752 137.645 323.752 134.748V120.342C323.752 117.446 326.099 115.098 328.996 115.098C331.892 115.098 334.24 117.446 334.24 120.342V134.748C334.24 137.645 331.892 139.993 328.996 139.993Z"
              fill="#CBDAE0"/>
        <path d="M351.565 139.993C348.669 139.993 346.321 137.645 346.321 134.748V120.342C346.321 117.446 348.669 115.098 351.565 115.098C354.461 115.098 356.809 117.446 356.809 120.342V134.748C356.809 137.645 354.461 139.993 351.565 139.993Z"
              fill="#CBDAE0"/>
        <path d="M148.435 384.902C145.539 384.902 143.191 382.554 143.191 379.658V365.251C143.191 362.355 145.539 360.007 148.435 360.007C151.331 360.007 153.679 362.355 153.679 365.251V379.658C153.679 382.554 151.331 384.902 148.435 384.902Z"
              fill="#CBDAE0"/>
        <path d="M171.004 384.902C168.108 384.902 165.76 382.554 165.76 379.658V365.251C165.76 362.355 168.108 360.007 171.004 360.007C173.901 360.007 176.249 362.355 176.249 365.251V379.658C176.249 382.554 173.901 384.902 171.004 384.902Z"
              fill="#CBDAE0"/>
        <path d="M193.574 384.902C190.678 384.902 188.33 382.554 188.33 379.658V365.251C188.33 362.355 190.678 360.007 193.574 360.007C196.471 360.007 198.819 362.355 198.819 365.251V379.658C198.819 382.554 196.471 384.902 193.574 384.902Z"
              fill="#CBDAE0"/>
        <path d="M216.145 384.902C213.249 384.902 210.901 382.554 210.901 379.658V365.251C210.901 362.355 213.249 360.007 216.145 360.007C219.041 360.007 221.389 362.355 221.389 365.251V379.658C221.389 382.554 219.041 384.902 216.145 384.902Z"
              fill="#CBDAE0"/>
        <path d="M238.715 384.902C235.818 384.902 233.471 382.554 233.471 379.658V365.251C233.471 362.355 235.818 360.007 238.715 360.007C241.611 360.007 243.959 362.355 243.959 365.251V379.658C243.959 382.554 241.611 384.902 238.715 384.902Z"
              fill="#CBDAE0"/>
        <path d="M261.285 384.902C258.389 384.902 256.041 382.554 256.041 379.658V365.251C256.041 362.355 258.389 360.007 261.285 360.007C264.182 360.007 266.53 362.355 266.53 365.251V379.658C266.53 382.554 264.182 384.902 261.285 384.902Z"
              fill="#CBDAE0"/>
        <path d="M283.855 384.902C280.959 384.902 278.611 382.554 278.611 379.658V365.251C278.611 362.355 280.959 360.007 283.855 360.007C286.751 360.007 289.099 362.355 289.099 365.251V379.658C289.099 382.554 286.752 384.902 283.855 384.902Z"
              fill="#CBDAE0"/>
        <path d="M306.426 384.902C303.529 384.902 301.181 382.554 301.181 379.658V365.251C301.181 362.355 303.529 360.007 306.426 360.007C309.322 360.007 311.67 362.355 311.67 365.251V379.658C311.67 382.554 309.322 384.902 306.426 384.902Z"
              fill="#CBDAE0"/>
        <path d="M328.996 384.902C326.099 384.902 323.752 382.554 323.752 379.658V365.251C323.752 362.355 326.099 360.007 328.996 360.007C331.892 360.007 334.24 362.355 334.24 365.251V379.658C334.24 382.554 331.892 384.902 328.996 384.902Z"
              fill="#CBDAE0"/>
        <path d="M351.565 384.902C348.669 384.902 346.321 382.554 346.321 379.658V365.251C346.321 362.355 348.669 360.007 351.565 360.007C354.461 360.007 356.809 362.355 356.809 365.251V379.658C356.809 382.554 354.461 384.902 351.565 384.902Z"
              fill="#CBDAE0"/>
        <path d="M134.748 153.679H120.342C117.446 153.679 115.098 151.331 115.098 148.435C115.098 145.539 117.446 143.191 120.342 143.191H134.748C137.645 143.191 139.993 145.539 139.993 148.435C139.993 151.331 137.645 153.679 134.748 153.679Z"
              fill="#CBDAE0"/>
        <path d="M134.748 176.249H120.342C117.446 176.249 115.098 173.901 115.098 171.004C115.098 168.108 117.446 165.76 120.342 165.76H134.748C137.645 165.76 139.993 168.108 139.993 171.004C139.993 173.901 137.645 176.249 134.748 176.249Z"
              fill="#CBDAE0"/>
        <path d="M134.748 198.819H120.342C117.446 198.819 115.098 196.471 115.098 193.574C115.098 190.678 117.446 188.33 120.342 188.33H134.748C137.645 188.33 139.993 190.678 139.993 193.574C139.993 196.471 137.645 198.819 134.748 198.819Z"
              fill="#CBDAE0"/>
        <path d="M134.748 221.389H120.342C117.446 221.389 115.098 219.041 115.098 216.145C115.098 213.249 117.446 210.901 120.342 210.901H134.748C137.645 210.901 139.993 213.249 139.993 216.145C139.993 219.041 137.645 221.389 134.748 221.389Z"
              fill="#CBDAE0"/>
        <path d="M134.748 243.959H120.342C117.446 243.959 115.098 241.611 115.098 238.715C115.098 235.818 117.446 233.47 120.342 233.47H134.748C137.645 233.47 139.993 235.818 139.993 238.715C139.993 241.611 137.645 243.959 134.748 243.959Z"
              fill="#CBDAE0"/>
        <path d="M134.748 266.53H120.342C117.446 266.53 115.098 264.182 115.098 261.285C115.098 258.389 117.446 256.041 120.342 256.041H134.748C137.645 256.041 139.993 258.389 139.993 261.285C139.993 264.182 137.645 266.53 134.748 266.53Z"
              fill="#CBDAE0"/>
        <path d="M134.748 289.099H120.342C117.446 289.099 115.098 286.751 115.098 283.855C115.098 280.959 117.446 278.611 120.342 278.611H134.748C137.645 278.611 139.993 280.959 139.993 283.855C139.993 286.751 137.645 289.099 134.748 289.099Z"
              fill="#CBDAE0"/>
        <path d="M134.748 311.67H120.342C117.446 311.67 115.098 309.322 115.098 306.426C115.098 303.529 117.446 301.181 120.342 301.181H134.748C137.645 301.181 139.993 303.529 139.993 306.426C139.993 309.322 137.645 311.67 134.748 311.67Z"
              fill="#CBDAE0"/>
        <path d="M134.748 334.24H120.342C117.446 334.24 115.098 331.892 115.098 328.996C115.098 326.099 117.446 323.751 120.342 323.751H134.748C137.645 323.751 139.993 326.099 139.993 328.996C139.993 331.892 137.645 334.24 134.748 334.24Z"
              fill="#CBDAE0"/>
        <path d="M134.748 356.809H120.342C117.446 356.809 115.098 354.461 115.098 351.565C115.098 348.669 117.446 346.321 120.342 346.321H134.748C137.645 346.321 139.993 348.669 139.993 351.565C139.993 354.461 137.645 356.809 134.748 356.809Z"
              fill="#CBDAE0"/>
        <path d="M379.658 153.679H365.252C362.355 153.679 360.007 151.331 360.007 148.435C360.007 145.539 362.355 143.191 365.252 143.191H379.658C382.554 143.191 384.902 145.539 384.902 148.435C384.902 151.331 382.554 153.679 379.658 153.679Z"
              fill="#CBDAE0"/>
        <path d="M379.658 176.249H365.252C362.355 176.249 360.007 173.901 360.007 171.004C360.007 168.108 362.355 165.76 365.252 165.76H379.658C382.554 165.76 384.902 168.108 384.902 171.004C384.902 173.901 382.554 176.249 379.658 176.249Z"
              fill="#CBDAE0"/>
        <path d="M379.658 198.819H365.252C362.355 198.819 360.007 196.471 360.007 193.574C360.007 190.678 362.355 188.33 365.252 188.33H379.658C382.554 188.33 384.902 190.678 384.902 193.574C384.902 196.471 382.554 198.819 379.658 198.819Z"
              fill="#CBDAE0"/>
        <path d="M379.658 221.389H365.252C362.355 221.389 360.007 219.041 360.007 216.145C360.007 213.249 362.355 210.901 365.252 210.901H379.658C382.554 210.901 384.902 213.249 384.902 216.145C384.902 219.041 382.554 221.389 379.658 221.389Z"
              fill="#CBDAE0"/>
        <path d="M379.658 243.959H365.252C362.355 243.959 360.007 241.611 360.007 238.715C360.007 235.818 362.355 233.47 365.252 233.47H379.658C382.554 233.47 384.902 235.818 384.902 238.715C384.902 241.611 382.554 243.959 379.658 243.959Z"
              fill="#CBDAE0"/>
        <path d="M379.658 266.53H365.252C362.355 266.53 360.007 264.182 360.007 261.285C360.007 258.389 362.355 256.041 365.252 256.041H379.658C382.554 256.041 384.902 258.389 384.902 261.285C384.902 264.182 382.554 266.53 379.658 266.53Z"
              fill="#CBDAE0"/>
        <path d="M379.658 289.099H365.252C362.355 289.099 360.007 286.751 360.007 283.855C360.007 280.959 362.355 278.611 365.252 278.611H379.658C382.554 278.611 384.902 280.959 384.902 283.855C384.902 286.751 382.554 289.099 379.658 289.099Z"
              fill="#CBDAE0"/>
        <path d="M379.658 311.67H365.252C362.355 311.67 360.007 309.322 360.007 306.426C360.007 303.529 362.355 301.181 365.252 301.181H379.658C382.554 301.181 384.902 303.529 384.902 306.426C384.902 309.322 382.554 311.67 379.658 311.67Z"
              fill="#CBDAE0"/>
        <path d="M379.658 334.24H365.252C362.355 334.24 360.007 331.892 360.007 328.996C360.007 326.099 362.355 323.751 365.252 323.751H379.658C382.554 323.751 384.902 326.099 384.902 328.996C384.902 331.892 382.554 334.24 379.658 334.24Z"
              fill="#CBDAE0"/>
        <path d="M379.658 356.809H365.252C362.355 356.809 360.007 354.461 360.007 351.565C360.007 348.669 362.355 346.321 365.252 346.321H379.658C382.554 346.321 384.902 348.669 384.902 351.565C384.902 354.461 382.554 356.809 379.658 356.809Z"
              fill="#CBDAE0"/>
        <path d="M134.748 362.455V137.545C134.748 136.001 136.001 134.749 137.545 134.749H362.455C363.999 134.749 365.252 136.001 365.252 137.545V362.455C365.252 363.999 363.999 365.252 362.455 365.252H137.545C136.001 365.252 134.748 363.999 134.748 362.455Z"
              fill="#444B66"/>
        <path d="M343.642 365.252V134.749H362.455C363.999 134.749 365.252 136.001 365.252 137.545V362.455C365.252 363.999 363.999 365.252 362.455 365.252H343.642Z"
              fill="#3D435C"/>
        <path d="M340.845 343.642H159.155C157.61 343.642 156.358 342.39 156.358 340.845V159.155C156.358 157.61 157.61 156.358 159.155 156.358H340.845C342.389 156.358 343.642 157.61 343.642 159.155V340.845C343.642 342.39 342.39 343.642 340.845 343.642Z"
              fill="#CBDAE0"/>
        <path d="M340.845 343.642H322.033V156.358H340.845C342.39 156.358 343.642 157.61 343.642 159.155V340.845C343.642 342.39 342.39 343.642 340.845 343.642Z"
              fill="#A8B5BA"/>
        <path d="M167.519 311.125V330.626C167.519 332.171 168.771 333.423 170.316 333.423H191.615C194.166 333.423 195.385 330.287 193.503 328.564L172.204 309.062C170.41 307.419 167.519 308.693 167.519 311.125Z"
              fill="#6E6B87"/>
    </g>
    <defs>
        <clipPath id="clip0">
            <rect width="358" height="358" fill="white" transform="translate(71 71)"/>
        </clipPath>
    </defs>
</svg>
