<svg width="512" height="512" viewBox="0 0 512 512" fill="none" xmlns="http://www.w3.org/2000/svg">
<path fill-rule="evenodd" clip-rule="evenodd" d="M374.996 414.563H493.234C503.581 414.563 512 406.129 512 395.762V115.609C512 105.246 503.581 96.8125 493.234 96.8125H374.996C364.646 96.8125 356.228 105.247 356.228 115.611V395.764C356.228 406.129 364.647 414.563 374.996 414.563ZM366.157 115.611C366.157 112.254 371.645 106.742 374.996 106.742H493.071C496.422 106.742 502.07 112.252 502.07 115.609V395.762C502.07 399.12 496.585 404.633 493.234 404.633H374.996C369.881 404.633 364.393 400.289 364.393 396.932L366.157 115.611ZM389.9 145.22H479.569C483.086 145.22 485.934 142.997 485.934 140.256C485.934 137.513 483.083 135.292 479.569 135.292L389.9 135.29C386.383 135.29 383.534 137.513 383.534 140.254C383.532 142.997 386.383 145.22 389.9 145.22ZM479.569 175.629H389.9C386.383 175.629 383.532 173.406 383.534 170.663C383.534 167.923 386.383 165.7 389.9 165.7L479.569 165.702C483.083 165.702 485.934 167.923 485.934 170.666C485.934 173.406 483.086 175.629 479.569 175.629ZM389.905 221.554H405.711C409.231 221.554 412.082 219.331 412.082 216.589C412.082 213.846 409.229 211.625 405.711 211.625H389.905C386.385 211.625 383.534 213.848 383.534 216.589C383.532 219.331 386.385 221.554 389.905 221.554ZM403.408 345.365C403.408 327.744 417.609 313.404 435.059 313.404C452.51 313.404 466.71 327.741 466.71 345.365C466.71 362.987 452.51 377.326 435.059 377.326C417.609 377.326 403.408 362.987 403.408 345.365ZM413.323 345.363C413.323 355.937 424.587 367.397 435.059 367.397C445.532 367.397 456.766 355.937 456.766 345.363C456.766 334.788 445.517 323.334 435.045 323.334C424.572 323.334 413.323 334.788 413.323 345.363Z" fill="black"/>
<path d="M108.186 261.904C105.803 262.129 103.984 264.135 103.994 266.53V348.788L83.6083 394.111C83.3247 394.723 83.1758 395.387 83.1758 396.062V409.942C83.1758 412.496 85.2461 414.568 87.8018 414.568H282.109C284.665 414.568 286.735 412.496 286.735 409.942V396.062C286.735 395.387 286.586 394.723 286.303 394.111L265.917 348.788V266.53C265.917 263.975 263.845 261.905 261.291 261.904H108.621C108.477 261.897 108.332 261.897 108.187 261.904H108.186ZM113.246 271.156H256.663V345.178H113.246V271.156ZM111.584 354.427H258.326L277.483 397.002V405.315H219.653V400.689V400.69C219.669 399.737 219.391 398.804 218.858 398.015L212.352 388.764C211.489 387.543 210.088 386.816 208.593 386.811H161.318C161.174 386.804 161.029 386.804 160.886 386.811C159.545 386.946 158.331 387.659 157.56 388.764L151.055 398.015C150.52 398.804 150.243 399.737 150.259 400.69V405.316H92.4296V397.003L111.585 354.428L111.584 354.427ZM163.775 396.064H206.135L210.4 402.136V405.316H159.51V402.136L163.775 396.064Z" fill="black"/>
<path fill-rule="evenodd" clip-rule="evenodd" d="M169.273 246.69H181.957V246.689C189.95 246.689 196.864 251.647 200.056 258.789H189.444C187.471 256.814 184.841 255.606 181.957 255.606H20.0001C13.8891 255.606 8.91308 261.024 8.91308 267.683V326.737C8.91308 333.4 13.8886 338.822 20.0001 338.822H32.6721V295.728C32.6721 293.266 34.6631 291.271 37.126 291.271H100.876V300.185H41.5761L41.5779 364.082C41.5779 368.178 44.9097 371.512 49.0019 371.512H90.6525L86.6422 380.428H49.0009C39.9943 380.428 32.6673 373.095 32.6673 364.082V347.736H19.9952C8.97123 347.736 0 338.315 0 326.733V267.683C0 256.108 8.97123 246.69 19.9952 246.69H32.6673L32.6654 185.768C32.6654 176.754 39.9924 169.422 48.999 169.422H152.939C161.945 169.422 169.273 176.754 169.273 185.768V246.69ZM99.9889 350.756L95.9109 359.822H60.9109C58.4502 359.822 56.4606 357.794 56.4606 355.288C56.4606 352.783 58.4501 350.756 60.9109 350.756H99.9889ZM100.876 333.039V341.693H60.9109C58.4502 341.693 56.4606 339.759 56.4606 337.366C56.4606 334.975 58.4501 333.039 60.9109 333.039H100.876ZM100.876 312.016V321.082H60.9109C58.4502 321.082 56.4606 319.054 56.4606 316.549C56.4606 314.044 58.4501 312.016 60.9109 312.016H100.876ZM100.876 273.277V282.343H87.6786C85.2309 282.343 83.2487 280.317 83.2487 277.809C83.2487 275.305 85.2291 273.277 87.6786 273.277H100.876ZM49.0019 178.338C44.9095 178.338 41.5779 181.673 41.5779 185.768L41.5798 246.69H160.368L160.366 185.768C160.366 181.673 157.034 178.338 152.942 178.338H49.0019Z" fill="black"/>
<path fill-rule="evenodd" clip-rule="evenodd" d="M353.746 140.258H185.086C177.979 140.258 172.543 145.697 172.543 152.806V243.278H180.905V152.806C180.905 150.297 182.578 148.624 185.086 148.624H353.746V140.258ZM353.746 303.477H269.005V311.545H353.746V303.477ZM353.746 341.036H269.005V345.683L270.678 349.402H301.414L294.377 379.933L286.297 384.127L289.391 391.006C289.675 391.618 289.823 392.282 289.823 392.957V399.671H354.153C353.886 398.411 353.746 397.105 353.746 395.767V394.086V391.272H290.628L301.454 385.814L309.81 349.402H353.03L353.746 352.52V341.036Z" fill="black"/>
</svg>
