<svg width="512" height="512" viewBox="0 0 512 512" fill="none" xmlns="http://www.w3.org/2000/svg">
<path d="M255.5 241C322.05 241 376 187.05 376 120.5C376 53.9497 322.05 0 255.5 0C188.95 0 135 53.9497 135 120.5C135 187.05 188.95 241 255.5 241Z" fill="#2A4858"/>
<path d="M497 451.75V481.875C497 489.865 493.826 497.527 488.177 503.177C482.527 508.826 474.865 512 466.875 512H45.125C37.1354 512 29.4729 508.826 23.8234 503.177C18.1739 497.527 15 489.865 15 481.875V451.75C15 403.812 34.0433 357.838 67.9405 323.94C101.838 290.043 147.812 271 195.75 271H316.25C364.188 271 410.162 290.043 444.06 323.94C477.957 357.838 497 403.812 497 451.75Z" fill="#2A4858"/>
</svg>
