<svg width="100" height="100" viewBox="0 0 100 100" fill="none" xmlns="http://www.w3.org/2000/svg">
    <path d="M96.4284 42.2695C96.4343 44.2637 98.0298 45.8791 99.9998 45.8848V53.1154C98.0274 53.1154 96.4284 54.734 96.4284 56.7307C96.4284 58.7277 98.0274 60.3461 99.9998 60.3461V73H0V60.3463C1.9725 60.3463 3.57137 58.7277 3.57137 56.731C3.57137 54.7343 1.9725 53.1157 0 53.1157V45.885C1.9725 45.885 3.57137 44.2664 3.57137 42.2695C3.57137 40.2728 1.9725 38.6542 0 38.6542V26H100V38.6537C98.0298 38.6599 96.4343 40.2751 96.4284 42.2695Z"
          fill="#71C285"/>
    <path d="M5.58181 34.5739C5.20407 34.2886 4.99486 33.9019 5.0001 33.4999C4.99508 33.1042 5.20498 32.7242 5.58181 32.447C5.95502 32.1614 6.46612 32.0002 6.99969 32.0002C7.53258 31.9936 8.04616 32.1494 8.423 32.432C8.79963 32.7147 9.00747 33.0996 8.99838 33.4994C9.00972 33.6964 8.96135 33.8926 8.85731 34.0735C8.75283 34.259 8.60381 34.4285 8.41756 34.5737C8.23016 34.7107 8.00845 34.8191 7.76541 34.8924C7.52373 34.9704 7.26182 35.007 6.99878 34.9989C6.46928 35.007 5.95798 34.8535 5.58181 34.5739Z"
          fill="#4C8056"/>
    <path d="M91.581 34.5746C91.2032 34.2894 90.9938 33.9022 91.0001 33.4998C90.9946 33.1042 91.2042 32.7239 91.581 32.4468C91.9547 32.161 92.4659 32 92.9996 32C94.0924 32.0211 94.9718 32.6806 94.9999 33.5002C95.0055 33.9022 94.7956 34.2892 94.418 34.5744C93.6235 35.1418 92.3753 35.1418 91.581 34.5746Z"
          fill="#4C8056"/>
    <path d="M12.7999 39H18.2001C19.1941 39 20 39.8059 20 40.8001V55.1999C20 56.1939 19.1941 57 18.2001 57H12.7999C11.8059 57 11 56.1939 11 55.1999V40.8001C11 39.8059 11.8059 39 12.7999 39Z"
          fill="#5E5F62"/>
    <path d="M28.8001 39H34.1999C35.1939 39 36 39.8061 36 40.8001V55.1999C36 56.1941 35.1939 57 34.1999 57H28.8001C27.8059 57 27 56.1941 27 55.1999V40.8001C27 39.8059 27.8056 39 28.8001 39Z"
          fill="#5E5F62"/>
    <path d="M44.8001 39H50.2001C51.1941 39 52 39.8061 52 40.7998V55.2002C52 56.1941 51.1941 57 50.2001 57H44.8001C43.8059 57 43 56.1941 43 55.2002V40.7998C43 39.8061 43.8059 39 44.8001 39Z"
          fill="#5E5F62"/>
    <path d="M88.1699 57H84.5349H80.874H77.2393H73.5786H69.9437H60.8175C60.3352 57.0007 59.8727 56.8118 59.5317 56.4752C59.1907 56.1387 58.9993 55.6823 59 55.2064V40.8064C59.0037 39.8104 59.8212 39.0039 60.8304 39L88.1699 39.0129C88.6519 39.0123 89.1146 39.201 89.4554 39.5375C89.7964 39.874 89.9878 40.3306 89.9871 40.8064L90 55.1939C89.9963 56.1898 89.1793 56.9961 88.1699 57Z"
          fill="#ECF0F1"/>
    <path d="M84 57H81L81.0107 52.9953C81.003 52.4631 81.1574 51.9498 81.4386 51.5735C81.7195 51.1971 82.1026 50.99 82.4999 51.0004C82.8949 50.9999 83.2741 51.2098 83.5535 51.5841C83.8328 51.9582 83.9896 52.4661 83.9893 52.9953L84 57Z"
          fill="#5E5F62"/>
    <path d="M77 57H73L73.0143 52.9954C73.0143 52.2826 73.3927 51.6238 74.0071 51.2674C74.6213 50.911 75.3782 50.9107 75.9926 51.2674C76.6071 51.6238 76.9854 52.2826 76.9854 52.9954L77 57Z"
          fill="#5E5F62"/>
    <path d="M70 57H66L66.0141 52.9954C66.0141 52.2826 66.3925 51.6238 67.0067 51.2674C67.6214 50.911 68.3784 50.9107 68.9926 51.2674C69.607 51.6238 69.9854 52.2826 69.9854 52.9954L70 57Z"
          fill="#5E5F62"/>
    <path d="M66.5367 47.4141C66.0126 46.842 65.8559 45.9817 66.1396 45.2345C66.4233 44.4872 67.0917 44 67.8331 44L75.1665 44.0005C75.8216 44.0005 76.4267 44.3817 76.7544 45.0004C77.0819 45.6192 77.0819 46.3816 76.7544 47.0001C76.4267 47.6188 75.8216 48 75.1665 48L67.8331 47.9995C67.3469 48.0005 66.8804 47.7895 66.5367 47.4141Z"
          fill="#A5A5A4"/>
    <path d="M81.4401 47.4064C81.0094 46.8343 80.8814 45.9711 81.1159 45.2228C81.3504 44.4749 81.9013 43.9913 82.5082 44.0001C83.3271 44.0163 83.988 44.8989 83.9999 45.993C84.002 46.2538 83.9661 46.5129 83.8942 46.7556C83.813 46.9988 83.6981 47.2195 83.5559 47.4062C83.2759 47.7828 82.8954 47.996 82.4979 48C82.1018 47.9869 81.7242 47.775 81.4401 47.4064Z"
          fill="#A5A5A4"/>
    <path d="M0 73H7V66H0V73Z" fill="#B19046"/>
    <path d="M7 73H93V66H7V73Z" fill="#E4C05C"/>
    <path d="M93 73H100V66H93V73Z" fill="#B19046"/>
</svg>
