<svg width="512" height="512" viewBox="0 0 512 512" fill="none" xmlns="http://www.w3.org/2000/svg">
<path d="M463.708 162.655L442.496 14.164C440.752 1.99 425.789 -3.069 417.039 5.68299L386.145 36.577C346.416 12.612 301.314 0 254.938 0C115.47 0 3.49659 109.16 0.0106042 248.511C-0.179396 256.128 5.35761 262.661 12.8866 263.744L72.8275 272.315C81.7637 273.618 90.0765 266.601 89.9526 257.257C88.7095 165.286 162.992 89.9999 254.938 89.9999C277.202 89.9999 299.205 94.5259 319.539 103.183L289.758 132.963C281.059 141.66 285.998 156.669 298.24 158.422L446.73 179.633C456.514 181.108 465.111 172.599 463.708 162.655Z" fill="black"/>
<path d="M499.116 249.401L439.219 240.846C431.483 239.866 422.095 246.497 422.095 256.988C422.095 347.971 348.075 421.988 257.096 421.988C234.948 421.988 213.048 417.508 192.79 408.937L221.618 380.109C230.315 371.413 225.379 356.403 213.137 354.65L64.6456 333.425C54.8928 332.03 46.2556 340.396 47.6677 350.403L68.8776 498.893C70.6237 511.081 85.5736 516.106 94.3367 507.374L125.978 475.748C165.514 499.494 210.587 511.99 257.096 511.99C395.889 511.99 507.848 403.372 511.992 264.709C512.212 257.078 506.675 250.485 499.116 249.401Z" fill="black"/>
</svg>
