<svg width="100" height="100" viewBox="0 0 100 100" fill="none" xmlns="http://www.w3.org/2000/svg">
    <path d="M89.9858 5.5697C88.3443 5.28016 87.4443 6.9858 87.1548 8.62745L79.8745 49.485L83.7987 49.1079L85.7606 46.9134L92.4343 9.06608C92.7234 7.42463 91.6274 5.85924 89.9858 5.5697V5.5697Z"
          fill="#E9EDF1"/>
    <path d="M90.2233 5.62169C90.1448 5.60157 90.0664 5.58346 89.9859 5.56937C88.344 5.27964 86.7787 6.37621 86.4889 8.01807L79.8157 45.8652H79.8149L79.2917 48.837L81.573 51.369L85.2354 49.8853L85.7605 46.9134L83.7294 46.5553C83.2915 46.478 82.9994 46.0607 83.0766 45.6229L90.008 6.32591C90.0523 6.07843 90.1247 5.841 90.2233 5.62169V5.62169Z"
          fill="#DCE6EB"/>
    <path d="M85.2364 49.8852L80.829 49.1082L79.8744 49.4852C79.3273 49.3886 78.8054 49.754 78.709 50.3013L77.0782 55.5979L83.5754 56.9955L85.5282 54.0247L86.0525 51.051C86.1489 50.5033 85.7835 49.9816 85.2364 49.8852V49.8852Z"
          fill="#5595A2"/>
    <path d="M80.935 53.2136C80.388 53.117 80.0228 52.5953 80.1191 52.0482L80.5413 49.6538C80.5795 49.4385 80.6841 49.2514 80.829 49.1085L79.2934 48.8373C78.7457 48.7405 78.2234 49.1061 78.1268 49.6538L77.0785 55.5975L80.9218 58.15L85.0041 56.9959L85.5272 54.024L80.935 53.2136Z"
          fill="#488089"/>
    <path d="M10.1252 5.32343C8.48373 5.61296 7.95797 7.6023 8.24751 9.24395L16.3159 49.3862L20.8189 48.5906L13.6214 7.77172C13.332 6.13007 11.7666 5.03409 10.1252 5.32343V5.32343Z"
          fill="#E9EDF1"/>
    <path d="M18.2662 45.9753C17.8283 46.0526 17.411 45.7602 17.3338 45.3226L10.2756 5.30164C10.2253 5.30767 10.175 5.31371 10.1247 5.32377C8.48287 5.61351 7.38831 7.1789 7.67603 8.81874L14.3507 46.6658H14.3501L14.8752 49.6397L17.7684 51.0264L20.8191 48.5914L20.2939 45.6175L18.2662 45.9753Z"
          fill="#DCE6EB"/>
    <path d="M20.819 48.5906L16.3157 49.3846L15.7761 50.4437C15.229 50.5401 14.8636 51.062 14.96 51.6091L15.1065 56.7486L21.8439 55.351L22.5083 52.3777L21.9843 49.4065C21.8878 48.8594 21.366 48.4942 20.819 48.5906V48.5906Z"
          fill="#5595A2"/>
    <path d="M23.0321 55.352L22.507 52.3781L17.7855 53.2111C17.3476 53.2884 16.9301 52.996 16.8531 52.5582L16.3299 49.5912C16.3179 49.5208 16.3138 49.4524 16.3158 49.386L14.8752 49.6395C14.3279 49.7341 13.9617 50.2572 14.0583 50.8045L14.5824 53.7761L14.5814 53.7763L15.1066 56.7482L19.943 58.6023L23.0321 55.352Z"
          fill="#488089"/>
    <path d="M85.4996 57.0824L79.5433 56.0321L77.2875 57.8134C76.7405 57.7168 76.2185 58.0822 76.1221 58.6295L72.797 71.1874L80.6765 72.5768L84.7902 66.8991L86.3157 58.2478C86.4123 57.7007 86.0469 57.179 85.4996 57.0824V57.0824Z"
          fill="#5595A2"/>
    <path d="M23.5277 55.2638L17.5271 56.3219L16.1869 58.0197C15.6398 58.1163 15.2744 58.638 15.3708 59.1851L16.4152 72.8628L26.2617 72.0547L26.6009 66.8994L24.6931 56.0799C24.5967 55.5326 24.075 55.1672 23.5277 55.2638V55.2638Z"
          fill="#5595A2"/>
    <path d="M26.6016 66.8993H20.2336C19.7453 66.8993 19.3273 66.5486 19.2428 66.0678L17.5271 56.3219L14.6117 56.837C14.0644 56.9336 13.6982 57.4547 13.7947 58.002L16.4145 72.8631L20.3179 72.175L27.3139 70.9416L26.6016 66.8993Z"
          fill="#488089"/>
    <path d="M78.7756 66.8993C78.1501 66.8993 77.6762 66.3345 77.7849 65.7186L79.4406 56.3259C79.4587 56.2192 79.4929 56.1207 79.5432 56.0321L76.5835 55.511C76.0362 55.4144 75.5131 55.7786 75.4165 56.3259L72.7968 71.1871L83.6961 73.1086L84.7907 66.8993H78.7756Z"
          fill="#488089"/>
    <path d="M91.9773 94.2476L8.13324 94.0206C7.5777 94.0206 7.1272 93.5701 7.1272 93.0146L6.03625 89.0331L48.1463 87.1582L93.9638 89.0331V92.4528L92.9833 93.2417C92.9833 93.797 92.533 94.2476 91.9773 94.2476Z"
          fill="#5595A2"/>
    <path d="M93.9638 92.4526V94.0622C93.9638 94.6196 93.5131 95.0683 92.9578 95.0683H7.04229C6.48696 95.0683 6.03625 94.6196 6.03625 94.0622V89.0321L7.46865 87.1582L8.65195 89.0321V91.4465C8.65195 92.0039 9.10265 92.4526 9.65799 92.4526H93.9638Z"
          fill="#488089"/>
    <path d="M93.9638 88.3911L5.1992 87.7746C3.5324 87.7746 2.18109 86.4233 2.18109 84.7565L1.39759 75.2398C1.39759 73.573 1.35111 70.9235 3.01791 70.9235H96.9817C98.6485 70.9235 99.9998 72.2748 99.9998 73.9416V86.014C100 87.681 95.6306 88.3911 93.9638 88.3911V88.3911Z"
          fill="#5595A2"/>
    <path d="M100 85.4104V86.014C100 87.6808 98.6487 89.0321 96.9819 89.0321H3.01811C1.35131 89.0321 0 87.6808 0 86.014V73.9416C0 72.2748 1.35131 70.9235 3.01811 70.9235H3.62173V84.0019C3.62173 84.7798 4.25231 85.4104 5.03018 85.4104H100Z"
          fill="#488089"/>
    <path d="M12.0724 79.9779C12.0724 78.3111 10.7211 76.9598 9.05427 76.9598C8.74984 76.9598 8.45608 77.0049 8.17902 77.0886C6.93897 77.4637 7.69934 78.6796 7.69934 80.0421C7.69934 81.7089 7.32207 82.3977 8.98887 82.3977C10.3504 82.3977 11.5669 82.0942 11.9428 80.8554C12.0271 80.5777 12.0724 80.2832 12.0724 79.9779V79.9779Z"
          fill="#FF8086"/>
    <path d="M11.9417 80.855C11.5674 82.0944 10.4145 82.9958 9.05436 82.9958C7.38837 82.9958 6.03625 81.6437 6.03625 79.9777C6.03625 78.6155 6.93968 77.4646 8.17911 77.0884C8.09461 77.366 8.04833 77.6598 8.04833 77.9656C8.04833 79.6316 9.40044 80.9838 11.0664 80.9838C11.3703 80.9838 11.664 80.9395 11.9417 80.855Z"
          fill="#E5646E"/>
    <path d="M24.1449 79.9779C24.1449 78.3111 22.7936 76.9598 21.1268 76.9598C20.8223 76.9598 20.5286 77.0049 20.2515 77.0886C19.0115 77.4637 19.7718 78.6796 19.7718 80.0421C19.7718 81.7089 19.3946 82.3977 21.0614 82.3977C22.423 82.3977 23.6395 82.0942 24.0153 80.8554C24.0996 80.5777 24.1449 80.2832 24.1449 79.9779V79.9779Z"
          fill="#B3E59F"/>
    <path d="M24.0141 80.855C23.6398 82.0944 22.4869 82.9958 21.1267 82.9958C19.4608 82.9958 18.1086 81.6437 18.1086 79.9777C18.1086 78.6155 19.0121 77.4646 20.2515 77.0884C20.167 77.366 20.1207 77.6598 20.1207 77.9656C20.1207 79.6316 21.4728 80.9838 23.1388 80.9838C23.4426 80.9838 23.7364 80.9395 24.0141 80.855Z"
          fill="#9AD8A7"/>
    <path d="M69.8189 79.9779C69.8189 78.3111 68.4676 76.9598 66.8008 76.9598C66.4964 76.9598 66.2027 77.0049 65.9256 77.0886C64.6856 77.4637 65.4459 78.6796 65.4459 80.0421C65.4459 81.7089 65.0687 82.3977 66.7354 82.3977C68.097 82.3977 69.3135 82.0942 69.6894 80.8554C69.7737 80.5777 69.8189 80.2832 69.8189 79.9779V79.9779Z"
          fill="#B3E59F"/>
    <path d="M69.6881 80.855C69.3139 82.0944 68.161 82.9958 66.8008 82.9958C65.1348 82.9958 63.7827 81.6437 63.7827 79.9777C63.7827 78.6155 64.6861 77.4646 65.9256 77.0884C65.8411 77.366 65.7948 77.6598 65.7948 77.9656C65.7948 79.6316 67.1469 80.9838 68.8129 80.9838C69.1167 80.9838 69.4105 80.9395 69.6881 80.855Z"
          fill="#9AD8A7"/>
    <path d="M81.8913 79.9779C81.8913 78.3111 80.54 76.9598 78.8732 76.9598C78.5688 76.9598 78.275 77.0049 77.998 77.0886C76.7579 77.4637 77.5183 78.6796 77.5183 80.0421C77.5183 81.7089 77.141 82.3977 78.8078 82.3977C80.1694 82.3977 81.3859 82.0942 81.7618 80.8554C81.8461 80.5777 81.8913 80.2832 81.8913 79.9779V79.9779Z"
          fill="#B3E59F"/>
    <path d="M81.7605 80.855C81.3863 82.0944 80.2334 82.9958 78.8732 82.9958C77.2072 82.9958 75.8551 81.6437 75.8551 79.9777C75.8551 78.6155 76.7585 77.4646 77.998 77.0884C77.9134 77.366 77.8672 77.6598 77.8672 77.9656C77.8672 79.6316 79.2193 80.9838 80.8853 80.9838C81.1891 80.9838 81.4829 80.9395 81.7605 80.855Z"
          fill="#9AD8A7"/>
    <path d="M93.9637 79.9779C93.9637 78.3111 92.6124 76.9598 90.9456 76.9598C90.6412 76.9598 90.3474 77.0049 90.0704 77.0886C88.8303 77.4637 89.5907 78.6796 89.5907 80.0421C89.5907 81.7089 89.2134 82.3977 90.8802 82.3977C92.2418 82.3977 93.4583 82.0942 93.8342 80.8554C93.9185 80.5777 93.9637 80.2832 93.9637 79.9779V79.9779Z"
          fill="#B3E59F"/>
    <path d="M93.8329 80.855C93.4587 82.0944 92.3058 82.9958 90.9456 82.9958C89.2796 82.9958 87.9275 81.6437 87.9275 79.9777C87.9275 78.6155 88.8309 77.4646 90.0703 77.0884C89.9858 77.366 89.9396 77.6598 89.9396 77.9656C89.9396 79.6316 91.2917 80.9838 92.9577 80.9838C93.2615 80.9838 93.5553 80.9395 93.8329 80.855Z"
          fill="#9AD8A7"/>
    <path d="M53.823 81.4494H34.1046C33.2712 81.4494 32.5956 80.7737 32.5956 79.9403C32.5956 79.1069 33.2712 78.4313 34.1046 78.4313H53.823C54.6564 78.4313 55.332 79.1069 55.332 79.9403C55.332 80.7737 54.6564 81.4494 53.823 81.4494Z"
          fill="#488089"/>
</svg>
