<svg width="512" height="512" viewBox="0 0 512 512" fill="none" xmlns="http://www.w3.org/2000/svg">
<g clip-path="url(#clip0_2834_3534)">
<path d="M0.000192642 25C0.000385369 38 0 272.24 0 487C0 499 13 512.001 25 512C239.765 511.982 474 512 487 512C500 512 512 500 512 487C512 474 512 100 512 90C512 80 512 80.5 472.5 40.5C433 0.499969 433 0.00012207 423 0.00012207C413 0.00012207 373 0.00012207 373 0.00012207L373 161H116L116 0.00012207H25.0002C12.0002 0.00012207 -8.47504e-08 12 0.000192642 25ZM393 280C405.5 280 418 293 418 305C418 317 418 425 418 438C418 451 406 463 393 463C380 463 130 463 118 463C106 463 93 450 93 438C93 426 93 318 93 305C93 292 105 280 118 280C131 280 380.5 280 393 280Z" fill="white"/>
<path d="M275.77 58.3162V116.633H299.986H324.202V58.3162V-0.000391126H299.986H275.77V58.3162Z" fill="white"/>
<path d="M143 344V358H255.5H368V344V330H255.5H143V344Z" fill="white"/>
<path d="M143 399V413H255.5H368V399V385H255.5H143V399Z" fill="white"/>
</g>
<defs>
<clipPath id="clip0_2834_3534">
<rect width="512" height="512" fill="white"/>
</clipPath>
</defs>
</svg>
