<svg width="512" height="512" viewBox="0 0 512 512" fill="none" xmlns="http://www.w3.org/2000/svg">
<path d="M374 312C394 280.533 405.733 243.2 405.733 203.067C405.733 90.9333 314.933 0 202.933 0C90.8 0 0 90.9333 0 203.067C0 315.2 90.8 406.133 202.8 406.133C243.467 406.133 281.333 394.133 313.067 373.6L322.267 367.2L467.067 512L512 466.267L367.333 321.467L374 312ZM316.533 89.6C346.8 119.867 363.467 160.133 363.467 202.933C363.467 245.733 346.8 286 316.533 316.267C286.267 346.533 246 363.2 203.2 363.2C160.4 363.2 120.133 346.533 89.8667 316.267C59.6 286 42.9333 245.733 42.9333 202.933C42.9333 160.133 59.6 119.867 89.8667 89.6C120.133 59.3333 160.4 42.6667 203.2 42.6667C246 42.6667 286.267 59.3333 316.533 89.6Z" fill="#505050"/>
</svg>
