<svg width="512" height="512" viewBox="0 0 512 512" fill="none" xmlns="http://www.w3.org/2000/svg">
<path d="M51.0197 125.533L3.17473 45.7391L35.0714 13.8215L114.813 61.6979V93.6155L196.833 175.689C196.833 177.969 196.833 180.249 196.833 182.529L167.215 209.887L82.9163 125.533H51.0197ZM392.769 319.319C385.934 319.319 381.378 319.319 374.543 319.319C358.595 319.319 344.924 317.039 331.255 314.759L283.41 369.475L390.491 490.306C415.553 517.664 458.841 519.944 483.903 492.586C511.243 465.228 508.964 424.191 481.624 399.113L392.769 319.319ZM470.233 232.685C506.686 196.208 518.078 141.492 504.408 93.6155C502.129 84.4962 490.738 82.2164 486.181 89.0559L406.439 168.85L342.646 105.015L422.388 25.2206C429.223 18.3811 426.944 9.26181 417.831 6.98198C369.986 -8.97683 315.306 2.42232 278.853 41.1794C237.843 82.2164 228.73 146.052 251.513 196.208L23.6797 399.113C-3.66027 424.191 -5.93861 467.508 21.4014 492.586C48.7414 519.944 89.7513 517.664 114.813 490.306L317.585 262.323C367.708 285.121 429.223 276.002 470.233 232.685Z" fill="#505050"/>
</svg>
