<svg width="512" height="512" viewBox="0 0 512 512" fill="none" xmlns="http://www.w3.org/2000/svg">
<path d="M294.48 512H217.583C212.864 512.001 208.311 510.255 204.802 507.099C201.293 503.944 199.076 499.601 198.579 494.908L192.885 441.301C184.937 438.596 177.172 435.38 169.639 431.672L127.745 465.551C124.079 468.503 119.451 469.999 114.749 469.75C110.048 469.5 105.604 467.524 102.27 464.201L47.8933 409.829C44.5691 406.496 42.5929 402.052 42.3437 397.351C42.0946 392.65 43.59 388.023 46.5431 384.357L80.4378 342.416C76.7235 334.885 73.5026 327.121 70.7955 319.172L17.0938 313.441C12.4026 312.944 8.06112 310.729 4.90519 307.223C1.74926 303.717 0.00206143 299.168 0 294.451V217.549C0.00206143 212.832 1.74926 208.283 4.90519 204.777C8.06112 201.271 12.4026 199.056 17.0938 198.559L70.7063 192.866C73.4134 184.917 76.6343 177.153 80.3487 169.622L46.454 127.682C43.5008 124.015 42.0054 119.388 42.2546 114.687C42.5037 109.986 44.48 105.543 47.8042 102.209L102.181 47.8376C105.515 44.5138 109.959 42.5378 114.66 42.2886C119.362 42.0395 123.989 43.5347 127.656 46.4876L169.601 80.3662C177.134 76.6586 184.899 73.4423 192.847 70.7375L198.541 17.1304C199.03 12.424 201.248 8.06655 204.766 4.90187C208.284 1.73718 212.851 -0.00951746 217.583 3.90071e-05H294.48C299.2 -0.00104495 303.753 1.74457 307.262 4.90048C310.771 8.0564 312.988 12.3993 313.485 17.0922L319.166 70.6993C327.118 73.404 334.887 76.6203 342.424 80.328L384.357 46.4494C388.023 43.4965 392.651 42.0012 397.353 42.2504C402.054 42.4995 406.498 44.4756 409.832 47.7994L464.209 102.171C467.533 105.504 469.509 109.948 469.758 114.649C470.007 119.35 468.512 123.977 465.559 127.643L431.664 169.584C435.373 177.117 438.594 184.881 441.306 192.828L494.919 198.521C499.608 199.021 503.946 201.237 507.099 204.742C510.253 208.248 511.998 212.796 512 217.511V294.413C512.009 299.126 510.275 303.677 507.131 307.19C503.987 310.702 499.656 312.929 494.97 313.441L441.357 319.134C438.645 327.08 435.424 334.844 431.715 342.378L465.61 384.318C468.563 387.985 470.058 392.612 469.809 397.313C469.56 402.014 467.584 406.457 464.259 409.791L409.883 464.201C406.549 467.524 402.105 469.5 397.404 469.75C392.702 469.999 388.074 468.503 384.408 465.551L342.475 431.672C334.938 435.38 327.169 438.596 319.217 441.301L313.536 494.908C313.038 499.609 310.814 503.959 307.294 507.117C303.774 510.274 299.209 512.014 294.48 512ZM234.741 473.791H277.272L282.481 424.68C282.89 420.836 284.456 417.206 286.971 414.27C289.486 411.335 292.833 409.231 296.569 408.237C310.027 404.649 322.947 399.282 334.986 392.279C338.338 390.326 342.205 389.439 346.073 389.737C349.941 390.035 353.626 391.504 356.64 393.947L395.056 424.985L425.13 394.915L394.037 356.617C391.594 353.604 390.125 349.919 389.827 346.051C389.529 342.184 390.415 338.317 392.369 334.965C399.358 322.935 404.708 310.025 408.278 296.578C409.272 292.84 411.378 289.492 414.317 286.977C417.255 284.462 420.888 282.898 424.735 282.492L473.838 277.27V234.743L424.735 229.521C420.888 229.115 417.255 227.551 414.317 225.036C411.378 222.52 409.272 219.173 408.278 215.435C404.709 201.983 399.359 189.069 392.369 177.035C390.415 173.683 389.529 169.816 389.827 165.949C390.125 162.081 391.594 158.396 394.037 155.383L425.079 116.97L395.005 86.8999L356.589 117.938C353.576 120.382 349.89 121.85 346.022 122.148C342.154 122.446 338.287 121.56 334.935 119.607C322.901 112.623 309.99 107.274 296.544 103.699C292.807 102.705 289.461 100.602 286.945 97.666C284.43 94.7302 282.865 91.1006 282.456 87.2565L277.297 38.209H234.741L229.531 87.3202C229.122 91.1659 227.554 94.7967 225.037 97.7327C222.519 100.669 219.169 102.771 215.431 103.763C201.994 107.354 189.096 112.72 177.078 119.721C173.726 121.674 169.859 122.561 165.991 122.263C162.123 121.965 158.437 120.496 155.424 118.053L117.046 86.9636L86.985 117.034L118.039 155.447C120.481 158.461 121.947 162.147 122.243 166.015C122.539 169.882 121.65 173.748 119.695 177.099C112.716 189.134 107.367 202.042 103.786 215.486C102.792 219.222 100.688 222.568 97.7521 225.083C94.8161 227.598 91.1861 229.163 87.3416 229.572L38.2255 234.794V277.308L87.3416 282.53C91.1861 282.938 94.8161 284.504 97.7521 287.019C100.688 289.534 102.792 292.88 103.786 296.616C107.366 310.046 112.711 322.941 119.682 334.965C121.637 338.316 122.526 342.182 122.23 346.049C121.934 349.917 120.468 353.603 118.026 356.617L86.985 394.966L117.058 425.036L155.488 393.998C158.501 391.555 162.186 390.086 166.055 389.788C169.923 389.49 173.79 390.377 177.142 392.33C189.17 399.315 202.077 404.665 215.52 408.237C219.258 409.229 222.608 411.331 225.126 414.267C227.643 417.203 229.211 420.834 229.62 424.68L234.741 473.791Z" fill="#505050"/>
<path d="M255.987 372C233.045 371.997 210.619 365.192 191.545 352.444C172.47 339.697 157.604 321.579 148.826 300.383C140.049 279.186 137.753 255.863 142.231 233.362C146.708 210.861 157.757 190.193 173.98 173.971C190.204 157.75 210.873 146.703 233.374 142.228C255.876 137.753 279.199 140.051 300.394 148.831C321.59 157.611 339.706 172.479 352.451 191.555C365.197 210.631 372 233.058 372 256C371.966 286.757 359.732 316.244 337.983 337.992C316.233 359.739 286.744 371.97 255.987 372ZM255.987 178.091C240.579 178.094 225.517 182.665 212.707 191.227C199.897 199.79 189.913 211.958 184.018 226.194C178.123 240.431 176.582 256.095 179.59 271.207C182.597 286.319 190.018 300.2 200.915 311.094C211.811 321.989 225.693 329.408 240.805 332.413C255.918 335.418 271.582 333.874 285.817 327.977C300.053 322.08 312.22 312.094 320.78 299.283C329.34 286.471 333.909 271.408 333.909 256C333.885 235.342 325.668 215.538 311.059 200.932C296.451 186.326 276.645 178.111 255.987 178.091Z" fill="#505050"/>
</svg>
