<svg width="100" height="100" viewBox="0 0 100 100" fill="none" xmlns="http://www.w3.org/2000/svg">
    <path d="M87.3098 5.32394V94.676C87.3098 97.6157 84.9255 100 81.9838 100H18.016C15.0744 100 12.6901 97.6157 12.6901 94.676V5.32394C12.6901 2.38431 15.0744 0 18.016 0H81.9838C84.9255 0 87.3098 2.38431 87.3098 5.32394Z"
          fill="#465A61"/>
    <path d="M77.3701 5.32394V94.676C77.3701 97.6157 74.9858 100 72.0462 100H18.016C15.0744 100 12.6901 97.6157 12.6901 94.676V5.32394C12.6901 2.38431 15.0744 0 18.016 0H72.0462C74.9858 0 77.3701 2.38431 77.3701 5.32394Z"
          fill="#596C76"/>
    <path d="M50 93.1128C67.1164 93.1128 80.992 79.2372 80.992 62.1209C80.992 45.0045 67.1164 31.1289 50 31.1289C32.8836 31.1289 19.0081 45.0045 19.0081 62.1209C19.0081 79.2372 32.8836 93.1128 50 93.1128Z"
          fill="#7A8C98"/>
    <path d="M49.9999 94.6219C32.079 94.6219 17.4991 80.0421 17.4991 62.1211C17.4991 44.2002 32.079 29.6201 49.9999 29.6201C67.9209 29.6201 82.5007 44.2 82.5007 62.1209C82.5007 80.0419 67.9209 94.6219 49.9999 94.6219ZM49.9999 32.6382C33.743 32.6382 20.5173 45.864 20.5173 62.1209C20.5173 78.3779 33.743 91.6038 49.9999 91.6038C66.2569 91.6038 79.4826 78.3781 79.4826 62.1211C79.4826 45.8642 66.2569 32.6382 49.9999 32.6382Z"
          fill="#BAAFB9"/>
    <path d="M74.3519 62.1208C74.3519 75.5695 63.4485 86.4729 49.9998 86.4729C48.6276 86.4729 47.2815 86.3602 45.9716 86.1389C34.4405 84.2214 25.6477 74.1972 25.6477 62.1208C25.6477 50.0443 34.4405 40.0202 45.9716 38.1027C47.2815 37.8814 48.6276 37.7687 49.9998 37.7687C63.4485 37.7687 74.3519 48.6721 74.3519 62.1208Z"
          fill="#D7D0D6"/>
    <path d="M66.2976 62.1208C66.2976 74.1972 57.5048 84.2214 45.9716 86.1389C34.4405 84.2214 25.6477 74.1972 25.6477 62.1208C25.6477 50.0443 34.4405 40.0202 45.9716 38.1027C57.5048 40.0202 66.2976 50.0443 66.2976 62.1208Z"
          fill="#E5E1E5"/>
    <path d="M60.9576 62.1207C60.9576 68.173 56.0522 73.0785 49.9999 73.0785C48.5773 73.0785 47.2192 72.8068 45.9717 72.3139C41.9133 70.7102 39.0421 66.7505 39.0421 62.1207C39.0421 57.4909 41.9133 53.5312 45.9717 51.9275C47.2192 51.4346 48.5773 51.163 49.9999 51.163C56.0522 51.163 60.9576 56.0684 60.9576 62.1207Z"
          fill="#596C76"/>
    <path d="M52.9033 62.1206C52.9033 66.7504 50.0321 70.7102 45.9717 72.3138C41.9133 70.7102 39.0421 66.7504 39.0421 62.1206C39.0421 57.4909 41.9133 53.5311 45.9717 51.9275C50.0321 53.5311 52.9033 57.4909 52.9033 62.1206Z"
          fill="#7A8C98"/>
    <path d="M49.9999 24.1351C54.4488 24.1351 58.0553 20.5286 58.0553 16.0797C58.0553 11.6309 54.4488 8.02441 49.9999 8.02441C45.5511 8.02441 41.9446 11.6309 41.9446 16.0797C41.9446 20.5286 45.5511 24.1351 49.9999 24.1351Z"
          fill="#D7D0D6"/>
    <path d="M74.3521 24.1351C72.6853 24.1351 71.3342 22.784 71.3342 21.1172V11.0423C71.3342 9.37552 72.6853 8.02441 74.3521 8.02441C76.0189 8.02441 77.37 9.37552 77.37 11.0423V21.1172C77.37 22.784 76.0189 24.1351 74.3521 24.1351Z"
          fill="#7A8C98"/>
    <path d="M25.6477 24.1351C23.9809 24.1351 22.6298 22.784 22.6298 21.1172V11.0423C22.6298 9.37552 23.9809 8.02441 25.6477 8.02441C27.3145 8.02441 28.6656 9.37552 28.6656 11.0423V21.1172C28.6656 22.784 27.3145 24.1351 25.6477 24.1351Z"
          fill="#7A8C98"/>
    <path d="M71.9145 41.7155C71.5284 41.7155 71.142 41.5682 70.8473 41.2736C70.2579 40.6841 70.2579 39.7287 70.8473 39.1394L73.7229 36.2638C74.3125 35.6746 75.2678 35.6746 75.8571 36.2638C76.4465 36.8533 76.4465 37.8086 75.8571 38.398L72.9815 41.2736C72.6869 41.5682 72.3006 41.7155 71.9145 41.7155Z"
          fill="#D7D0D6"/>
    <path d="M25.2098 88.4202C24.8237 88.4202 24.4373 88.2729 24.1426 87.9783C23.5532 87.3888 23.5532 86.4334 24.1426 85.8441L27.0182 82.9685C27.6078 82.3793 28.5631 82.3793 29.1524 82.9685C29.7418 83.558 29.7418 84.5133 29.1524 85.1027L26.2768 87.9783C25.9822 88.2729 25.5959 88.4202 25.2098 88.4202Z"
          fill="#D7D0D6"/>
    <path d="M74.7901 88.4202C74.404 88.4202 74.0177 88.2729 73.7229 87.9783L70.8473 85.1027C70.2579 84.5131 70.2579 83.5578 70.8473 82.9685C71.4368 82.3793 72.3921 82.3793 72.9815 82.9685L75.8571 85.8441C76.4465 86.4336 76.4465 87.389 75.8571 87.9783C75.5626 88.2729 75.1763 88.4202 74.7901 88.4202Z"
          fill="#D7D0D6"/>
    <path d="M28.0854 41.7155C27.6993 41.7155 27.313 41.5682 27.0182 41.2736L24.1426 38.398C23.5532 37.8084 23.5532 36.8531 24.1426 36.2638C24.7321 35.6746 25.6874 35.6746 26.2768 36.2638L29.1524 39.1394C29.7418 39.7289 29.7418 40.6843 29.1524 41.2736C28.8579 41.5682 28.4715 41.7155 28.0854 41.7155Z"
          fill="#D7D0D6"/>
</svg>
