<svg width="512" height="512" viewBox="0 0 512 512" fill="none" xmlns="http://www.w3.org/2000/svg">
<path d="M120 192C137.65 192 152 177.64 152 160C152 142.36 137.65 128 120 128C102.35 128 88 142.36 88 160C88 177.64 102.35 192 120 192ZM120 152C124.42 152 128 155.58 128 160C128 164.42 124.42 168 120 168C115.58 168 112 164.42 112 160C112 155.58 115.58 152 120 152Z" fill="black"/>
<path d="M208 80H32C14.35 80 0 94.36 0 112V400C0 417.64 14.35 432 32 432H208C225.65 432 240 417.64 240 400V112C240 94.36 225.65 80 208 80ZM120 112C146.47 112 168 133.53 168 160C168 186.47 146.47 208 120 208C93.53 208 72 186.47 72 160C72 133.53 93.53 112 120 112ZM40 112C44.42 112 48 115.58 48 120C48 124.42 44.42 128 40 128C35.58 128 32 124.42 32 120C32 115.58 35.58 112 40 112ZM40 400C35.58 400 32 396.42 32 392C32 387.58 35.58 384 40 384C44.42 384 48 387.58 48 392C48 396.42 44.42 400 40 400ZM184 376C181.95 376 179.91 375.22 178.34 373.66L171.862 367.182C171.143 366.463 170.007 366.41 169.206 367.037C140.332 389.649 99.707 389.68 70.794 367.037C69.993 366.41 68.857 366.463 68.138 367.182L61.66 373.66C60.09 375.22 58.05 376 56 376C48.895 376 45.322 367.374 50.34 362.34L56.818 355.862C57.537 355.143 57.59 354.007 56.963 353.206C34.348 324.328 34.323 283.703 56.963 254.794C57.59 253.993 57.537 252.857 56.818 252.138L50.34 245.66C47.22 242.53 47.22 237.47 50.34 234.34C53.47 231.22 58.53 231.22 61.66 234.34L68.138 240.818C68.857 241.537 69.993 241.59 70.794 240.963C99.666 218.352 140.293 218.319 169.206 240.963C170.007 241.59 171.143 241.537 171.862 240.818L178.34 234.34C181.47 231.22 186.53 231.22 189.66 234.34C192.78 237.47 192.78 242.53 189.66 245.66L183.182 252.138C182.463 252.857 182.41 253.993 183.037 254.794C205.652 283.672 205.677 324.297 183.037 353.206C182.41 354.007 182.463 355.143 183.182 355.862L189.66 362.34C194.676 367.372 191.107 376 184 376ZM200 400C195.58 400 192 396.42 192 392C192 387.58 195.58 384 200 384C204.42 384 208 387.58 208 392C208 396.42 204.42 400 200 400ZM200 128C195.58 128 192 124.42 192 120C192 115.58 195.58 112 200 112C204.42 112 208 115.58 208 120C208 124.42 204.42 128 200 128Z" fill="black"/>
<path d="M120 336C137.673 336 152 321.673 152 304C152 286.327 137.673 272 120 272C102.327 272 88 286.327 88 304C88 321.673 102.327 336 120 336Z" fill="black"/>
<path d="M120 240C84.71 240 56 268.71 56 304C56 339.29 84.71 368 120 368C155.29 368 184 339.29 184 304C184 268.71 155.29 240 120 240ZM120 352C93.53 352 72 330.47 72 304C72 277.53 93.53 256 120 256C146.47 256 168 277.53 168 304C168 330.47 146.47 352 120 352Z" fill="black"/>
<path d="M480 80H304C286.36 80 272 94.36 272 112V400C272 417.64 286.36 432 304 432H480C497.64 432 512 417.64 512 400V112C512 94.36 497.64 80 480 80ZM392 112C418.47 112 440 133.53 440 160C440 186.47 418.47 208 392 208C365.53 208 344 186.47 344 160C344 133.53 365.53 112 392 112ZM312 112C316.42 112 320 115.58 320 120C320 124.42 316.42 128 312 128C307.58 128 304 124.42 304 120C304 115.58 307.58 112 312 112ZM312 400C307.58 400 304 396.42 304 392C304 387.58 307.58 384 312 384C316.42 384 320 387.58 320 392C320 396.42 316.42 400 312 400ZM456 376C453.95 376 451.91 375.22 450.34 373.66L443.862 367.182C443.143 366.463 442.007 366.41 441.206 367.037C412.332 389.649 371.707 389.68 342.794 367.037C341.993 366.41 340.857 366.463 340.138 367.182L333.66 373.66C332.09 375.22 330.05 376 328 376C320.895 376 317.322 367.374 322.34 362.34L328.818 355.862C329.537 355.143 329.59 354.007 328.963 353.206C306.348 324.328 306.323 283.703 328.963 254.794C329.59 253.993 329.537 252.857 328.818 252.138L322.34 245.66C319.22 242.53 319.22 237.47 322.34 234.34C325.47 231.22 330.53 231.22 333.66 234.34L340.138 240.818C340.857 241.537 341.993 241.59 342.794 240.963C371.666 218.352 412.293 218.319 441.206 240.963C442.007 241.59 443.143 241.537 443.862 240.818L450.34 234.34C453.47 231.22 458.53 231.22 461.66 234.34C464.78 237.47 464.78 242.53 461.66 245.66L455.182 252.138C454.463 252.857 454.41 253.993 455.037 254.794C477.652 283.672 477.677 324.297 455.037 353.206C454.41 354.007 454.463 355.143 455.182 355.862L461.66 362.34C466.676 367.372 463.107 376 456 376V376ZM472 400C467.58 400 464 396.42 464 392C464 387.58 467.58 384 472 384C476.42 384 480 387.58 480 392C480 396.42 476.42 400 472 400ZM472 128C467.58 128 464 124.42 464 120C464 115.58 467.58 112 472 112C476.42 112 480 115.58 480 120C480 124.42 476.42 128 472 128Z" fill="black"/>
<path d="M392 336C409.673 336 424 321.673 424 304C424 286.327 409.673 272 392 272C374.327 272 360 286.327 360 304C360 321.673 374.327 336 392 336Z" fill="black"/>
<path d="M392 192C409.64 192 424 177.64 424 160C424 142.36 409.64 128 392 128C374.36 128 360 142.36 360 160C360 177.64 374.36 192 392 192ZM392 152C396.42 152 400 155.58 400 160C400 164.42 396.42 168 392 168C387.58 168 384 164.42 384 160C384 155.58 387.58 152 392 152Z" fill="black"/>
<path d="M392 240C356.71 240 328 268.71 328 304C328 339.29 356.71 368 392 368C427.29 368 456 339.29 456 304C456 268.71 427.29 240 392 240ZM392 352C365.53 352 344 330.47 344 304C344 277.53 365.53 256 392 256C418.47 256 440 277.53 440 304C440 330.47 418.47 352 392 352Z" fill="black"/>
</svg>
