<svg height="512" viewBox="0 0 42 56" width="512"
     xmlns="http://www.w3.org/2000/svg">
    <g id="Page-1" fill="none" fill-rule="evenodd">
        <g id="021---HDD" fill="rgb(0,0,0)" fill-rule="nonzero">
            <path style="fill:#000000;" id="Shape" d="m2 55h1.5859l-2.5859-2.5859v1.5859c0 .5522847.44771525 1 1 1z"/>
            <path style="fill:#000000;" id="Shape"
                  d="m11 41.9846v2.6013l.4141.4141h5.1718c.5307085-.0014456 1.0399276.2095377 1.4141.5859l1.258 1.258 10.2679-16.4339zm6 2.0154c-.5522847 0-1-.4477153-1-1s.4477153-1 1-1 1 .4477153 1 1-.4477153 1-1 1zm6-6c-.5522847 0-1-.4477153-1-1s.4477153-1 1-1 1 .4477153 1 1-.4477153 1-1 1z"/>
            <path style="fill:#000000;" id="Shape" d="m1 2v1.5859l2.5859-2.5859h-1.5859c-.55228475 0-1 .44771525-1 1z"/>
            <path style="fill:#000000;" id="Shape"
                  d="m20.2927 50.7067-3.7068-3.7067h-5.1718c-.5307085.0014456-1.0399276-.2095377-1.4141-.5859l-.4141-.4141c-.37636233-.3741724-.58734561-.8833915-.5859-1.4141v-5.1718l-4-4v12.1718l3.4141 3.4141h12.1718l-.2926-.2927z"/>
            <path style="fill:#000000;" id="Shape" d="m41 54v-1.5859l-2.5859 2.5859h1.5859c.5522847 0 1-.4477153 1-1z"/>
            <circle style="fill:#000000;" id="Oval" cx="21" cy="21" r="1"/>
            <path style="fill:#000000;" id="Shape"
                  d="m20.7094 48.2953.7047.7047h6.5859c1.6568542 0 3-1.3431458 3-3s-1.3431458-3-3-3h-3.9821z"/>
            <path style="fill:#000000;" id="Shape"
                  d="m21 5c-7.9242818-.00231822-14.6557779 5.797677-15.82507991 13.6352135-1.16930202 7.8375366 3.57610439 15.3498001 11.15597991 17.6605865l13.7391-8.5839c.6178929-.3897259 1.4233932-.2990609 1.9391901.2182702s.6040692 1.3230971.2125099 1.9398298l-3.049 4.88c6.1939674-3.6788641 9.1646095-11.0441978 7.2562479-17.9909546-1.9083617-6.94675679-8.224833-11.76080335-15.4289479-11.7590454zm-2 2c.5522847 0 1 .44771525 1 1s-.4477153 1-1 1-1-.44771525-1-1 .4477153-1 1-1zm-10 14c-.55228475 0-1-.4477153-1-1 .04099968-4.5527748 2.5501467-8.7244754 6.5527-10.8945.4937702-.24742355 1.0946264-.04772016 1.34205.44605001.2474235.49377019.0477202 1.09462639-.44605 1.34204999-3.3278644 1.8283541-5.4107901 5.309543-5.4487 9.1064 0 .5522847-.44771525 1-1 1zm12 8c-4.418278 0-8-3.581722-8-8s3.581722-8 8-8 8 3.581722 8 8c-.0050699 4.4161763-3.5838237 7.9949301-8 8z"/>
            <path style="fill:#000000;" id="Shape" d="m40 1h-1.5859l2.5859 2.5859v-1.5859c0-.55228475-.4477153-1-1-1z"/>
            <path style="fill:#000000;" id="Shape"
                  d="m41.2933 49.2927.7067-.7068v-41.1718l-.7067-.7068-.0006-.0006-5.9994-5.9994-.0006-.0006-.7068-.7067h-27.1718l-.7068.7067-.0006.0006-5.9994 5.9994-.0006.0006-.7067.7068v41.1718l.7067.7068.0006.0006 5.9994 5.9994.0006.0006.7068.7067h27.1718l.7068-.7067.0006-.0006 5.9994-5.9994zm-5.2933-44.2927c.5522847 0 1 .44771525 1 1s-.4477153 1-1 1-1-.44771525-1-1 .4477153-1 1-1zm-30 0c.55228475 0 1 .44771525 1 1s-.44771525 1-1 1-1-.44771525-1-1 .44771525-1 1-1zm30 32c-.5522847 0-1-.4477153-1-1s.4477153-1 1-1 1 .4477153 1 1-.4477153 1-1 1zm-8.79.8915-1.9425 3.1085h2.7325c2.7614237 0 5 2.2385763 5 5s-2.2385763 5-5 5h-5.4318c.0062626.2614319-.0394901.521502-.1346.7651-.3082427.7484402-1.0382717 1.236351-1.8477 1.2349h-12.1718c-.53070851.0014456-1.03992757-.2095377-1.4141-.5859l-3.4141-3.4141c-.37636233-.3741724-.58734561-.8833915-.5859-1.4141v-12.1718c.00009185-.8088539.48737511-1.5380221 1.23466385-1.8475447s1.60744413-.1384555 2.17943615.4334447l4 4c.3763623.3741724.5873456.8833915.5859 1.4141v.2122l3.1721-1.9818c-8.00796936-3.2896153-12.53760665-11.8160585-10.78069215-20.2932275 1.7569145-8.47716889 9.30214615-14.50106531 17.95791015-14.33708009s15.9674153 6.46934833 17.4019809 15.00698049c1.4345656 8.5376322-3.4147758 16.8863888-11.5415989 19.8703271z"/>
            <path style="fill:#000000;" id="Shape"
                  d="m21 15c-3.3137085 0-6 2.6862915-6 6s2.6862915 6 6 6 6-2.6862915 6-6c-.0036374-3.3122007-2.6877993-5.9963626-6-6zm0 9c-1.6568542 0-3-1.3431458-3-3s1.3431458-3 3-3 3 1.3431458 3 3c-.0018187 1.6561003-1.3438997 2.9981813-3 3z"/>
        </g>
    </g>
</svg>