<svg width="100" height="100" viewBox="0 0 100 100" fill="none" xmlns="http://www.w3.org/2000/svg">
    <path d="M79.9598 100H20.0986C16.7787 100 14.0625 97.2838 14.0625 93.9639V6.03613C14.0625 2.71621 16.7787 0 20.0986 0H79.9598C83.2797 0 85.9959 2.71621 85.9959 6.03613V93.9639C85.9959 97.2838 83.2797 100 79.9598 100Z"
          fill="#535454"/>
    <path d="M19.3639 93.9639V6.03613C19.3639 2.71621 22.0801 0 25.4 0H20.0986C16.7787 0 14.0625 2.71621 14.0625 6.03613V93.9639C14.0625 97.2838 16.7787 100 20.0986 100H25.4C22.0801 100 19.3639 97.2838 19.3639 93.9639Z"
          fill="#444443"/>
    <path d="M79.2731 8.83569H20.7851C20.0001 8.83569 19.3638 9.47202 19.3638 10.257V85.5107C19.3638 86.2956 20.0001 86.932 20.7851 86.932H79.2731C80.0581 86.932 80.6944 86.2956 80.6944 85.5107V10.257C80.6942 9.47202 80.0579 8.83569 79.2731 8.83569Z"
          fill="#A4D9F4"/>
    <path d="M50.0291 97.8529C47.6435 97.8529 45.7029 95.9123 45.7029 93.5267C45.7029 91.1412 47.6437 89.2006 50.0291 89.2006C52.4144 89.2006 54.3552 91.1412 54.3552 93.5267C54.3552 95.9123 52.4146 97.8529 50.0291 97.8529ZM50.0291 92.2187C49.308 92.2187 48.721 92.8054 48.721 93.5267C48.721 94.2478 49.3078 94.8347 50.0291 94.8347C50.7501 94.8347 51.3371 94.248 51.3371 93.5267C51.3371 92.8056 50.7503 92.2187 50.0291 92.2187Z"
          fill="#666666"/>
    <path d="M50.0285 6.09665C49.9298 6.09665 49.8312 6.08669 49.7347 6.06638C49.638 6.04822 49.5437 6.01814 49.4509 5.97986C49.3605 5.94372 49.274 5.89724 49.1914 5.84099C49.1087 5.78669 49.0324 5.72419 48.9619 5.65388C48.8914 5.58552 48.8291 5.50681 48.7748 5.42458C48.7205 5.34392 48.6742 5.25544 48.6359 5.16501C48.5976 5.07439 48.5695 4.97771 48.5494 4.88318C48.5292 4.78454 48.5193 4.68611 48.5193 4.58747C48.5193 4.48884 48.5294 4.39021 48.5494 4.29158C48.5695 4.19704 48.5976 4.10056 48.6359 4.00994C48.6742 3.91931 48.7205 3.83083 48.7748 3.75037C48.8291 3.66579 48.8916 3.58943 48.9619 3.52107C49.0324 3.45056 49.1087 3.38826 49.1914 3.33181C49.2738 3.27751 49.3603 3.23122 49.4509 3.19294C49.5435 3.15681 49.638 3.12673 49.7347 3.10837C50.2238 3.00779 50.7468 3.16892 51.097 3.52107C51.1654 3.58943 51.2298 3.66579 51.2841 3.75037C51.3384 3.83103 51.3847 3.91931 51.423 4.00994C51.4613 4.10056 51.4894 4.19704 51.5095 4.29158C51.5277 4.39021 51.5377 4.48884 51.5377 4.58747C51.5377 4.68611 51.5277 4.78454 51.5095 4.88318C51.4894 4.97771 51.4613 5.07439 51.423 5.16501C51.3847 5.25544 51.3384 5.34412 51.2841 5.42458C51.2298 5.50681 51.1654 5.58552 51.097 5.65388C50.8152 5.93572 50.4269 6.09665 50.0285 6.09665Z"
          fill="#666666"/>
    <path d="M32.7399 81.6039H28.7016C28.3315 81.6039 28.0286 81.3009 28.0286 80.9308V76.8925C28.0286 76.5224 28.3315 76.2195 28.7016 76.2195H32.7399C33.11 76.2195 33.4129 76.5224 33.4129 76.8925V80.9308C33.4129 81.3011 33.11 81.6039 32.7399 81.6039Z"
          fill="#92B620"/>
    <path d="M45.6122 81.6039H41.5739C41.2038 81.6039 40.9009 81.3009 40.9009 80.9308V76.8925C40.9009 76.5224 41.2038 76.2195 41.5739 76.2195H45.6122C45.9823 76.2195 46.2853 76.5224 46.2853 76.8925V80.9308C46.2853 81.3011 45.9825 81.6039 45.6122 81.6039Z"
          fill="#70B5E8"/>
    <path d="M58.4845 81.6039H54.4462C54.0761 81.6039 53.7732 81.3009 53.7732 80.9308V76.8925C53.7732 76.5224 54.0761 76.2195 54.4462 76.2195H58.4845C58.8546 76.2195 59.1576 76.5224 59.1576 76.8925V80.9308C59.1576 81.3011 58.8548 81.6039 58.4845 81.6039Z"
          fill="#70B5E8"/>
    <path d="M71.3568 81.6039H67.3186C66.9484 81.6039 66.6455 81.3009 66.6455 80.9308V76.8925C66.6455 76.5224 66.9484 76.2195 67.3186 76.2195H71.3568C71.727 76.2195 72.0299 76.5224 72.0299 76.8925V80.9308C72.0299 81.3011 71.727 81.6039 71.3568 81.6039Z"
          fill="#FFB70D"/>
    <path d="M32.7399 60.4403H28.7016C28.3315 60.4403 28.0286 60.1374 28.0286 59.7672V55.729C28.0286 55.3588 28.3315 55.0559 28.7016 55.0559H32.7399C33.11 55.0559 33.4129 55.3588 33.4129 55.729V59.7672C33.4129 60.1376 33.11 60.4403 32.7399 60.4403Z"
          fill="#898989"/>
    <path d="M45.6122 60.4403H41.5739C41.2038 60.4403 40.9009 60.1374 40.9009 59.7672V55.729C40.9009 55.3588 41.2038 55.0559 41.5739 55.0559H45.6122C45.9823 55.0559 46.2853 55.3588 46.2853 55.729V59.7672C46.2853 60.1376 45.9825 60.4403 45.6122 60.4403Z"
          fill="#F94A46"/>
    <path d="M58.4845 60.4403H54.4462C54.0761 60.4403 53.7732 60.1374 53.7732 59.7672V55.729C53.7732 55.3588 54.0761 55.0559 54.4462 55.0559H58.4845C58.8546 55.0559 59.1576 55.3588 59.1576 55.729V59.7672C59.1576 60.1376 58.8548 60.4403 58.4845 60.4403Z"
          fill="#70B5E8"/>
    <path d="M71.3568 60.4403H67.3186C66.9484 60.4403 66.6455 60.1374 66.6455 59.7672V55.729C66.6455 55.3588 66.9484 55.0559 67.3186 55.0559H71.3568C71.727 55.0559 72.0299 55.3588 72.0299 55.729V59.7672C72.0299 60.1376 71.727 60.4403 71.3568 60.4403Z"
          fill="#FFB70D"/>
    <path d="M32.7399 49.5871H28.7016C28.3315 49.5871 28.0286 49.2842 28.0286 48.9141V44.8758C28.0286 44.5057 28.3315 44.2028 28.7016 44.2028H32.7399C33.11 44.2028 33.4129 44.5057 33.4129 44.8758V48.9141C33.4129 49.2842 33.11 49.5871 32.7399 49.5871Z"
          fill="#EFEFEF"/>
    <path d="M45.6122 49.5871H41.5739C41.2038 49.5871 40.9009 49.2842 40.9009 48.9141V44.8758C40.9009 44.5057 41.2038 44.2028 41.5739 44.2028H45.6122C45.9823 44.2028 46.2853 44.5057 46.2853 44.8758V48.9141C46.2853 49.2842 45.9825 49.5871 45.6122 49.5871Z"
          fill="#FFB70D"/>
    <path d="M58.4845 49.5871H54.4462C54.0761 49.5871 53.7732 49.2842 53.7732 48.9141V44.8758C53.7732 44.5057 54.0761 44.2028 54.4462 44.2028H58.4845C58.8546 44.2028 59.1576 44.5057 59.1576 44.8758V48.9141C59.1576 49.2842 58.8548 49.5871 58.4845 49.5871Z"
          fill="#70B5E8"/>
    <path d="M71.3568 49.5871H67.3186C66.9484 49.5871 66.6455 49.2842 66.6455 48.9141V44.8758C66.6455 44.5057 66.9484 44.2028 67.3186 44.2028H71.3568C71.727 44.2028 72.0299 44.5057 72.0299 44.8758V48.9141C72.0299 49.2842 71.727 49.5871 71.3568 49.5871Z"
          fill="#EFEFEF"/>
    <path d="M32.7399 38.7337H28.7016C28.3315 38.7337 28.0286 38.4308 28.0286 38.0607V34.0224C28.0286 33.6523 28.3315 33.3494 28.7016 33.3494H32.7399C33.11 33.3494 33.4129 33.6523 33.4129 34.0224V38.0607C33.4129 38.4308 33.11 38.7337 32.7399 38.7337Z"
          fill="#DDA36F"/>
    <path d="M45.6122 38.7337H41.5739C41.2038 38.7337 40.9009 38.4308 40.9009 38.0607V34.0224C40.9009 33.6523 41.2038 33.3494 41.5739 33.3494H45.6122C45.9823 33.3494 46.2853 33.6523 46.2853 34.0224V38.0607C46.2853 38.4308 45.9825 38.7337 45.6122 38.7337Z"
          fill="#70B5E8"/>
    <path d="M58.4845 38.7337H54.4462C54.0761 38.7337 53.7732 38.4308 53.7732 38.0607V34.0224C53.7732 33.6523 54.0761 33.3494 54.4462 33.3494H58.4845C58.8546 33.3494 59.1576 33.6523 59.1576 34.0224V38.0607C59.1576 38.4308 58.8548 38.7337 58.4845 38.7337Z"
          fill="#F9D698"/>
    <path d="M71.3568 38.7337H67.3186C66.9484 38.7337 66.6455 38.4308 66.6455 38.0607V34.0224C66.6455 33.6523 66.9484 33.3494 67.3186 33.3494H71.3568C71.727 33.3494 72.0299 33.6523 72.0299 34.0224V38.0607C72.0299 38.4308 71.727 38.7337 71.3568 38.7337Z"
          fill="#70B5E8"/>
    <path d="M32.7399 27.8807H28.7016C28.3315 27.8807 28.0286 27.5778 28.0286 27.2077V23.1694C28.0286 22.7993 28.3315 22.4963 28.7016 22.4963H32.7399C33.11 22.4963 33.4129 22.7993 33.4129 23.1694V27.2077C33.4129 27.5778 33.11 27.8807 32.7399 27.8807Z"
          fill="#92B620"/>
    <path d="M45.6122 27.8807H41.5739C41.2038 27.8807 40.9009 27.5778 40.9009 27.2077V23.1694C40.9009 22.7993 41.2038 22.4963 41.5739 22.4963H45.6122C45.9823 22.4963 46.2853 22.7993 46.2853 23.1694V27.2077C46.2853 27.5778 45.9825 27.8807 45.6122 27.8807Z"
          fill="#F94A46"/>
    <path d="M58.4845 27.8807H54.4462C54.0761 27.8807 53.7732 27.5778 53.7732 27.2077V23.1694C53.7732 22.7993 54.0761 22.4963 54.4462 22.4963H58.4845C58.8546 22.4963 59.1576 22.7993 59.1576 23.1694V27.2077C59.1576 27.5778 58.8548 27.8807 58.4845 27.8807Z"
          fill="#FFB70D"/>
    <path d="M71.3568 27.8807H67.3186C66.9484 27.8807 66.6455 27.5778 66.6455 27.2077V23.1694C66.6455 22.7993 66.9484 22.4963 67.3186 22.4963H71.3568C71.727 22.4963 72.0299 22.7993 72.0299 23.1694V27.2077C72.0299 27.5778 71.727 27.8807 71.3568 27.8807Z"
          fill="#EFEFEF"/>
</svg>
