<svg width="512" height="512" viewBox="0 0 512 512" fill="none" xmlns="http://www.w3.org/2000/svg">
<path d="M502.728 130.447C364.324 -0.822544 147.369 -0.737559 9.06862 130.639C3.22156 136.486 -0.0434598 144.43 0.00154054 152.699C-0.0814602 160.919 3.19258 168.817 9.06862 174.566L59.7361 225.275C71.9721 236.661 90.8634 236.864 103.341 225.744C118.831 211.347 136.276 199.209 155.161 189.691C165.465 183.439 171.441 171.98 170.67 159.952V103.823C198.664 97.5831 227.34 94.9381 256.003 95.9511C284.672 94.8693 313.357 97.5301 341.338 103.866V159.952C340.285 171.991 346.179 183.578 356.526 189.819C375.519 199.258 393.042 211.394 408.558 225.851C414.433 231.324 422.162 234.372 430.19 234.384C438.459 234.429 446.403 231.164 452.25 225.317L502.938 174.629C515.103 162.321 515.005 142.489 502.725 130.297L502.728 130.447Z" fill="#2A4858"/>
<path d="M456.95 335.222C456.496 334.334 455.928 333.51 455.265 332.767L338.529 205.963C336.491 203.803 333.647 202.589 330.678 202.614H181.343C178.361 202.611 175.514 203.857 173.492 206.049L56.7551 332.747C56.09 333.489 55.524 334.314 55.0701 335.199C46.9359 351.507 42.6937 369.478 42.6748 387.702V469.282C42.6748 475.173 47.451 479.949 53.3421 479.949H458.678C464.568 479.949 469.345 475.173 469.345 469.282V387.787C469.337 369.542 465.093 351.548 456.95 335.222Z" fill="#2A4858"/>
<path d="M206.182 330.625H181.329C175.438 330.625 170.662 335.402 170.662 341.293C170.662 347.183 175.438 351.96 181.329 351.96H206.182C212.073 351.96 216.849 347.183 216.849 341.293C216.849 335.402 212.073 330.625 206.182 330.625Z" fill="white"/>
<path d="M269.033 330.625H242.43C236.539 330.625 231.763 335.402 231.763 341.293C231.763 347.183 236.539 351.96 242.43 351.96H269.033C274.924 351.96 279.701 347.183 279.701 341.293C279.701 335.402 274.924 330.625 269.033 330.625Z" fill="white"/>
<path d="M330.668 330.625H306.304C300.414 330.625 295.637 335.402 295.637 341.293C295.637 347.183 300.414 351.96 306.304 351.96H330.668C336.558 351.96 341.335 347.183 341.335 341.293C341.335 335.402 336.558 330.625 330.668 330.625Z" fill="white"/>
<path d="M213.325 287.961H191.992C186.101 287.961 181.325 292.738 181.325 298.628C181.325 304.519 186.101 309.296 191.992 309.296H213.325C219.216 309.296 223.992 304.519 223.992 298.628C223.992 292.738 219.216 287.961 213.325 287.961Z" fill="white"/>
<path d="M245.329 309.284H266.662C272.553 309.284 277.33 304.507 277.33 298.617C277.33 292.726 272.553 287.949 266.662 287.949H245.329C239.438 287.949 234.662 292.726 234.662 298.617C234.662 304.507 239.438 309.284 245.329 309.284Z" fill="white"/>
<path d="M320 309.284C325.891 309.284 330.668 304.507 330.668 298.617C330.668 292.726 325.891 287.949 320 287.949H298.668C292.777 287.949 288 292.726 288 298.617C288 304.507 292.777 309.284 298.668 309.284H320Z" fill="white"/>
<path d="M213.334 245.289H202.667C196.776 245.289 192 250.065 192 255.956C192 261.846 196.776 266.623 202.667 266.623H213.334C219.225 266.623 224.001 261.846 224.001 255.956C224.001 250.065 219.225 245.289 213.334 245.289Z" fill="white"/>
<path d="M250.667 266.623H261.335C267.226 266.623 272 261.846 272 255.956C272 250.065 267.226 245.289 261.335 245.289H250.667C244.776 245.289 240 250.065 240 255.956C240 261.846 244.776 266.623 250.667 266.623Z" fill="white"/>
<path d="M298.668 266.623H309.335C315.226 266.623 320 261.846 320 255.956C320 250.065 315.226 245.289 309.335 245.289H298.668C292.777 245.289 288 250.065 288 255.956C288 261.846 292.777 266.623 298.668 266.623Z" fill="white"/>
<path d="M202.667 223.95C196.776 223.95 192 219.174 192 213.283V170.616C192 164.725 196.776 159.949 202.667 159.949C208.558 159.949 213.334 164.725 213.334 170.616V213.283C213.334 219.174 208.558 223.95 202.667 223.95Z" fill="#2A4858"/>
<path d="M309.33 223.95C303.439 223.95 298.662 219.174 298.662 213.283V170.616C298.662 164.725 303.439 159.949 309.33 159.949C315.22 159.949 319.997 164.725 319.997 170.616V213.283C319.997 219.174 315.22 223.95 309.33 223.95Z" fill="#2A4858"/>
</svg>
