<svg width="14" height="14" viewBox="0 0 14 14" fill="none" xmlns="http://www.w3.org/2000/svg">
    <path d="M11.5938 1.75H9.1875V1.3125C9.1875 0.587617 8.59988 0 7.875 0H6.125C5.40012 0 4.8125 0.587617 4.8125 1.3125V1.75H2.40625C1.8022 1.75 1.3125 2.2397 1.3125 2.84375V3.71875C1.3125 3.96039 1.50836 4.15625 1.75 4.15625H12.25C12.4916 4.15625 12.6875 3.96039 12.6875 3.71875V2.84375C12.6875 2.2397 12.1978 1.75 11.5938 1.75ZM5.6875 1.3125C5.6875 1.07133 5.88383 0.875 6.125 0.875H7.875C8.11617 0.875 8.3125 1.07133 8.3125 1.3125V1.75H5.6875V1.3125Z"
          fill="white"/>
    <path d="M2.14276 5.03125C2.06469 5.03125 2.00248 5.09649 2.0062 5.17448L2.36714 12.7498C2.4005 13.4509 2.97636 14 3.678 14H10.322C11.0236 14 11.5995 13.4509 11.6328 12.7498L11.9938 5.17448C11.9975 5.09649 11.9353 5.03125 11.8572 5.03125H2.14276ZM8.74999 6.125C8.74999 5.88328 8.94577 5.6875 9.18749 5.6875C9.42921 5.6875 9.62499 5.88328 9.62499 6.125V11.8125C9.62499 12.0542 9.42921 12.25 9.18749 12.25C8.94577 12.25 8.74999 12.0542 8.74999 11.8125V6.125ZM6.56249 6.125C6.56249 5.88328 6.75827 5.6875 6.99999 5.6875C7.24171 5.6875 7.43749 5.88328 7.43749 6.125V11.8125C7.43749 12.0542 7.24171 12.25 6.99999 12.25C6.75827 12.25 6.56249 12.0542 6.56249 11.8125V6.125ZM4.37499 6.125C4.37499 5.88328 4.57077 5.6875 4.81249 5.6875C5.05421 5.6875 5.24999 5.88328 5.24999 6.125V11.8125C5.24999 12.0542 5.05421 12.25 4.81249 12.25C4.57077 12.25 4.37499 12.0542 4.37499 11.8125V6.125Z"
          fill="white"/>
</svg>
