<svg width="512" height="512" viewBox="0 0 512 512" fill="none" xmlns="http://www.w3.org/2000/svg">
<path d="M424 64H336V48C336 21.49 314.51 0 288 0H224C197.49 0 176 21.49 176 48V64H88C65.909 64 48 81.909 48 104V136C48 144.837 55.163 152 64 152H448C456.837 152 464 144.837 464 136V104C464 81.909 446.091 64 424 64ZM208 48C208 39.18 215.18 32 224 32H288C296.82 32 304 39.18 304 48V64H208V48Z" fill="#25AE88"/>
<path d="M78.3649 184C75.5099 184 73.235 186.386 73.371 189.238L86.571 466.28C87.791 491.92 108.851 512 134.511 512H377.491C403.151 512 424.211 491.92 425.431 466.28L438.631 189.238C438.767 186.386 436.492 184 433.637 184H78.3649ZM320.001 224C320.001 215.16 327.161 208 336.001 208C344.841 208 352.001 215.16 352.001 224V432C352.001 440.84 344.841 448 336.001 448C327.161 448 320.001 440.84 320.001 432V224ZM240.001 224C240.001 215.16 247.161 208 256.001 208C264.841 208 272.001 215.16 272.001 224V432C272.001 440.84 264.841 448 256.001 448C247.161 448 240.001 440.84 240.001 432V224ZM160.001 224C160.001 215.16 167.161 208 176.001 208C184.841 208 192.001 215.16 192.001 224V432C192.001 440.84 184.841 448 176.001 448C167.161 448 160.001 440.84 160.001 432V224Z" fill="#25AE88"/>
</svg>
