<svg width="512" height="512" viewBox="0 0 512 512" fill="none" xmlns="http://www.w3.org/2000/svg">
<path d="M186.5 174.692C186.5 135.2 216.617 105 256 105C295.383 105 325.5 135.2 325.5 174.692C325.5 214.185 295.383 244.385 256 244.385C216.617 244.385 186.5 214.185 186.5 174.692ZM256 290.846C149.433 290.846 117 367.508 117 367.508V407H395V367.508C395 367.508 362.567 290.846 256 290.846Z" fill="black"/>
<path d="M407 222C439.033 222 465 195.809 465 163.5C465 131.191 439.033 105 407 105C374.967 105 349 131.191 349 163.5C349 195.809 374.967 222 407 222Z" fill="black"/>
<path d="M407.205 269C379.26 269 358.301 275.951 342 287.537C395.562 313.024 416.521 357.049 416.521 361.683V364H512V333.878C512 331.561 486.384 269 407.205 269Z" fill="black"/>
<path d="M407 222C439.033 222 465 195.809 465 163.5C465 131.191 439.033 105 407 105C374.967 105 349 131.191 349 163.5C349 195.809 374.967 222 407 222Z" fill="black"/>
<path d="M407.205 269C379.26 269 358.301 275.951 342 287.537C395.562 313.024 416.521 357.049 416.521 361.683V364H512V333.878C512 331.561 486.384 269 407.205 269Z" fill="black"/>
<path d="M105 222C137.033 222 163 195.809 163 163.5C163 131.191 137.033 105 105 105C72.9675 105 47 131.191 47 163.5C47 195.809 72.9675 222 105 222Z" fill="black"/>
<path d="M104.795 269C132.74 269 153.699 275.951 170 287.537C116.438 313.024 95.4794 357.049 95.4794 361.683V364H0V333.878C0 331.561 25.6164 269 104.795 269Z" fill="black"/>
</svg>
