<svg width="512" height="512" viewBox="0 0 512 512" fill="none" xmlns="http://www.w3.org/2000/svg">
<path d="M256 352C309.019 352 352 309.019 352 256C352 202.981 309.019 160 256 160C202.981 160 160 202.981 160 256C160 309.019 202.981 352 256 352Z" fill="black"/>
<path d="M256 96C96 96 0 255.008 0 255.008C0 255.008 96 416 256 416C416 416 512 256 512 256C512 256 416 96 256 96ZM256 384C116 384 40 256 40 256C40 256 116 128 256 128C396 128 472 256 472 256C472 256 396 384 256 384Z" fill="black"/>
</svg>
