<svg width="14" height="14" viewBox="0 0 14 14" fill="none" xmlns="http://www.w3.org/2000/svg">
<path fill-rule="evenodd" clip-rule="evenodd" d="M14 7C14 10.866 10.866 14 7 14C3.134 14 0 10.866 0 7C0 3.13403 3.134 0 7 0C10.866 0 14 3.13403 14 7ZM3.28571 7C3.28571 4.79102 5.01285 3 7.14285 3C9.27286 3 11 4.79102 11 7C11 9.20898 9.27286 11 7.14285 11C6.07571 11 5.11572 10.551 4.41714 9.82666L5.02573 9.19556C5.5657 9.76001 6.3157 10.1111 7.14285 10.1111C8.80142 10.1111 10.1429 8.71997 10.1429 7C10.1429 5.28003 8.80142 3.88892 7.14285 3.88892C5.48428 3.88892 4.14285 5.28003 4.14285 7H5.42856L3.69714 8.79102L3.66714 8.729L2 7H3.28571ZM6.71429 7.44434V5.22217H7.35715V7.11108L8.85715 8.03564L8.54858 8.57324L6.71429 7.44434Z" fill="white"/>
</svg>
