<svg width="14" height="14" viewBox="0 0 14 14" fill="none" xmlns="http://www.w3.org/2000/svg">
<path d="M7 14C10.866 14 14 10.866 14 7C14 3.13401 10.866 0 7 0C3.13401 0 0 3.13401 0 7C0 10.866 3.13401 14 7 14Z" fill="#C235D9"/>
<path d="M7.14286 3C5.01286 3 3.28571 4.79111 3.28571 7H2L3.66714 8.72889L3.69714 8.79111L5.42857 7H4.14286C4.14286 5.28 5.48429 3.88889 7.14286 3.88889C8.80143 3.88889 10.1429 5.28 10.1429 7C10.1429 8.72 8.80143 10.1111 7.14286 10.1111C6.31571 10.1111 5.56571 9.76 5.02571 9.19556L4.41714 9.82667C5.11571 10.5511 6.07571 11 7.14286 11C9.27286 11 11 9.20889 11 7C11 4.79111 9.27286 3 7.14286 3ZM6.71429 5.22222V7.44444L8.54857 8.57333L8.85714 8.03556L7.35714 7.11111V5.22222H6.71429Z" fill="white"/>
</svg>
