<svg width="100" height="100" viewBox="0 0 100 100" fill="none" xmlns="http://www.w3.org/2000/svg">
    <path d="M63.7827 78.8732V99.9999H69.8189C73.1527 99.9999 75.8552 97.2975 75.8552 93.9637V87.9275L63.7827 78.8732Z"
          fill="#565959"/>
    <path d="M24.1449 87.9275V93.9638C24.1449 97.2976 26.8473 100 30.1811 100H63.7827C67.1165 100 69.8189 97.2976 69.8189 93.9638V75.8551L24.1449 87.9275Z"
          fill="#6F706F"/>
    <path d="M75.8551 66.3984H51.7102L69.8188 87.9276H75.8551V66.3984Z" fill="#404242"/>
    <path d="M24.1449 66.3984H69.8189V87.9276H24.1449V66.3984Z" fill="#565959"/>
    <path d="M66.8008 36.2173V75.8551H72.837C76.1708 75.8551 78.8732 73.1527 78.8732 69.8189V36.2173H66.8008Z"
          fill="#6F706F"/>
    <path d="M21.1268 36.2173V69.8189C21.1268 73.1527 23.8292 75.8551 27.163 75.8551H66.8009C70.1347 75.8551 72.8371 73.1527 72.8371 69.8189V36.2173H21.1268Z"
          fill="#8F8F8B"/>
    <path d="M33.1992 36.2173H66.8008V48.2897H33.1992V36.2173Z" fill="#6F706F"/>
    <path d="M78.8733 0H72.837V42.2535H78.8733C90.5413 42.2535 100 32.7948 100 21.1268C100 9.45875 90.5413 0 78.8733 0Z"
          fill="#404242"/>
    <path d="M93.9638 21.1268C93.9638 9.45875 84.505 0 72.837 0H21.1268C9.45875 0 0 9.45875 0 21.1268C0 32.7948 9.45875 42.2535 21.1268 42.2535H72.837C84.505 42.2535 93.9638 32.7948 93.9638 21.1268Z"
          fill="#565959"/>
    <path d="M50 36.2172C58.3342 36.2172 65.0905 29.461 65.0905 21.1267C65.0905 12.7924 58.3342 6.03613 50 6.03613C41.6657 6.03613 34.9094 12.7924 34.9094 21.1267C34.9094 29.461 41.6657 36.2172 50 36.2172Z"
          fill="#404242"/>
    <path d="M50 30.1812C55.0006 30.1812 59.0543 26.1274 59.0543 21.1268C59.0543 16.1263 55.0006 12.0725 50 12.0725C44.9994 12.0725 40.9457 16.1263 40.9457 21.1268C40.9457 26.1274 44.9994 30.1812 50 30.1812Z"
          fill="#2D6AAB"/>
    <path d="M49.9999 24.1449C51.6668 24.1449 53.018 22.7936 53.018 21.1268C53.018 19.4599 51.6668 18.1086 49.9999 18.1086C48.3331 18.1086 46.9818 19.4599 46.9818 21.1268C46.9818 22.7936 48.3331 24.1449 49.9999 24.1449Z"
          fill="#69A7FF"/>
    <path d="M74.1449 24.1449C75.8118 24.1449 77.1631 22.7936 77.1631 21.1268C77.1631 19.4599 75.8118 18.1086 74.1449 18.1086C72.4781 18.1086 71.1268 19.4599 71.1268 21.1268C71.1268 22.7936 72.4781 24.1449 74.1449 24.1449Z"
          fill="#69A7FF"/>
    <path d="M28.8732 22.6358C29.7066 22.6358 30.3822 21.9602 30.3822 21.1267C30.3822 20.2933 29.7066 19.6177 28.8732 19.6177C28.0398 19.6177 27.3641 20.2933 27.3641 21.1267C27.3641 21.9602 28.0398 22.6358 28.8732 22.6358Z"
          fill="#404242"/>
</svg>
