<svg id="Capa_1" enable-background="new 0 0 512 512" height="512" viewBox="0 0 512 512" width="512"
     xmlns="http://www.w3.org/2000/svg">
    <g>
        <path style="fill:#000000;"
              d="m256 225.656c55.644 0 100.913-45.27 100.913-100.913s-45.269-100.913-100.913-100.913-100.913 45.269-100.913 100.912 45.269 100.914 100.913 100.914zm0-152.517c28.455 0 51.604 23.149 51.604 51.604s-23.149 51.604-51.604 51.604-51.604-23.149-51.604-51.604 23.149-51.604 51.604-51.604z"/>
        <path style="fill:#000000;"
              d="m256 146.347c11.913 0 21.604-9.691 21.604-21.604 0-11.912-9.691-21.604-21.604-21.604s-21.604 9.691-21.604 21.604 9.691 21.604 21.604 21.604z"/>
        <path style="fill:#000000;"
              d="m125.087 124.742c0-40.566 18.548-76.881 47.607-100.913h-142.694c-16.569 0-30 13.432-30 30v141.826c0 16.568 13.431 30 30 30h142.694c-29.059-24.031-47.607-60.346-47.607-100.913zm-30 15.001h-30v-30h30z"/>
        <path style="fill:#000000;"
              d="m482 23.83h-142.694c29.06 24.031 47.607 60.346 47.607 100.913s-18.548 76.882-47.608 100.913h142.695c16.569 0 30-13.432 30-30v-141.826c0-16.569-13.431-30-30-30zm-33.653 115.913h-31v-30h31z"/>
        <path style="fill:#000000;" d="m162.984 255.656h186.032v60.697h-186.032z"/>
        <path style="fill:#000000;" d="m287.867 346.353h-63.734v78.083h-105.129v63.734h273.992v-63.734h-105.129z"/>
    </g>
</svg>