<svg width="512" height="512" viewBox="0 0 512 512" fill="none" xmlns="http://www.w3.org/2000/svg">
<path d="M256.064 0H255.936C114.784 0 0 114.816 0 256C0 312 18.048 363.904 48.736 406.047L16.832 501.153L115.232 469.696C155.712 496.512 204 512 256.064 512C397.215 512 512 397.153 512 256C512 114.848 397.215 0 256.064 0Z" fill="#4CAF50"/>
<path d="M405.023 361.501C398.846 378.942 374.334 393.406 354.783 397.63C341.407 400.477 323.935 402.75 265.119 378.366C189.887 347.198 141.439 270.749 137.663 265.79C134.047 260.829 107.263 225.31 107.263 188.574C107.263 151.838 125.919 133.95 133.439 126.27C139.615 119.966 149.823 117.086 159.615 117.086C162.783 117.086 165.631 117.246 168.191 117.374C175.711 117.694 179.487 118.142 184.447 130.014C190.623 144.894 205.663 181.63 207.455 185.406C209.279 189.182 211.103 194.302 208.543 199.262C206.143 204.382 204.031 206.654 200.255 211.006C196.479 215.358 192.895 218.686 189.119 223.358C185.663 227.422 181.759 231.774 186.111 239.294C190.463 246.654 205.503 271.197 227.647 290.909C256.223 316.35 279.391 324.478 287.678 327.934C293.855 330.494 301.215 329.885 305.726 325.085C311.455 318.91 318.526 308.67 325.727 298.589C330.847 291.357 337.311 290.461 344.095 293.021C351.007 295.422 387.582 313.501 395.103 317.246C402.622 321.022 407.583 322.814 409.406 325.981C411.198 329.15 411.198 344.029 405.023 361.501Z" fill="#FAFAFA"/>
</svg>
