<svg width="512" height="512" viewBox="0 0 512 512" fill="none" xmlns="http://www.w3.org/2000/svg">
<path d="M224.248 460.402C348.097 460.402 448.496 360.003 448.496 236.154C448.496 112.306 348.097 11.9062 224.248 11.9062C100.399 11.9062 0 112.306 0 236.154C0 360.003 100.399 460.402 224.248 460.402Z" fill="#FDFC01"/>
<path d="M337.365 321.742C334.056 380.351 335.596 415.655 343.318 482.231L158.76 498.107C146.411 458.067 138.915 424.68 138.915 374.076C138.915 323.471 146.853 297.672 157.606 250.045C168.359 202.417 166.698 160.742 166.698 160.742C166.698 160.742 162.856 104.554 156.776 71.4399C396.9 75.4089 390.946 63.5019 478.264 31.75L510.016 85.3314C458.419 117.083 388.962 128.99 345.303 123.037C348.195 173.82 347.488 201.927 343.318 251.624L337.365 321.742Z" fill="#FF0000"/>
<path fill-rule="evenodd" clip-rule="evenodd" d="M225.091 322.555C225.155 323.488 225.221 324.428 225.284 325.376C225.535 329.145 225.994 333.42 226.497 338.105C229.771 368.62 234.907 416.491 196.706 454.691C194.381 457.016 190.612 457.016 188.287 454.691C185.962 452.366 185.962 448.597 188.287 446.272C222.115 412.444 217.851 370.964 214.685 340.162C214.174 335.194 213.692 330.504 213.403 326.169C213.344 325.275 213.28 324.364 213.215 323.438C212.757 316.904 212.247 309.638 212.836 302.668C213.519 294.57 215.71 286.256 221.533 279.081C233.151 264.769 257.021 257.501 301.971 259.978C305.254 260.159 307.769 262.967 307.588 266.25C307.407 269.533 304.599 272.048 301.316 271.867C256.684 269.407 238.412 277.18 230.778 286.585C226.976 291.269 225.265 296.982 224.7 303.669C224.195 309.653 224.63 315.923 225.091 322.555Z" fill="#D7D7D7"/>
<path d="M305.613 218.297C307.597 218.297 420.086 218.297 420.086 218.297C451.207 218.297 488.186 238.142 488.186 271.878C488.186 305.615 461.031 329.429 426.667 329.429C392.302 329.429 389.689 313.553 375.07 313.553C360.452 313.553 308.324 313.553 306.34 313.553C304.355 313.553 301.644 311.568 301.644 309.584C301.644 307.599 301.644 277.832 301.644 277.832C301.644 277.832 297.675 275.847 297.675 273.863C297.675 271.878 297.675 259.971 297.675 257.987C297.675 256.002 301.644 254.018 301.644 254.018C301.644 254.018 301.644 224.25 301.644 222.266C301.644 220.281 303.628 218.297 305.613 218.297Z" fill="#A9A9A9"/>
<path d="M309.581 229.211C309.581 227.723 311.566 226.234 313.55 226.234C315.535 226.234 373.085 226.234 373.085 226.234V261.955H309.581C309.581 261.955 309.581 230.699 309.581 229.211Z" fill="#D7D7D7"/>
<path d="M309.581 269.891H373.085V305.612C373.085 305.612 315.535 305.612 313.55 305.612C311.566 305.612 309.581 304.123 309.581 302.635C309.581 301.146 309.581 269.891 309.581 269.891Z" fill="#D7D7D7"/>
<path d="M17.86 468.345C23.34 468.345 27.7825 463.903 27.7825 458.422C27.7825 452.942 23.34 448.5 17.86 448.5C12.3799 448.5 7.9375 452.942 7.9375 458.422C7.9375 463.903 12.3799 468.345 17.86 468.345Z" fill="#FF0000"/>
<path d="M53.5817 468.345C59.0617 468.345 63.5041 463.903 63.5041 458.422C63.5041 452.942 59.0617 448.5 53.5817 448.5C48.1016 448.5 43.6592 452.942 43.6592 458.422C43.6592 463.903 48.1016 468.345 53.5817 468.345Z" fill="#FF0000"/>
<path d="M89.3024 468.345C94.7824 468.345 99.2248 463.903 99.2248 458.422C99.2248 452.942 94.7824 448.5 89.3024 448.5C83.8223 448.5 79.3799 452.942 79.3799 458.422C79.3799 463.903 83.8223 468.345 89.3024 468.345Z" fill="#FF0000"/>
<path d="M125.023 468.345C130.503 468.345 134.946 463.903 134.946 458.422C134.946 452.942 130.503 448.5 125.023 448.5C119.543 448.5 115.101 452.942 115.101 458.422C115.101 463.903 119.543 468.345 125.023 468.345Z" fill="#FF0000"/>
<path d="M160.744 468.345C166.224 468.345 170.666 463.903 170.666 458.422C170.666 452.942 166.224 448.5 160.744 448.5C155.264 448.5 150.821 452.942 150.821 458.422C150.821 463.903 155.264 468.345 160.744 468.345Z" fill="#D7D7D7"/>
<path d="M48.4268 432.62H38.1677L18.1966 403.892V432.62H7.9375V388.961H18.1966L38.2019 417.748V388.961H48.4268V432.62Z" fill="#000024"/>
<path d="M87.3435 413.7H67.6458V425.392H90.7632V432.62H57.3867V388.961H90.6945V396.248H67.6458V406.651H87.3435V413.7Z" fill="#000024"/>
<path d="M134.946 396.248H119.694V432.62H109.435V396.248H94.3887V388.961H134.946V396.248Z" fill="#000024"/>
</svg>
